{
.appVersion = "3428";
.formatVersion = 3;
classes = (
{
automatic = 1;

glyphs = (
{
glyphname = A;
kernLeft = A;
kernRight = A;
lastChange = "2025-07-23 22:17:23 +0000";
layers = (
{
anchors = (
{
name = BOTTOM;
pos = (345,0);
},
{
name = TOP;
pos = (362,707);
}
);
background = {
shapes = (
{
closed = 1;
nodes = (
(1647,42,l),
(1395,737,l),
(1313,707,l),
(1565,12,l)
);
},
{
closed = 1;
nodes = (
(1134,0,l),
(1134,46,l),
(1077,46,l),
(1077,0,l)
);
},
{
closed = 1;
nodes = (
(1390,673,l),
(1339,692,l),
(1069,29,l),
(1119,9,l)
);
},
{
closed = 1;
nodes = (
(1645,0,l),
(1645,46,l),
(1553,46,l),
(1553,0,l)
);
},
{
closed = 1;
nodes = (
(1504,249,l),
(1504,300,l),
(1209,300,l),
(1209,249,l)
);
},
{
closed = 1;
nodes = (
(663,0,l),
(395,737,l),
(313,707,l),
(570,0,l)
);
},
{
closed = 1;
nodes = (
(135,0,l),
(135,46,l),
(108,46,l),
(108,0,l)
);
},
{
closed = 1;
nodes = (
(390,673,l),
(337,692,l),
(57,0,l),
(117,0,l)
);
},
{
closed = 1;
nodes = (
(581,0,l),
(581,46,l),
(553,46,l),
(553,0,l)
);
},
{
closed = 1;
nodes = (
(504,249,l),
(504,300,l),
(206,300,l),
(206,249,l)
);
}
);
};
guides = (
{
angle = 110;
pos = (335,895);
},
{
angle = 110;
pos = (241,903);
},
{
angle = 68;
pos = (417,891);
},
{
angle = 68;
pos = (477,889);
},
{
angle = 20;
pos = (450,757);
}
);
layerId = "6D97EE47-94AA-478E-ABFB-936E6C32B491";
shapes = (
{
closed = 1;
nodes = (
(660,0,l),
(393,737,l),
(313,707,l),
(570,0,l)
);
},
{
closed = 1;
nodes = (
(135,0,l),
(135,46,l),
(108,46,l),
(108,0,l)
);
},
{
closed = 1;
nodes = (
(390,673,l),
(337,692,l),
(57,0,l),
(117,0,l)
);
},
{
closed = 1;
nodes = (
(581,0,l),
(581,46,l),
(553,46,l),
(553,0,l)
);
},
{
closed = 1;
nodes = (
(504,249,l),
(504,300,l),
(206,300,l),
(206,249,l)
);
},
{
pos = (76,0);
ref = _serifuc;
scale = (-0.82,1);
},
{
pos = (135,0);
ref = _serifuc;
},
{
pos = (553,0);
ref = _serifuc;
scale = (-1,1);
},
{
pos = (643,0);
ref = _serifuc;
scale = (0.88,1);
}
);
width = 714;
}
);
unicode = 65;
},
{
glyphname = AE;
kernLeft = AE;
kernRight = E;
lastChange = "2025-07-23 22:17:23 +0000";
layers = (
{
anchors = (
{
name = TOP;
pos = (647,707);
}
);
background = {
shapes = (
{
closed = 1;
nodes = (
(1138,0,l),
(1138,45,l),
(1490,707,l),
(1422,707,l),
(1422,694,l),
(1076,44,l),
(1076,0,l)
);
},
{
closed = 1;
nodes = (
(1507,249,l),
(1507,300,l),
(1212,300,l),
(1212,249,l)
);
},
{
angle = 180;
pos = (1422,707);
ref = _serifuc;
},
{
closed = 1;
nodes = (
(1549,0,l),
(1549,707,l),
(1462,707,l),
(1462,0,l)
);
},
{
closed = 1;
nodes = (
(1864,0,l),
(1864,51,l),
(1502,51,l),
(1502,0,l)
);
},
{
closed = 1;
nodes = (
(1897,151,l),
(1865,159,l),
(1862,146,o),
(1838,85,o),
(1812,51,c),
(1793,13,l),
(1864,0,l)
);
},
{
closed = 1;
nodes = (
(1799,342,l),
(1799,393,l),
(1502,393,l),
(1502,342,l)
);
},
{
closed = 1;
nodes = (
(1839,656,l),
(1839,707,l),
(1502,707,l),
(1502,656,l)
);
},
{
closed = 1;
nodes = (
(1844,571,l),
(1839,707,l),
(1783,704,l),
(1791,658,l),
(1805,628,o),
(1810,592,o),
(1812,569,c)
);
},
{
pos = (324,0);
ref = E;
}
);
};
guides = (
{
angle = 62;
pos = (510,863);
},
{
angle = 62;
pos = (592,899);
}
);
layerId = "6D97EE47-94AA-478E-ABFB-936E6C32B491";
shapes = (
{
closed = 1;
nodes = (
(114,0,l),
(490,707,l),
(427,707,l),
(51,0,l)
);
},
{
closed = 1;
nodes = (
(507,249,l),
(507,300,l),
(232,300,l),
(232,249,l)
);
},
{
pos = (76,0);
ref = _serifuc;
scale = (-0.82,1);
},
{
pos = (138,0);
ref = _serifuc;
},
{
angle = 180;
pos = (420,707);
ref = _serifuc;
},
{
closed = 1;
nodes = (
(108,0,l),
(138,0,l),
(138,46,l),
(108,46,l)
);
},
{
alignment = -1;
pos = (324,0);
ref = E;
}
);
width = 922;
}
);
metricLeft = A;
metricRight = E;
unicode = 198;
},
{
glyphname = B;
kernLeft = H;
kernRight = B;
lastChange = "2025-07-23 22:17:23 +0000";
layers = (
{
background = {
shapes = (
{
closed = 1;
nodes = (
(3260,0,ls),
(3423,0,o),
(3500,105,o),
(3500,198,cs),
(3500,292,o),
(3423,370,o),
(3336,398,c),
(3391,424,o),
(3433,490,o),
(3433,558,cs),
(3433,658,o),
(3353,721,o),
(3236,721,cs),
(3167,721,o),
(3038,709,o),
(2950,699,c),
(3038,691,l),
(3038,0,l)
);
},
{
closed = 1;
nodes = (
(3409,89,o),
(3338,43,o),
(3238,43,cs),
(3189,43,o),
(3142,54,o),
(3125,69,c),
(3125,349,l),
(3175,349,o),
(3238,354,o),
(3292,334,cs),
(3363,310,o),
(3409,249,o),
(3409,175,cs)
);
},
{
closed = 1;
nodes = (
(3125,673,l),
(3259,692,o),
(3349,650,o),
(3349,531,cs),
(3349,483,o),
(3328,439,o),
(3296,419,cs),
(3249,388,o),
(3149,394,o),
(3125,395,c)
);
},
{
closed = 1;
nodes = (
(3038,699,l),
(2950,699,l),
(2953,669,l),
(2971,670,o),
(3008,672,o),
(3038,663,c)
);
},
{
closed = 1;
nodes = (
(360,0,ls),
(523,0,o),
(600,105,o),
(600,198,cs),
(600,292,o),
(523,370,o),
(436,398,c),
(491,424,o),
(533,490,o),
(533,558,cs),
(533,613,o),
(507,662,o),
(460,690,cs),
(420,714,o),
(366,721,o),
(311,721,cs),
(227,721,o),
(138,710,o),
(50,699,c),
(138,691,l),
(138,0,l)
);
},
{
closed = 1;
nodes = (
(509,89,o),
(438,43,o),
(338,43,cs),
(289,43,o),
(242,54,o),
(225,69,c),
(225,349,l),
(275,349,o),
(338,354,o),
(392,334,cs),
(463,310,o),
(509,249,o),
(509,175,cs)
);
},
{
closed = 1;
nodes = (
(225,668,l),
(359,687,o),
(449,650,o),
(449,531,cs),
(449,483,o),
(428,439,o),
(396,419,cs),
(349,388,o),
(249,394,o),
(225,395,c)
);
},
{
closed = 1;
nodes = (
(1060,-1100,ls),
(1223,-1100,o),
(1300,-995,o),
(1300,-902,cs),
(1300,-808,o),
(1223,-730,o),
(1136,-702,c),
(1191,-676,o),
(1233,-610,o),
(1233,-542,cs),
(1233,-487,o),
(1207,-438,o),
(1160,-410,cs),
(1120,-386,o),
(1066,-379,o),
(1011,-379,cs),
(927,-379,o),
(838,-390,o),
(750,-401,c),
(838,-409,l),
(838,-1100,l)
);
},
{
closed = 1;
nodes = (
(1209,-1011,o),
(1138,-1057,o),
(1038,-1057,cs),
(989,-1057,o),
(942,-1046,o),
(925,-1031,c),
(925,-751,l),
(975,-751,o),
(1038,-746,o),
(1092,-766,cs),
(1163,-790,o),
(1209,-851,o),
(1209,-925,cs)
);
},
{
closed = 1;
nodes = (
(925,-427,l),
(1059,-406,o),
(1149,-450,o),
(1149,-569,cs),
(1149,-617,o),
(1128,-661,o),
(1096,-681,cs),
(1049,-712,o),
(949,-706,o),
(925,-705,c)
);
},
{
closed = 1;
nodes = (
(360,-1100,ls),
(523,-1100,o),
(600,-995,o),
(600,-902,cs),
(600,-808,o),
(523,-730,o),
(436,-702,c),
(491,-676,o),
(533,-610,o),
(533,-542,cs),
(533,-487,o),
(507,-438,o),
(460,-410,cs),
(420,-386,o),
(366,-379,o),
(311,-379,cs),
(227,-379,o),
(138,-390,o),
(50,-401,c),
(138,-409,l),
(138,-1100,l)
);
},
{
closed = 1;
nodes = (
(509,-1011,o),
(438,-1057,o),
(338,-1057,cs),
(289,-1057,o),
(242,-1046,o),
(225,-1031,c),
(225,-746,l),
(274,-744,o),
(338,-743,o),
(392,-763,cs),
(463,-787,o),
(509,-851,o),
(509,-925,cs)
);
},
{
closed = 1;
nodes = (
(225,-427,l),
(359,-406,o),
(449,-450,o),
(449,-569,cs),
(449,-694,o),
(350,-713,o),
(225,-710,c)
);
},
{
closed = 1;
nodes = (
(-440,0,ls),
(-277,0,o),
(-200,99,o),
(-200,192,cs),
(-200,279,o),
(-266,357,o),
(-395,382,c),
(-327,401,o),
(-267,459,o),
(-267,558,cs),
(-267,665,o),
(-365,721,o),
(-489,721,cs),
(-573,721,o),
(-662,710,o),
(-750,699,c),
(-662,691,l),
(-662,0,l)
);
},
{
closed = 1;
nodes = (
(-291,83,o),
(-362,43,o),
(-462,43,cs),
(-511,43,o),
(-558,54,o),
(-575,69,c),
(-575,354,l),
(-526,356,o),
(-462,357,o),
(-408,337,cs),
(-337,313,o),
(-291,243,o),
(-291,169,cs)
);
},
{
closed = 1;
nodes = (
(-575,673,l),
(-441,694,o),
(-351,650,o),
(-351,531,cs),
(-351,406,o),
(-450,387,o),
(-575,390,c)
);
}
);
};
layerId = "6D97EE47-94AA-478E-ABFB-936E6C32B491";
shapes = (
{
closed = 1;
nodes = (
(360,0,ls),
(523,0,o),
(601,99,o),
(601,192,cs),
(601,279,o),
(534,357,o),
(405,382,c),
(467,407,o),
(538,459,o),
(538,558,cs),
(538,665,o),
(435,721,o),
(311,721,cs),
(227,721,o),
(138,710,o),
(50,699,c),
(138,691,l),
(138,0,l)
);
},
{
closed = 1;
nodes = (
(507,83,o),
(438,43,o),
(338,43,cs),
(289,43,o),
(242,54,o),
(225,69,c),
(225,354,l),
(274,356,o),
(338,357,o),
(392,337,cs),
(462,311,o),
(507,253,o),
(507,179,cs)
);
},
{
closed = 1;
nodes = (
(225,673,l),
(359,694,o),
(450,650,o),
(450,531,cs),
(450,406,o),
(350,387,o),
(225,390,c)
);
},
{
pos = (138,0);
ref = _serifuc;
scale = (-1,1);
},
{
pos = (50,0);
ref = _serifuctopslant;
}
);
width = 626;
}
);
metricLeft = H;
metricRight = "=H/2";
unicode = 66;
},
{
glyphname = C;
kernLeft = O;
kernRight = C;
lastChange = "2025-07-23 22:17:23 +0000";
layers = (
{
anchors = (
{
name = BOTTOM;
pos = (403,0);
},
{
name = TOP;
pos = (403,707);
}
);
background = {
shapes = (
{
closed = 1;
nodes = (
(715,161,l),
(685,176,l),
(628,87,o),
(587,56,o),
(504,38,cs),
(353,5,o),
(199,123,o),
(158,283,cs),
(113,456,o),
(191,622,o),
(339,661,cs),
(457,692,o),
(594,667,o),
(642,540,c),
(672,546,l),
(652,688,l),
(585,706,o),
(448,741,o),
(327,708,cs),
(130,656,o),
(8,453,o),
(61,257,cs),
(113,61,o),
(313,-73,o),
(637,13,c)
);
}
);
};
layerId = "6D97EE47-94AA-478E-ABFB-936E6C32B491";
shapes = (
{
closed = 1;
nodes = (
(715,161,l),
(685,176,l),
(626,83,o),
(563,33,o),
(452,33,cs),
(284,33,o),
(145,197,o),
(145,380,cs),
(145,549,o),
(254,673,o),
(425,673,cs),
(520,673,o),
(606,634,o),
(642,539,c),
(672,545,l),
(652,687,l),
(606,700,o),
(523,721,o),
(431,721,cs),
(221,721,o),
(50,560,o),
(50,350,cs),
(50,135,o),
(217,-14,o),
(448,-14,cs),
(505,-14,o),
(568,-5,o),
(637,13,c)
);
}
);
width = 740;
}
);
metricLeft = O;
metricRight = "=H/2";
unicode = 67;
},
{
glyphname = D;
kernLeft = H;
kernRight = O;
lastChange = "2025-07-23 22:17:23 +0000";
layers = (
{
anchors = (
{
name = TOP;
pos = (380,707);
}
);
background = {
shapes = (
{
closed = 1;
nodes = (
(3449,0,o),
(3435,0,o),
(3510,0,cs),
(3573,0,o),
(3651,7,o),
(3695,19,cs),
(3858,62,o),
(3982,203,o),
(3982,364,cs),
(3982,597,o),
(3790,721,o),
(3532,721,cs),
(3437,721,o),
(3338,714,o),
(3250,704,c),
(3424,668,l),
(3679,705,o),
(3884,575,o),
(3884,337,cs),
(3884,157,o),
(3748,47,o),
(3553,47,cs),
(3495,47,o),
(3447,59,o),
(3411,74,c),
(3411,0,l)
);
},
{
closed = 1;
nodes = (
(3425,0,l),
(3425,711,l),
(3338,700,l),
(3338,0,l)
);
},
{
closed = 1;
nodes = (
(3346,711,l),
(3250,704,l),
(3253,674,l),
(3273,676,o),
(3316,676,o),
(3351,666,c)
);
},
{
closed = 1;
nodes = (
(2349,0,o),
(2335,0,o),
(2410,0,cs),
(2473,0,o),
(2551,7,o),
(2595,19,cs),
(2758,62,o),
(2882,203,o),
(2882,364,cs),
(2882,597,o),
(2690,721,o),
(2432,721,cs),
(2337,721,o),
(2240,711,o),
(2150,699,c),
(2324,668,l),
(2579,705,o),
(2784,575,o),
(2784,337,cs),
(2784,157,o),
(2648,47,o),
(2453,47,cs),
(2395,47,o),
(2347,59,o),
(2311,74,c),
(2311,0,l)
);
},
{
closed = 1;
nodes = (
(2325,0,l),
(2325,711,l),
(2238,695,l),
(2238,0,l)
);
},
{
closed = 1;
nodes = (
(2246,706,l),
(2150,699,l),
(2153,669,l),
(2173,671,o),
(2216,671,o),
(2251,661,c)
);
},
{
closed = 1;
nodes = (
(1249,0,o),
(1235,0,o),
(1310,0,cs),
(1373,0,o),
(1451,7,o),
(1495,19,cs),
(1658,62,o),
(1782,203,o),
(1782,364,cs),
(1782,597,o),
(1590,721,o),
(1332,721,cs),
(1237,721,o),
(1140,711,o),
(1050,699,c),
(1224,668,l),
(1479,705,o),
(1684,575,o),
(1684,337,cs),
(1684,157,o),
(1548,47,o),
(1353,47,cs),
(1295,47,o),
(1247,59,o),
(1211,74,c),
(1211,0,l)
);
},
{
closed = 1;
nodes = (
(1225,0,l),
(1225,711,l),
(1138,695,l),
(1138,0,l)
);
},
{
closed = 1;
nodes = (
(1146,706,l),
(1050,699,l),
(1053,669,l),
(1073,671,o),
(1116,671,o),
(1151,661,c)
);
},
{
closed = 1;
nodes = (
(217,0,o),
(221,0,o),
(225,0,cs),
(310,0,ls),
(373,0,o),
(451,7,o),
(495,19,cs),
(658,62,o),
(780,203,o),
(780,364,cs),
(780,594,o),
(590,721,o),
(332,721,cs),
(237,721,o),
(140,711,o),
(50,699,c),
(138,683,l),
(138,0,l),
(211,0,ls)
);
},
{
closed = 1;
nodes = (
(225,668,l),
(480,705,o),
(684,575,o),
(684,337,cs),
(684,157,o),
(548,47,o),
(353,47,cs),
(302,47,o),
(259,56,o),
(225,69,c)
);
}
);
};
layerId = "6D97EE47-94AA-478E-ABFB-936E6C32B491";
shapes = (
{
pos = (138,0);
ref = _serifuc;
scale = (-1,1);
},
{
closed = 1;
nodes = (
(217,0,o),
(221,0,o),
(225,0,cs),
(310,0,ls),
(373,0,o),
(451,7,o),
(495,19,cs),
(658,62,o),
(780,203,o),
(780,364,cs),
(780,594,o),
(590,721,o),
(332,721,cs),
(237,721,o),
(140,711,o),
(50,699,c),
(138,683,l),
(138,0,l),
(211,0,ls)
);
},
{
closed = 1;
nodes = (
(225,668,l),
(480,705,o),
(687,575,o),
(687,337,cs),
(687,157,o),
(548,47,o),
(353,47,cs),
(302,47,o),
(259,56,o),
(225,69,c)
);
},
{
pos = (50,0);
ref = _serifuctopslant;
}
);
width = 830;
}
);
metricLeft = H;
metricRight = O;
unicode = 68;
},
{
glyphname = Eth;
kernLeft = H;
kernRight = O;
lastChange = "2025-07-23 22:17:23 +0000";
layers = (
{
layerId = "6D97EE47-94AA-478E-ABFB-936E6C32B491";
shapes = (
{
closed = 1;
nodes = (
(419,344,l),
(419,386,l),
(50,386,l),
(50,344,l)
);
},
{
pos = (4,0);
ref = D;
}
);
width = 834;
}
);
metricLeft = D;
metricRight = D;
unicode = 208;
},
{
glyphname = E;
kernLeft = H;
kernRight = E;
lastChange = "2025-07-23 22:17:23 +0000";
layers = (
{
anchors = (
{
name = BOTTOM;
pos = (324,0);
},
{
name = TOP;
pos = (314,707);
}
);
background = {
shapes = (
{
closed = 1;
nodes = (
(225,0,l),
(225,707,l),
(138,707,l),
(138,0,l)
);
},
{
closed = 1;
nodes = (
(540,0,l),
(540,51,l),
(178,51,l),
(178,0,l)
);
},
{
closed = 1;
nodes = (
(573,151,l),
(541,159,l),
(538,146,o),
(514,85,o),
(488,51,c),
(469,13,l),
(540,0,l)
);
},
{
closed = 1;
nodes = (
(475,342,l),
(475,393,l),
(178,393,l),
(178,342,l)
);
},
{
closed = 1;
nodes = (
(475,263,l),
(475,351,l),
(428,351,l),
(440,321,o),
(443,282,o),
(443,263,c)
);
},
{
closed = 1;
nodes = (
(475,376,l),
(475,463,l),
(443,463,l),
(443,444,o),
(440,406,o),
(428,376,c)
);
},
{
closed = 1;
nodes = (
(515,656,l),
(515,707,l),
(178,707,l),
(178,656,l)
);
},
{
closed = 1;
nodes = (
(520,571,l),
(515,707,l),
(459,704,l),
(467,658,l),
(481,628,o),
(486,592,o),
(488,569,c)
);
}
);
};
layerId = "6D97EE47-94AA-478E-ABFB-936E6C32B491";
shapes = (
{
closed = 1;
nodes = (
(225,0,l),
(225,707,l),
(138,707,l),
(138,0,l)
);
},
{
closed = 1;
nodes = (
(540,0,l),
(540,51,l),
(215,51,l),
(215,0,l)
);
},
{
closed = 1;
nodes = (
(573,151,l),
(541,159,l),
(538,146,o),
(514,85,o),
(488,51,c),
(469,13,l),
(540,0,l)
);
},
{
closed = 1;
nodes = (
(475,341,l),
(475,392,l),
(215,392,l),
(215,341,l)
);
},
{
closed = 1;
nodes = (
(515,656,l),
(515,707,l),
(215,707,l),
(215,656,l)
);
},
{
closed = 1;
nodes = (
(520,571,l),
(515,707,l),
(459,704,l),
(467,658,l),
(481,628,o),
(486,592,o),
(488,569,c)
);
},
{
pos = (138,0);
ref = _serifuc;
scale = (-1,1);
},
{
angle = 180;
pos = (138,707);
ref = _serifuc;
},
{
angle = 90;
pos = (475,351);
ref = _serifuc;
scale = (-1,1);
},
{
angle = 90;
pos = (475,380);
ref = _serifuc;
}
);
width = 598;
}
);
metricLeft = H;
metricRight = "=H/2";
unicode = 69;
},
{
glyphname = Schwa;
kernLeft = Schwa;
kernRight = O;
lastChange = "2025-07-23 22:17:23 +0000";
layers = (
{
background = {
shapes = (
{
closed = 1;
nodes = (
(393,-14,o),
(467,-7,o),
(539,47,cs),
(617,105,o),
(684,187,o),
(684,360,cs),
(684,562,o),
(527,721,o),
(324,721,cs),
(192,721,o),
(108,647,o),
(78,609,c),
(108,580,l),
(142,613,o),
(216,667,o),
(301,667,cs),
(467,667,o),
(593,507,o),
(593,319,cs),
(593,172,o),
(524,34,o),
(347,34,cs),
(223,34,o),
(143,153,o),
(143,238,c),
(619,238,l),
(628,289,l),
(42,289,l),
(41,277,o),
(40,266,o),
(40,255,cs),
(40,99,o),
(183,-14,o),
(330,-14,cs)
);
}
);
};
layerId = "6D97EE47-94AA-478E-ABFB-936E6C32B491";
shapes = (
{
closed = 1;
nodes = (
(533,-14,o),
(684,118,o),
(684,360,cs),
(684,562,o),
(527,721,o),
(324,721,cs),
(192,721,o),
(108,647,o),
(78,609,c),
(108,580,l),
(142,613,o),
(216,667,o),
(301,667,cs),
(467,667,o),
(593,507,o),
(593,319,cs),
(593,172,o),
(524,34,o),
(347,34,cs),
(223,34,o),
(143,153,o),
(143,238,c),
(619,238,l),
(628,289,l),
(42,289,l),
(22,108,o),
(168,-14,o),
(345,-14,cs)
);
}
);
width = 734;
}
);
metricRight = O;
unicode = 399;
},
{
glyphname = F;
kernLeft = H;
kernRight = F;
lastChange = "2025-07-23 22:17:23 +0000";
layers = (
{
layerId = "6D97EE47-94AA-478E-ABFB-936E6C32B491";
shapes = (
{
closed = 1;
nodes = (
(225,0,l),
(225,707,l),
(138,707,l),
(138,0,l)
);
},
{
closed = 1;
nodes = (
(470,331,l),
(470,382,l),
(215,382,l),
(215,331,l)
);
},
{
closed = 1;
nodes = (
(515,656,l),
(515,707,l),
(215,707,l),
(215,656,l)
);
},
{
closed = 1;
nodes = (
(520,571,l),
(515,707,l),
(459,704,l),
(467,658,l),
(481,628,o),
(486,592,o),
(488,569,c)
);
},
{
pos = (138,0);
ref = _serifuc;
scale = (-1,1);
},
{
pos = (225,0);
ref = _serifuc;
scale = (1.1,1);
},
{
angle = 90;
pos = (470,341);
ref = _serifuc;
scale = (-1,1);
},
{
angle = 180;
pos = (138,707);
ref = _serifuc;
},
{
angle = 90;
pos = (470,370);
ref = _serifuc;
}
);
width = 545;
}
);
metricLeft = H;
metricRight = "=H/2";
unicode = 70;
},
{
glyphname = G;
kernLeft = O;
kernRight = G;
lastChange = "2025-07-23 22:17:23 +0000";
layers = (
{
anchors = (
{
name = BOTTOM;
pos = (429,0);
},
{
name = TOP;
pos = (429,707);
}
);
layerId = "6D97EE47-94AA-478E-ABFB-936E6C32B491";
shapes = (
{
closed = 1;
nodes = (
(50,129,o),
(220,-14,o),
(458,-14,cs),
(563,-14,o),
(646,13,o),
(730,17,c),
(730,52,l),
(720,57,o),
(708,67,o),
(704,76,c),
(704,221,l),
(715,228,o),
(743,237,o),
(759,237,c),
(759,269,l),
(529,269,l),
(529,237,l),
(547,237,o),
(587,234,o),
(617,221,c),
(617,70,l),
(562,43,o),
(511,31,o),
(463,31,cs),
(288,31,o),
(145,192,o),
(145,380,cs),
(145,552,o),
(255,673,o),
(435,673,cs),
(531,673,o),
(628,634,o),
(664,539,c),
(694,545,l),
(673,687,l),
(627,700,o),
(534,721,o),
(434,721,cs),
(221,721,o),
(50,563,o),
(50,349,cs)
);
}
);
width = 799;
}
);
metricLeft = O;
metricRight = "=H-10";
unicode = 71;
},
{
glyphname = H;
kernLeft = H;
kernRight = H;
lastChange = "2025-07-23 22:17:23 +0000";
layers = (
{
anchors = (
{
name = TOP;
pos = (425,707);
}
);
layerId = "6D97EE47-94AA-478E-ABFB-936E6C32B491";
shapes = (
{
closed = 1;
nodes = (
(647,348,l),
(647,399,l),
(203,399,l),
(203,348,l)
);
},
{
ref = I;
},
{
pos = (487,0);
ref = I;
}
);
width = 850;
}
);
unicode = 72;
},
{
glyphname = Hbar;
kernLeft = H;
kernRight = H;
lastChange = "2025-07-23 22:17:23 +0000";
layers = (
{
layerId = "6D97EE47-94AA-478E-ABFB-936E6C32B491";
shapes = (
{
closed = 1;
nodes = (
(648,328,l),
(648,379,l),
(204,379,l),
(204,328,l)
);
},
{
closed = 1;
nodes = (
(804,499,l),
(804,541,l),
(50,541,l),
(50,499,l)
);
},
{
pos = (1,0);
ref = I;
},
{
pos = (488,0);
ref = I;
}
);
width = 854;
}
);
metricLeft = H;
metricRight = H;
unicode = 294;
},
{
glyphname = I;
kernLeft = H;
kernRight = H;
lastChange = "2025-07-23 22:17:23 +0000";
layers = (
{
anchors = (
{
name = BOTTOM;
pos = (182,0);
},
{
name = TOP;
pos = (181,707);
}
);
layerId = "6D97EE47-94AA-478E-ABFB-936E6C32B491";
shapes = (
{
closed = 1;
nodes = (
(225,0,l),
(225,707,l),
(138,707,l),
(138,0,l)
);
},
{
pos = (138,0);
ref = _serifuc;
scale = (-1,1);
},
{
pos = (225,0);
ref = _serifuc;
},
{
angle = 180;
pos = (138,707);
ref = _serifuc;
},
{
pos = (225,707);
ref = _serifuc;
scale = (1,-1);
}
);
width = 363;
}
);
metricLeft = H;
metricRight = H;
unicode = 73;
},
{
color = 9;
glyphname = Icapitalsmall;
lastChange = "2025-11-06 14:27:16 +0000";
layers = (
{
anchors = (
{
name = BOTTOM;
pos = (321,0);
},
{
name = TOP;
pos = (321,707);
}
);
layerId = "6D97EE47-94AA-478E-ABFB-936E6C32B491";
shapes = (
{
closed = 1;
nodes = (
(628,0,l),
(602,179,l),
(570,176,l),
(571,136,o),
(573,97,o),
(567,51,c),
(364,51,l),
(364,656,l),
(567,656,l),
(573,610,o),
(571,571,o),
(570,531,c),
(602,528,l),
(628,707,l),
(10,707,l),
(10,531,l),
(42,531,l),
(48,572,o),
(54,611,o),
(66,656,c),
(277,656,l),
(277,51,l),
(66,51,l),
(54,96,o),
(48,135,o),
(42,176,c),
(10,176,l),
(10,0,l)
);
}
);
width = 638;
}
);
unicode = 42926;
},
{
glyphname = J;
kernLeft = J;
kernRight = H;
lastChange = "2025-07-23 22:17:23 +0000";
layers = (
{
anchors = (
{
name = TOP;
pos = (220,707);
}
);
background = {
shapes = (
{
closed = 1;
nodes = (
(92,-271,o),
(221,-175,o),
(264,0,c),
(176,0,l),
(166,-121,o),
(90,-223,o),
(46,-263,c),
(68,-286,l)
);
},
{
closed = 1;
nodes = (
(214,9,l),
(176,62,l),
(177,18,o),
(176,-27,o),
(162,-73,c)
);
},
{
closed = 1;
nodes = (
(264,0,l),
(264,707,l),
(176,707,l),
(176,0,l)
);
}
);
};
guides = (
{
angle = -46;
pos = (13,-229);
}
);
layerId = "6D97EE47-94AA-478E-ABFB-936E6C32B491";
shapes = (
{
closed = 1;
nodes = (
(68,-286,l),
(92,-271,o),
(221,-175,o),
(264,0,c),
(264,707,l),
(176,707,l),
(176,20,ls),
(176,-6,o),
(173,-33,o),
(166,-59,cs),
(141,-154,o),
(83,-230,o),
(46,-263,c)
);
},
{
angle = 180;
pos = (176,707);
ref = _serifuc;
},
{
pos = (264,707);
ref = _serifuc;
scale = (1,-1);
}
);
width = 402;
}
);
metricRight = H;
unicode = 74;
},
{
glyphname = K;
kernLeft = H;
kernRight = K;
lastChange = "2025-07-23 22:17:23 +0000";
layers = (
{
anchors = (
{
name = BOTTOM;
pos = (356,0);
}
);
background = {
shapes = (
{
closed = 1;
nodes = (
(225,0,l),
(225,707,l),
(138,707,l),
(138,0,l)
);
},
{
closed = 1;
nodes = (
(624,707,l),
(555,707,l),
(243,373,l),
(281,338,l)
);
},
{
closed = 1;
nodes = (
(567,661,l),
(567,707,l),
(512,707,l),
(512,661,l)
);
},
{
closed = 1;
nodes = (
(243,373,l),
(275,331,o),
(418,117,o),
(469,65,cs),
(525,7,o),
(568,-30,o),
(705,-30,c),
(712,0,l),
(623,27,o),
(591,68,o),
(538,127,cs),
(475,197,o),
(374,333,o),
(331,392,c)
);
}
);
};
guides = (
{
angle = 47;
pos = (616,773);
},
{
angle = 47;
pos = (672,756);
},
{
angle = 77;
pos = (725,57);
},
{
angle = -53;
pos = (-30,871);
},
{
angle = -55;
pos = (-105,871);
}
);
layerId = "6D97EE47-94AA-478E-ABFB-936E6C32B491";
shapes = (
{
closed = 1;
nodes = (
(225,0,l),
(225,707,l),
(138,707,l),
(138,0,l)
);
},
{
closed = 1;
nodes = (
(627,707,l),
(555,707,l),
(243,373,l),
(283,338,l)
);
},
{
closed = 1;
nodes = (
(567,661,l),
(567,707,l),
(512,707,l),
(512,661,l)
);
},
{
pos = (138,0);
ref = _serifuc;
scale = (-1,1);
},
{
pos = (225,0);
ref = _serifuc;
scale = (1.04,1);
},
{
angle = 180;
pos = (138,707);
ref = _serifuc;
},
{
pos = (225,707);
ref = _serifuc;
scale = (1,-1);
},
{
angle = 180;
pos = (512,707);
ref = _serifuc;
scale = (0.82,1);
},
{
pos = (584,707);
ref = _serifuc;
scale = (1,-1);
},
{
closed = 1;
nodes = (
(243,373,l),
(275,331,o),
(418,117,o),
(469,65,cs),
(525,7,o),
(568,-30,o),
(705,-30,c),
(712,0,l),
(623,27,o),
(591,68,o),
(538,127,cs),
(475,197,o),
(374,333,o),
(331,392,c)
);
}
);
width = 706;
}
);
metricLeft = H;
unicode = 75;
},
{
glyphname = L;
kernLeft = H;
kernRight = E;
lastChange = "2025-07-23 22:17:23 +0000";
layers = (
{
anchors = (
{
name = BOTTOM;
pos = (313,0);
},
{
name = TOP;
pos = (182,707);
}
);
layerId = "6D97EE47-94AA-478E-ABFB-936E6C32B491";
shapes = (
{
closed = 1;
nodes = (
(225,0,l),
(225,707,l),
(138,707,l),
(138,0,l)
);
},
{
closed = 1;
nodes = (
(540,0,l),
(540,51,l),
(215,51,l),
(215,0,l)
);
},
{
closed = 1;
nodes = (
(586,148,l),
(555,158,l),
(547,139,o),
(516,77,o),
(493,51,c),
(471,19,l),
(540,0,l)
);
},
{
pos = (138,0);
ref = _serifuc;
scale = (-1,1);
},
{
angle = 180;
pos = (138,707);
ref = _serifuc;
},
{
pos = (225,707);
ref = _serifuc;
scale = (1,-1);
}
);
width = 590;
}
);
metricLeft = H;
unicode = 76;
},
{
glyphname = Lslash;
kernLeft = H;
kernRight = E;
lastChange = "2025-07-23 22:17:23 +0000";
layers = (
{
layerId = "6D97EE47-94AA-478E-ABFB-936E6C32B491";
shapes = (
{
closed = 1;
nodes = (
(406,427,l),
(387,465,l),
(52,301,l),
(71,263,l)
);
},
{
ref = L;
}
);
width = 590;
}
);
metricLeft = L;
metricRight = L;
unicode = 321;
},
{
glyphname = M;
kernLeft = M;
kernRight = M;
lastChange = "2025-07-23 22:17:23 +0000";
layers = (
{
background = {
shapes = (
{
closed = 1;
nodes = (
(1987,707,l),
(1930,707,l),
(1650,136,l),
(1680,135,l),
(1446,707,l),
(1351,707,l),
(1640,0,l)
);
},
{
closed = 1;
nodes = (
(1385,0,l),
(1385,46,l),
(1329,46,l),
(1329,0,l)
);
},
{
closed = 1;
nodes = (
(1383,0,l),
(1414,707,l),
(1358,707,l),
(1327,0,l)
);
},
{
closed = 1;
nodes = (
(1369,659,l),
(1369,707,l),
(1356,707,l),
(1356,661,l)
);
},
{
closed = 1;
nodes = (
(2016,0,l),
(1988,707,l),
(1987,707,l),
(1906,593,l),
(1929,0,l)
);
},
{
closed = 1;
nodes = (
(1989,661,l),
(1989,707,l),
(1976,707,l),
(1976,661,l)
);
},
{
closed = 1;
nodes = (
(1928,0,l),
(1938,0,l),
(1938,46,l),
(1928,46,l)
);
},
{
closed = 1;
nodes = (
(787,707,l),
(727,707,l),
(447,136,l),
(479,135,l),
(245,707,l),
(151,707,l),
(440,0,l)
);
},
{
closed = 1;
nodes = (
(185,0,l),
(185,46,l),
(129,46,l),
(129,0,l)
);
},
{
closed = 1;
nodes = (
(183,0,l),
(214,707,l),
(158,707,l),
(127,0,l)
);
},
{
closed = 1;
nodes = (
(169,659,l),
(169,707,l),
(156,707,l),
(156,661,l)
);
},
{
closed = 1;
nodes = (
(816,0,l),
(788,707,l),
(787,707,l),
(706,593,l),
(729,0,l)
);
},
{
closed = 1;
nodes = (
(789,661,l),
(789,707,l),
(776,707,l),
(776,661,l)
);
},
{
closed = 1;
nodes = (
(728,0,l),
(738,0,l),
(738,46,l),
(728,46,l)
);
}
);
};
guides = (
{
angle = 64;
pos = (801,859);
},
{
angle = 64;
pos = (860,859);
},
{
angle = 112;
pos = (182,868);
},
{
angle = 112;
pos = (92,858);
},
{
angle = 88;
pos = (217,959);
},
{
angle = 88;
pos = (160,971);
},
{
angle = 92;
pos = (695,946);
},
{
angle = 92;
pos = (781,946);
}
);
layerId = "6D97EE47-94AA-478E-ABFB-936E6C32B491";
shapes = (
{
closed = 1;
nodes = (
(788,707,l),
(728,707,l),
(447,136,l),
(476,135,l),
(244,707,l),
(153,707,l),
(440,0,l)
);
},
{
closed = 1;
nodes = (
(185,0,l),
(185,46,l),
(169,46,l),
(169,0,l)
);
},
{
closed = 1;
nodes = (
(183,0,l),
(208,707,l),
(151,707,l),
(126,0,l)
);
},
{
closed = 1;
nodes = (
(814,0,l),
(788,707,l),
(706,593,l),
(728,0,l)
);
},
{
closed = 1;
nodes = (
(727,0,l),
(737,0,l),
(737,46,l),
(727,46,l)
);
},
{
pos = (128,0);
ref = _serifuc;
scale = (-1,1);
},
{
pos = (185,0);
ref = _serifuc;
},
{
pos = (727,0);
ref = _serifuc;
scale = (-1,1);
},
{
angle = 180;
pos = (156,707);
ref = _serifuc;
},
{
pos = (812,0);
ref = _serifuc;
},
{
pos = (789,707);
ref = _serifuc;
scale = (1,-1);
},
{
closed = 1;
nodes = (
(778,661,l),
(789,661,l),
(789,707,l),
(778,707,l)
);
}
);
width = 950;
}
);
metricLeft = "=H-10";
metricRight = H;
unicode = 77;
},
{
glyphname = N;
kernLeft = H;
kernRight = H;
lastChange = "2025-07-23 22:17:23 +0000";
layers = (
{
anchors = (
{
name = BOTTOM;
pos = (407,0);
},
{
name = TOP;
pos = (407,707);
}
);
background = {
shapes = (
{
closed = 1;
nodes = (
(1678,-14,l),
(1678,707,l),
(1622,707,l),
(1622,113,l),
(1642,120,l),
(1199,707,l),
(1128,707,l),
(1128,0,l),
(1184,0,l),
(1184,623,l),
(1158,616,l),
(1633,-14,l)
);
},
{
closed = 1;
nodes = (
(678,-14,l),
(678,707,l),
(622,707,l),
(622,113,l),
(641,120,l),
(198,707,l),
(128,707,l),
(128,0,l),
(184,0,l),
(184,623,l),
(158,616,l),
(633,-14,l)
);
}
);
};
guides = (
{
angle = 127;
pos = (138,789);
},
{
angle = 127;
pos = (36,779);
}
);
layerId = "6D97EE47-94AA-478E-ABFB-936E6C32B491";
shapes = (
{
closed = 1;
nodes = (
(678,-14,l),
(678,707,l),
(620,707,l),
(620,113,l),
(640,120,l),
(197,707,l),
(128,707,l),
(128,0,l),
(186,0,l),
(186,623,l),
(158,616,l),
(633,-14,l)
);
},
{
pos = (128,0);
ref = _serifuc;
scale = (-1,1);
},
{
pos = (186,0);
ref = _serifuc;
},
{
angle = 180;
pos = (128,707);
ref = _serifuc;
},
{
angle = 180;
pos = (620,707);
ref = _serifuc;
},
{
pos = (678,707);
ref = _serifuc;
scale = (1,-1);
}
);
width = 806;
}
);
metricLeft = "=H-10";
metricRight = "=H-10";
unicode = 78;
},
{
glyphname = Nhookleft;
kernLeft = H;
kernRight = H;
lastChange = "2025-07-23 22:17:23 +0000";
layers = (
{
background = {
shapes = (
{
closed = 1;
nodes = (
(667,-14,l),
(667,707,l),
(611,707,l),
(611,113,l),
(632,120,l),
(190,707,l),
(148,707,l),
(148,616,l),
(623,-14,l)
);
},
{
closed = 1;
nodes = (
(21,-239,o),
(64,-234,o),
(101,-209,cs),
(175,-159,o),
(173,-85,o),
(173,0,cs),
(173,707,l),
(117,707,l),
(117,0,ls),
(117,-80,o),
(113,-109,o),
(91,-131,cs),
(66,-156,o),
(14,-159,o),
(-34,-147,c),
(-28,-229,l)
);
}
);
};
guides = (
{
angle = 127;
pos = (127,788);
},
{
angle = 127;
pos = (25,778);
}
);
layerId = "6D97EE47-94AA-478E-ABFB-936E6C32B491";
shapes = (
{
closed = 1;
nodes = (
(667,-14,l),
(667,707,l),
(611,707,l),
(611,113,l),
(629,120,l),
(186,707,l),
(117,707,l),
(117,0,l),
(175,0,l),
(175,623,l),
(147,616,l),
(622,-14,l)
);
},
{
angle = 180;
pos = (117,707);
ref = _serifuc;
},
{
angle = 180;
pos = (611,707);
ref = _serifuc;
},
{
pos = (667,707);
ref = _serifuc;
scale = (1,-1);
},
{
pos = (-34,0);
ref = _nhookuc;
}
);
width = 795;
}
);
metricRight = N;
unicode = 413;
},
{
glyphname = Eng;
kernLeft = H;
kernRight = H;
lastChange = "2025-07-23 22:17:23 +0000";
layers = (
{
background = {
shapes = (
{
pos = (1100,0);
ref = N;
},
{
closed = 1;
nodes = (
(1724,-80,o),
(1722,-109,o),
(1700,-131,cs),
(1675,-155,o),
(1623,-159,o),
(1575,-147,c),
(1581,-229,l),
(1630,-239,o),
(1673,-234,o),
(1710,-209,cs),
(1754,-179,o),
(1770,-129,o),
(1775,-92,cs),
(1777,-77,o),
(1778,-48,o),
(1778,-14,cs),
(1778,42,o),
(1778,109,o),
(1778,141,c),
(1722,2,l)
);
},
{
closed = 1;
nodes = (
(526,-239,o),
(569,-234,o),
(606,-209,cs),
(650,-179,o),
(670,-134,o),
(675,-92,cs),
(680,-53,o),
(678,89,o),
(678,141,c),
(622,2,l),
(623,-80,o),
(618,-109,o),
(596,-131,cs),
(571,-156,o),
(519,-159,o),
(471,-147,c),
(477,-229,l)
);
},
{
ref = N;
}
);
};
layerId = "6D97EE47-94AA-478E-ABFB-936E6C32B491";
shapes = (
{
alignment = -1;
pos = (469,0);
ref = _nhookuc;
},
{
ref = N;
},
{
closed = 1;
nodes = (
(620,0,l),
(629,0,l),
(629,8,l),
(620,8,l)
);
}
);
width = 806;
}
);
metricLeft = N;
metricRight = N;
unicode = 330;
},
{
glyphname = O;
kernLeft = O;
kernRight = O;
lastChange = "2025-07-23 22:17:23 +0000";
layers = (
{
anchors = (
{
name = BOTTOM;
pos = (438,0);
},
{
name = TOP;
pos = (428,707);
}
);
background = {
shapes = (
{
closed = 1;
nodes = (
(466,-14,o),
(514,-5,o),
(559,13,cs),
(703,71,o),
(794,213,o),
(794,360,cs),
(794,405,o),
(786,450,o),
(768,494,cs),
(710,636,o),
(570,721,o),
(424,721,cs),
(377,721,o),
(330,712,o),
(284,694,cs),
(140,636,o),
(50,495,o),
(50,348,cs),
(50,303,o),
(58,258,o),
(76,214,cs),
(133,71,o),
(273,-14,o),
(419,-14,cs)
);
},
{
closed = 1;
nodes = (
(334,41,o),
(221,121,o),
(169,252,cs),
(150,298,o),
(141,345,o),
(141,390,cs),
(141,506,o),
(200,607,o),
(303,649,cs),
(333,661,o),
(364,667,o),
(395,667,cs),
(510,667,o),
(622,587,o),
(675,456,cs),
(693,410,o),
(702,363,o),
(702,319,cs),
(702,203,o),
(643,100,o),
(541,59,cs),
(511,47,o),
(480,41,o),
(449,41,cs)
);
},
{
closed = 1;
nodes = (
(794,320,l),
(942,320,l),
(942,393,l),
(794,393,l)
);
}
);
};
layerId = "6D97EE47-94AA-478E-ABFB-936E6C32B491";
shapes = (
{
closed = 1;
nodes = (
(625,-14,o),
(794,155,o),
(794,360,cs),
(794,562,o),
(627,721,o),
(424,721,cs),
(218,721,o),
(50,553,o),
(50,348,cs),
(50,146,o),
(215,-14,o),
(419,-14,cs)
);
},
{
closed = 1;
nodes = (
(276,41,o),
(141,215,o),
(141,390,cs),
(141,544,o),
(248,667,o),
(395,667,cs),
(566,667,o),
(702,496,o),
(702,319,cs),
(702,165,o),
(596,41,o),
(449,41,cs)
);
}
);
width = 844;
}
);
unicode = 79;
},
{
glyphname = Oslash;
kernLeft = O;
kernRight = O;
lastChange = "2025-07-23 22:17:23 +0000";
layers = (
{
layerId = "6D97EE47-94AA-478E-ABFB-936E6C32B491";
shapes = (
{
closed = 1;
nodes = (
(699,778,l),
(660,799,l),
(154,-78,l),
(192,-100,l)
);
},
{
ref = O;
}
);
width = 844;
}
);
metricLeft = O;
metricRight = O;
unicode = 216;
},
{
glyphname = OE;
kernLeft = O;
kernRight = E;
lastChange = "2025-07-23 22:17:23 +0000";
layers = (
{
background = {
shapes = (
{
pos = (-1000,0);
ref = O;
},
{
closed = 1;
nodes = (
(614,670,l),
(559,702,o),
(493,721,o),
(424,721,cs),
(218,721,o),
(50,553,o),
(50,348,cs),
(50,146,o),
(215,-14,o),
(419,-14,cs),
(490,-14,o),
(557,6,o),
(614,41,c),
(614,106,l),
(571,65,o),
(514,41,o),
(449,41,cs),
(276,41,o),
(141,215,o),
(141,390,cs),
(141,544,o),
(248,669,o),
(405,669,cs),
(481,669,o),
(552,641,o),
(614,585,c)
);
}
);
};
layerId = "6D97EE47-94AA-478E-ABFB-936E6C32B491";
shapes = (
{
alignment = -1;
pos = (450,0);
ref = E;
},
{
closed = 1;
nodes = (
(614,670,l),
(559,702,o),
(493,721,o),
(424,721,cs),
(218,721,o),
(50,553,o),
(50,348,cs),
(50,146,o),
(215,-14,o),
(419,-14,cs),
(490,-14,o),
(557,6,o),
(614,41,c),
(614,106,l),
(571,65,o),
(514,41,o),
(449,41,cs),
(276,41,o),
(141,215,o),
(141,390,cs),
(141,544,o),
(248,669,o),
(405,669,cs),
(481,669,o),
(542,651,o),
(614,595,c)
);
}
);
width = 1048;
}
);
metricLeft = O;
metricRight = E;
unicode = 338;
},
{
glyphname = P;
kernLeft = H;
kernRight = P;
lastChange = "2025-07-23 22:17:23 +0000";
layers = (
{
annotations = (
{
pos = (251,300);
text = "57";
type = Text;
width = 50;
}
);
background = {
guides = (
{
angle = 99;
pos = (278,325);
}
);
shapes = (
{
closed = 1;
nodes = (
(225,0,l),
(225,673,l),
(359,694,o),
(487,607,o),
(487,470,cs),
(487,381,o),
(423,309,o),
(282,300,c),
(287,268,l),
(474,261,o),
(580,375,o),
(580,491,cs),
(580,605,o),
(473,721,o),
(311,721,cs),
(227,721,o),
(138,710,o),
(50,699,c),
(138,681,l),
(138,0,l)
);
}
);
};
guides = (
{
angle = 94;
pos = (280,327);
}
);
layerId = "6D97EE47-94AA-478E-ABFB-936E6C32B491";
shapes = (
{
pos = (138,0);
ref = _serifuc;
scale = (-1,1);
},
{
pos = (225,0);
ref = _serifuc;
scale = (1.1,1);
},
{
closed = 1;
nodes = (
(225,0,l),
(225,673,l),
(359,694,o),
(487,607,o),
(487,470,cs),
(487,381,o),
(423,309,o),
(282,300,c),
(284,268,l),
(471,261,o),
(580,375,o),
(580,491,cs),
(580,605,o),
(473,721,o),
(311,721,cs),
(227,721,o),
(138,710,o),
(50,699,c),
(138,681,l),
(138,0,l)
);
},
{
pos = (50,0);
ref = _serifuctopslant;
}
);
width = 630;
}
);
metricLeft = H;
metricRight = O;
unicode = 80;
},
{
glyphname = Thorn;
kernLeft = H;
kernRight = Thorn;
lastChange = "2025-07-23 22:17:23 +0000";
layers = (
{
annotations = (
{
pos = (293,584);
text = "90% of P's bowl + decrease height + increase thickness";
type = Text;
width = 265;
},
{
pos = (250,194);
text = "55";
type = Text;
width = 50;
}
);
background = {
shapes = (
{
closed = 1;
nodes = (
(284,163,l),
(449,159,o),
(539,260,o),
(539,358,cs),
(539,477,o),
(424,561,o),
(286,561,cs),
(262,561,o),
(239,558,o),
(210,552,c),
(210,508,l),
(223,512,o),
(243,515,o),
(264,515,cs),
(355,515,o),
(448,456,o),
(448,339,cs),
(448,262,o),
(398,204,o),
(282,194,c)
);
}
);
};
guides = (
{
angle = 94;
pos = (271,321);
}
);
layerId = "6D97EE47-94AA-478E-ABFB-936E6C32B491";
shapes = (
{
closed = 1;
nodes = (
(282,163,l),
(448,158,o),
(539,260,o),
(539,358,cs),
(539,477,o),
(424,561,o),
(286,561,cs),
(262,561,o),
(239,558,o),
(210,552,c),
(210,508,l),
(223,512,o),
(243,515,o),
(264,515,cs),
(355,515,o),
(448,456,o),
(448,339,cs),
(448,262,o),
(397,203,o),
(280,194,c)
);
},
{
ref = I;
}
);
width = 589;
}
);
metricLeft = H;
metricRight = P;
unicode = 222;
},
{
glyphname = Q;
kernLeft = O;
kernRight = O;
lastChange = "2025-07-23 22:17:23 +0000";
layers = (
{
background = {
shapes = (
{
closed = 1;
nodes = (
(853,-168,l),
(743,-158,o),
(630,-90,o),
(542,8,c),
(445,-13,l),
(561,-136,o),
(685,-190,o),
(850,-200,c)
);
},
{
closed = 1;
nodes = (
(794,320,l),
(942,320,l),
(942,393,l),
(794,393,l)
);
}
);
};
layerId = "6D97EE47-94AA-478E-ABFB-936E6C32B491";
shapes = (
{
closed = 1;
nodes = (
(854,-168,l),
(744,-158,o),
(624,-88,o),
(530,23,c),
(433,0,l),
(551,-128,o),
(675,-190,o),
(851,-200,c)
);
},
{
ref = O;
}
);
width = 844;
}
);
metricLeft = O;
metricRight = "=O-60";
unicode = 81;
},
{
glyphname = R;
kernLeft = H;
kernRight = R;
lastChange = "2025-07-23 22:17:23 +0000";
layers = (
{
anchors = (
{
name = BOTTOM;
pos = (356,0);
},
{
name = TOP;
pos = (287,707);
}
);
annotations = (
{
pos = (265,310);
text = "85";
type = Text;
width = 50;
}
);
background = {
shapes = (
{
closed = 1;
nodes = (
(225,0,l),
(225,317,l),
(468,338,o),
(544,457,o),
(544,548,cs),
(544,680,o),
(439,721,o),
(305,721,cs),
(230,721,o),
(138,710,o),
(50,699,c),
(138,686,l),
(138,0,l)
);
},
{
closed = 1;
nodes = (
(225,673,l),
(359,694,o),
(457,642,o),
(457,524,cs),
(457,444,o),
(378,359,o),
(225,353,c)
);
},
{
closed = 1;
nodes = (
(713,0,l),
(626,33,o),
(589,65,o),
(540,128,cs),
(481,203,o),
(413,311,o),
(379,376,c),
(296,352,l),
(325,307,o),
(418,129,o),
(466,73,cs),
(519,12,o),
(566,-20,o),
(704,-29,c)
);
}
);
};
guides = (
{
angle = -84;
pos = (68,530);
},
{
angle = 73;
pos = (679,-111);
}
);
layerId = "6D97EE47-94AA-478E-ABFB-936E6C32B491";
shapes = (
{
closed = 1;
nodes = (
(225,0,l),
(225,317,l),
(468,338,o),
(544,447,o),
(544,538,cs),
(544,665,o),
(439,721,o),
(305,721,cs),
(230,721,o),
(138,710,o),
(50,699,c),
(138,686,l),
(138,0,l)
);
},
{
closed = 1;
nodes = (
(225,673,l),
(359,694,o),
(457,632,o),
(457,514,cs),
(457,434,o),
(378,359,o),
(225,353,c)
);
},
{
closed = 1;
nodes = (
(713,0,l),
(626,33,o),
(589,65,o),
(540,128,cs),
(481,203,o),
(413,311,o),
(379,376,c),
(296,352,l),
(325,307,o),
(418,129,o),
(466,73,cs),
(519,12,o),
(566,-20,o),
(704,-29,c)
);
},
{
pos = (138,0);
ref = _serifuc;
scale = (-1,1);
},
{
pos = (225,0);
ref = _serifuc;
scale = (1.04,1);
},
{
pos = (50,0);
ref = _serifuctopslant;
}
);
width = 707;
}
);
metricLeft = H;
unicode = 82;
},
{
glyphname = S;
kernLeft = S;
kernRight = S;
lastChange = "2025-07-23 22:17:23 +0000";
layers = (
{
anchors = (
{
name = BOTTOM;
pos = (282,0);
},
{
name = TOP;
pos = (292,707);
}
);
background = {
shapes = (
{
closed = 1;
nodes = (
(401,-14,o),
(503,50,o),
(503,168,cs),
(503,400,o),
(179,402,o),
(179,560,cs),
(179,626,o),
(244,675,o),
(321,675,cs),
(405,675,o),
(445,620,o),
(456,536,c),
(489,540,l),
(467,702,l),
(441,707,o),
(389,721,o),
(328,721,cs),
(197,721,o),
(91,660,o),
(91,537,cs),
(91,334,o),
(412,316,o),
(412,155,cs),
(412,79,o),
(350,33,o),
(262,33,cs),
(154,33,o),
(105,106,o),
(79,221,c),
(46,215,l),
(77,23,l),
(83,15,o),
(178,-14,o),
(272,-14,cs)
);
}
);
};
layerId = "6D97EE47-94AA-478E-ABFB-936E6C32B491";
shapes = (
{
closed = 1;
nodes = (
(401,-14,o),
(503,50,o),
(503,168,cs),
(503,400,o),
(179,402,o),
(179,560,cs),
(179,626,o),
(244,675,o),
(321,675,cs),
(405,675,o),
(445,620,o),
(456,536,c),
(489,540,l),
(467,702,l),
(441,707,o),
(389,721,o),
(328,721,cs),
(197,721,o),
(91,660,o),
(91,537,cs),
(91,334,o),
(412,316,o),
(412,155,cs),
(412,79,o),
(350,33,o),
(262,33,cs),
(154,33,o),
(105,106,o),
(79,221,c),
(46,215,l),
(77,23,l),
(112,7,o),
(178,-14,o),
(272,-14,cs)
);
}
);
width = 553;
}
);
unicode = 83;
},
{
glyphname = Germandbls;
kernLeft = H;
kernRight = B;
lastChange = "2025-07-23 22:17:23 +0000";
layers = (
{
background = {
shapes = (
{
closed = 1;
nodes = (
(585,-14,o),
(623,8,o),
(662,45,cs),
(694,76,o),
(720,123,o),
(711,199,cs),
(700,294,o),
(593,387,o),
(477,472,c),
(476,421,l),
(604,625,l),
(551,675,o),
(510,693,o),
(479,705,cs),
(450,716,o),
(414,721,o),
(374,721,cs),
(344,721,o),
(316,715,o),
(300,710,cs),
(262,700,o),
(225,678,o),
(199,653,cs),
(120,577,o),
(116,472,o),
(116,379,cs),
(116,0,l),
(204,0,l),
(204,418,ls),
(204,454,o),
(205,505,o),
(212,547,cs),
(217,575,o),
(224,607,o),
(249,631,cs),
(275,656,o),
(317,678,o),
(377,669,cs),
(446,659,o),
(496,611,o),
(537,557,c),
(550,616,l),
(415,397,l),
(478,349,o),
(520,318,o),
(566,275,cs),
(607,237,o),
(631,191,o),
(636,166,cs),
(642,132,o),
(637,98,o),
(610,69,cs),
(587,45,o),
(557,31,o),
(516,32,cs),
(471,33,o),
(438,61,o),
(418,83,cs),
(398,105,o),
(373,150,o),
(359,219,c),
(325,212,l),
(355,24,l),
(384,6,o),
(458,-14,o),
(504,-14,cs)
);
}
);
};
guides = (
{
angle = 12;
pos = (282,203);
},
{
angle = 99;
pos = (375,-102);
},
{
angle = 58;
pos = (683,752);
},
{
angle = 58;
pos = (642,763);
}
);
layerId = "6D97EE47-94AA-478E-ABFB-936E6C32B491";
shapes = (
{
closed = 1;
nodes = (
(638,-14,o),
(713,67,o),
(713,170,cs),
(713,290,o),
(596,385,o),
(477,472,c),
(476,421,l),
(604,625,l),
(533,692,o),
(465,721,o),
(374,721,cs),
(314,721,o),
(246,698,o),
(199,653,cs),
(120,577,o),
(116,472,o),
(116,379,cs),
(116,0,l),
(204,0,l),
(204,418,ls),
(204,561,o),
(219,671,o),
(350,671,cs),
(433,671,o),
(491,618,o),
(537,557,c),
(550,616,l),
(415,397,l),
(536,305,o),
(638,232,o),
(638,141,cs),
(638,80,o),
(588,32,o),
(520,32,cs),
(438,32,o),
(380,110,o),
(358,219,c),
(325,212,l),
(355,24,l),
(384,6,o),
(458,-14,o),
(504,-14,cs)
);
},
{
pos = (116,0);
ref = _serifuc;
scale = (-1,1);
},
{
pos = (204,0);
ref = _serifuc;
scale = (0.9,1);
}
);
width = 738;
}
);
metricRight = B;
unicode = 7838;
},
{
glyphname = T;
kernLeft = T;
kernRight = T;
lastChange = "2025-07-23 22:17:23 +0000";
layers = (
{
anchors = (
{
name = BOTTOM;
pos = (321,0);
},
{
name = TOP;
pos = (321,707);
}
);
annotations = (
{
pos = (165,654);
text = "211";
type = Text;
},
{
pos = (456,654);
text = "202";
type = Text;
}
);
guides = (
{
angle = 82;
pos = (589,430);
}
);
layerId = "6D97EE47-94AA-478E-ABFB-936E6C32B491";
shapes = (
{
closed = 1;
nodes = (
(364,0,l),
(364,707,l),
(277,707,l),
(277,0,l)
);
},
{
closed = 1;
nodes = (
(42,531,l),
(50,586,o),
(59,643,o),
(82,707,c),
(10,707,l),
(10,531,l)
);
},
{
closed = 1;
nodes = (
(602,656,l),
(602,707,l),
(35,707,l),
(35,656,l)
);
},
{
closed = 1;
nodes = (
(628,707,l),
(557,707,l),
(574,639,o),
(571,584,o),
(570,531,c),
(602,528,l)
);
},
{
pos = (277,0);
ref = _serifuc;
scale = (-1,1);
},
{
pos = (364,0);
ref = _serifuc;
}
);
width = 638;
}
);
unicode = 84;
},
{
glyphname = Tbar;
kernLeft = T;
kernRight = T;
lastChange = "2025-07-23 22:17:23 +0000";
layers = (
{
layerId = "6D97EE47-94AA-478E-ABFB-936E6C32B491";
shapes = (
{
closed = 1;
nodes = (
(494,339,l),
(494,381,l),
(144,381,l),
(144,339,l)
);
},
{
ref = T;
}
);
width = 638;
}
);
metricLeft = T;
metricRight = T;
unicode = 358;
},
{
glyphname = U;
kernLeft = U;
kernRight = U;
lastChange = "2025-07-23 22:17:23 +0000";
layers = (
{
anchors = (
{
name = BOTTOM;
pos = (434,0);
},
{
name = TOP;
pos = (433,707);
}
);
background = {
shapes = (
{
closed = 1;
nodes = (
(500,-14,o),
(641,15,o),
(682,139,cs),
(702,199,o),
(700,306,o),
(700,393,cs),
(700,498,o),
(700,707,o),
(700,707,cs),
(644,707,ls),
(644,707,o),
(644,495,o),
(644,400,cs),
(644,305,o),
(647,218,o),
(631,162,cs),
(605,76,o),
(522,38,o),
(430,38,cs),
(335,38,o),
(263,97,o),
(240,166,cs),
(223,220,o),
(225,338,o),
(225,389,cs),
(225,440,o),
(225,707,o),
(225,707,cs),
(138,707,ls),
(138,707,o),
(138,488,o),
(138,384,cs),
(138,281,o),
(139,192,o),
(163,134,cs),
(213,18,o),
(340,-14,o),
(420,-14,cs)
);
}
);
};
guides = (
{
angle = 90;
pos = (138,915);
},
{
angle = 90;
pos = (225,915);
},
{
angle = 90;
pos = (643,915);
},
{
angle = 90;
pos = (701,915);
}
);
layerId = "6D97EE47-94AA-478E-ABFB-936E6C32B491";
shapes = (
{
closed = 1;
nodes = (
(510,-14,o),
(643,15,o),
(684,139,cs),
(704,199,o),
(701,306,o),
(701,393,cs),
(701,498,o),
(701,707,o),
(701,707,cs),
(643,707,ls),
(643,707,o),
(643,495,o),
(643,400,cs),
(643,305,o),
(647,218,o),
(631,162,cs),
(605,76,o),
(522,39,o),
(430,39,cs),
(335,39,o),
(263,97,o),
(240,166,cs),
(223,220,o),
(225,338,o),
(225,389,cs),
(225,440,o),
(225,707,o),
(225,707,cs),
(138,707,ls),
(138,707,o),
(138,488,o),
(138,384,cs),
(138,281,o),
(139,192,o),
(163,134,cs),
(213,18,o),
(340,-14,o),
(420,-14,cs)
);
},
{
angle = 180;
pos = (138,707);
ref = _serifuc;
},
{
pos = (225,707);
ref = _serifuc;
scale = (1,-1);
},
{
angle = 180;
pos = (643,707);
ref = _serifuc;
},
{
pos = (701,707);
ref = _serifuc;
scale = (1,-1);
}
);
width = 829;
}
);
metricLeft = H;
metricRight = "=H-10";
unicode = 85;
},
{
glyphname = V;
kernLeft = V;
kernRight = V;
lastChange = "2025-07-23 22:17:23 +0000";
layers = (
{
background = {
shapes = (
{
closed = 1;
nodes = (
(382,-14,l),
(658,661,l),
(617,699,l),
(368,90,l),
(395,90,l),
(159,707,l),
(65,707,l),
(341,-14,l)
);
},
{
closed = 1;
nodes = (
(176,661,l),
(176,707,l),
(138,707,l),
(138,661,l)
);
},
{
closed = 1;
nodes = (
(658,661,l),
(658,707,l),
(602,707,l),
(602,661,l)
);
}
);
};
guides = (
{
angle = 111;
pos = (86,895);
},
{
angle = 68;
pos = (688,891);
},
{
angle = 68;
pos = (748,891);
},
{
angle = 111;
pos = (-11,903);
}
);
layerId = "6D97EE47-94AA-478E-ABFB-936E6C32B491";
shapes = (
{
closed = 1;
nodes = (
(382,-14,l),
(674,707,l),
(614,707,l),
(364,90,l),
(392,90,l),
(156,707,l),
(65,707,l),
(341,-14,l)
);
},
{
closed = 1;
nodes = (
(173,661,l),
(173,707,l),
(136,707,l),
(136,661,l)
);
},
{
closed = 1;
nodes = (
(620,661,l),
(620,707,l),
(596,707,l),
(596,661,l)
);
},
{
angle = 180;
pos = (83,707);
ref = _serifuc;
scale = (0.9,1);
},
{
pos = (173,707);
ref = _serifuc;
scale = (1,-1);
},
{
angle = 180;
pos = (596,707);
ref = _serifuc;
},
{
pos = (655,707);
ref = _serifuc;
scale = (0.8,-1);
}
);
width = 729;
}
);
unicode = 86;
},
{
glyphname = W;
kernLeft = W;
kernRight = W;
lastChange = "2025-07-23 22:17:23 +0000";
layers = (
{
background = {
shapes = (
{
closed = 1;
nodes = (
(1402,-14,l),
(1619,518,l),
(1592,518,l),
(1797,-14,l),
(1838,-14,l),
(2018,707,l),
(1964,707,l),
(1817,117,l),
(1839,118,l),
(1646,622,l),
(1605,622,l),
(1396,109,l),
(1419,108,l),
(1258,707,l),
(1168,707,l),
(1361,-14,l)
);
},
{
closed = 1;
nodes = (
(1270,661,l),
(1270,707,l),
(1251,707,l),
(1251,661,l)
);
},
{
closed = 1;
nodes = (
(1953,661,l),
(1968,661,l),
(1968,707,l),
(1953,707,l)
);
},
{
closed = 1;
nodes = (
(302,-14,l),
(519,518,l),
(490,518,l),
(695,-14,l),
(736,-14,l),
(916,707,l),
(858,707,l),
(711,117,l),
(737,118,l),
(544,622,l),
(503,622,l),
(294,109,l),
(319,108,l),
(158,707,l),
(68,707,l),
(261,-14,l)
);
},
{
closed = 1;
nodes = (
(170,661,l),
(170,707,l),
(151,707,l),
(151,661,l)
);
},
{
closed = 1;
nodes = (
(847,661,l),
(862,661,l),
(862,707,l),
(847,707,l)
);
}
);
};
guides = (
{
angle = 68;
pos = (609,743);
},
{
angle = 76;
pos = (962,891);
},
{
angle = 105;
pos = (12,915);
},
{
angle = 111;
pos = (509,713);
},
{
angle = 68;
pos = (551,743);
},
{
angle = 111;
pos = (415,713);
},
{
angle = 76;
pos = (904,891);
},
{
angle = 105;
pos = (103,914);
}
);
layerId = "6D97EE47-94AA-478E-ABFB-936E6C32B491";
shapes = (
{
closed = 1;
nodes = (
(302,-14,l),
(519,518,l),
(495,518,l),
(699,-14,l),
(740,-14,l),
(920,707,l),
(862,707,l),
(715,117,l),
(737,118,l),
(544,622,l),
(503,622,l),
(294,109,l),
(317,108,l),
(156,707,l),
(68,707,l),
(261,-14,l)
);
},
{
closed = 1;
nodes = (
(168,661,l),
(168,707,l),
(149,707,l),
(149,661,l)
);
},
{
angle = 180;
pos = (81,707);
ref = _serifuc;
scale = (0.88,1);
},
{
pos = (168,707);
ref = _serifuc;
scale = (1,-1);
},
{
angle = 180;
pos = (851,707);
ref = _serifuc;
},
{
pos = (908,707);
ref = _serifuc;
scale = (0.82,-1);
},
{
closed = 1;
nodes = (
(851,661,l),
(866,661,l),
(866,707,l),
(851,707,l)
);
}
);
width = 956;
}
);
metricLeft = V;
unicode = 87;
},
{
glyphname = X;
kernLeft = X;
kernRight = X;
lastChange = "2025-07-23 22:17:23 +0000";
layers = (
{
background = {
shapes = (
{
closed = 1;
nodes = (
(1397,0,l),
(1397,46,l),
(997,661,l),
(997,707,l),
(890,707,l),
(890,663,l),
(1292,44,l),
(1292,0,l)
);
},
{
closed = 1;
nodes = (
(942,0,l),
(942,46,l),
(1137,325,l),
(1106,372,l),
(878,45,l),
(878,0,l)
);
},
{
closed = 1;
nodes = (
(1382,663,l),
(1382,707,l),
(1318,707,l),
(1318,662,l),
(1136,402,l),
(1168,357,l)
);
},
{
closed = 1;
nodes = (
(627,0,l),
(168,707,l),
(61,707,l),
(521,0,l)
);
},
{
closed = 1;
nodes = (
(110,0,l),
(337,325,l),
(304,372,l),
(44,0,l)
);
},
{
closed = 1;
nodes = (
(614,707,l),
(548,707,l),
(334,402,l),
(368,357,l)
);
},
{
closed = 1;
nodes = (
(492,0,l),
(525,0,l),
(525,46,l),
(492,46,l)
);
},
{
closed = 1;
nodes = (
(101,0,l),
(142,0,l),
(142,46,l),
(101,46,l)
);
},
{
closed = 1;
nodes = (
(164,661,l),
(197,661,l),
(197,707,l),
(164,707,l)
);
},
{
closed = 1;
nodes = (
(517,661,l),
(555,661,l),
(555,707,l),
(517,707,l)
);
}
);
};
guides = (
{
angle = 55;
pos = (637,834);
},
{
angle = 55;
pos = (707,839);
},
{
angle = 123;
pos = (-137,1013);
},
{
angle = 123;
pos = (-49,1037);
},
{
angle = 55;
pos = (-70,-161);
},
{
angle = 55;
pos = (0,-157);
}
);
layerId = "6D97EE47-94AA-478E-ABFB-936E6C32B491";
shapes = (
{
closed = 1;
nodes = (
(625,0,l),
(165,707,l),
(62,707,l),
(522,0,l)
);
},
{
closed = 1;
nodes = (
(110,0,l),
(337,325,l),
(303,372,l),
(43,0,l)
);
},
{
closed = 1;
nodes = (
(615,707,l),
(548,707,l),
(334,402,l),
(369,357,l)
);
},
{
pos = (76,0);
ref = _serifuc;
scale = (-0.82,1);
},
{
pos = (142,0);
ref = _serifuc;
},
{
pos = (492,0);
ref = _serifuc;
scale = (-1,1);
},
{
pos = (594,0);
ref = _serifuc;
scale = (0.87,1);
},
{
angle = 180;
pos = (93,707);
ref = _serifuc;
scale = (0.88,1);
},
{
pos = (194,707);
ref = _serifuc;
scale = (1,-1);
},
{
angle = 180;
pos = (517,707);
ref = _serifuc;
},
{
pos = (581,707);
ref = _serifuc;
scale = (0.82,-1);
},
{
closed = 1;
nodes = (
(492,0,l),
(525,0,l),
(525,46,l),
(492,46,l)
);
},
{
closed = 1;
nodes = (
(101,0,l),
(142,0,l),
(142,46,l),
(101,46,l)
);
},
{
closed = 1;
nodes = (
(161,661,l),
(194,661,l),
(194,707,l),
(161,707,l)
);
},
{
closed = 1;
nodes = (
(517,661,l),
(555,661,l),
(555,707,l),
(517,707,l)
);
}
);
width = 675;
}
);
unicode = 88;
},
{
glyphname = Y;
kernLeft = V;
kernRight = V;
lastChange = "2025-07-23 22:17:23 +0000";
layers = (
{
anchors = (
{
name = TOP;
pos = (339,707);
}
);
background = {
shapes = (
{
closed = 1;
nodes = (
(1176,309,l),
(957,704,l),
(880,662,l),
(1099,266,l)
);
},
{
closed = 1;
nodes = (
(1178,0,l),
(1178,339,l),
(1091,339,l),
(1091,0,l)
);
},
{
closed = 1;
nodes = (
(980,661,l),
(980,707,l),
(881,707,l),
(881,661,l)
);
},
{
closed = 1;
nodes = (
(1385,674,l),
(1340,699,l),
(1109,285,l),
(1155,260,l)
);
},
{
closed = 1;
nodes = (
(1377,661,l),
(1377,707,l),
(1319,707,l),
(1319,661,l)
);
},
{
closed = 1;
nodes = (
(376,309,l),
(156,707,l),
(55,707,l),
(299,266,l)
);
},
{
closed = 1;
nodes = (
(378,0,l),
(378,339,l),
(291,339,l),
(291,0,l)
);
},
{
closed = 1;
nodes = (
(180,661,l),
(180,707,l),
(135,707,l),
(135,661,l)
);
},
{
closed = 1;
nodes = (
(603,707,l),
(541,707,l),
(307,285,l),
(355,260,l)
);
},
{
closed = 1;
nodes = (
(550,661,l),
(550,707,l),
(517,707,l),
(517,661,l)
);
}
);
};
guides = (
{
angle = 61;
pos = (676,839);
},
{
angle = 61;
pos = (614,839);
},
{
angle = 119;
pos = (-115,1013);
},
{
angle = 119;
pos = (-28,1037);
}
);
layerId = "6D97EE47-94AA-478E-ABFB-936E6C32B491";
shapes = (
{
closed = 1;
nodes = (
(372,309,l),
(152,707,l),
(55,707,l),
(299,266,l)
);
},
{
closed = 1;
nodes = (
(378,0,l),
(378,339,l),
(291,339,l),
(291,0,l)
);
},
{
closed = 1;
nodes = (
(177,661,l),
(177,707,l),
(132,707,l),
(132,661,l)
);
},
{
closed = 1;
nodes = (
(603,707,l),
(541,707,l),
(307,285,l),
(355,260,l)
);
},
{
closed = 1;
nodes = (
(550,661,l),
(550,707,l),
(517,707,l),
(517,661,l)
);
},
{
pos = (291,0);
ref = _serifuc;
scale = (-1,1);
},
{
pos = (378,0);
ref = _serifuc;
},
{
angle = 180;
pos = (81,707);
ref = _serifuc;
scale = (0.88,1);
},
{
pos = (177,707);
ref = _serifuc;
scale = (1,-1);
},
{
angle = 180;
pos = (517,707);
ref = _serifuc;
},
{
pos = (577,707);
ref = _serifuc;
scale = (0.82,-1);
}
);
width = 653;
}
);
metricLeft = V;
metricRight = V;
unicode = 89;
},
{
color = 9;
glyphname = Yr;
lastChange = "2025-11-06 14:27:16 +0000";
layers = (
{
anchors = (
{
name = BOTTOM;
pos = (356,0);
},
{
name = TOP;
pos = (287,707);
}
);
layerId = "6D97EE47-94AA-478E-ABFB-936E6C32B491";
shapes = (
{
closed = 1;
nodes = (
(723,-138,l),
(636,-105,o),
(599,-73,o),
(550,-10,cs),
(491,65,o),
(423,173,o),
(389,238,c),
(306,214,l),
(335,169,o),
(428,-9,o),
(476,-65,cs),
(529,-126,o),
(576,-158,o),
(714,-167,c)
);
},
{
ref = I;
},
{
closed = 1;
nodes = (
(475,195,o),
(554,307,o),
(554,400,cs),
(554,527,o),
(449,583,o),
(315,583,cs),
(270,583,o),
(220,579,o),
(167,574,c),
(213,531,l),
(235,535,ls),
(369,556,o),
(467,494,o),
(467,376,cs),
(467,294,o),
(383,217,o),
(222,215,c),
(219,178,l)
);
}
);
width = 707;
}
);
unicode = 422;
},
{
glyphname = Z;
kernLeft = Z;
kernRight = Z;
lastChange = "2025-07-23 22:17:23 +0000";
layers = (
{
anchors = (
{
name = TOP;
pos = (289,707);
}
);
background = {
shapes = (
{
closed = 1;
nodes = (
(105,0,l),
(555,669,l),
(539,707,l),
(474,707,l),
(24,38,l),
(40,0,l)
);
},
{
closed = 1;
nodes = (
(556,0,l),
(556,51,l),
(60,51,l),
(60,0,l)
);
},
{
closed = 1;
nodes = (
(595,167,l),
(564,175,l),
(560,161,o),
(531,90,o),
(500,51,c),
(478,8,l),
(556,0,l)
);
},
{
closed = 1;
nodes = (
(79,587,o),
(85,639,o),
(110,701,c),
(43,707,l),
(36,536,l),
(68,534,l)
);
},
{
closed = 1;
nodes = (
(508,656,l),
(508,707,l),
(43,707,l),
(43,656,l)
);
}
);
};
guides = (
{
angle = 56;
pos = (668,839);
},
{
angle = 56;
pos = (564,839);
},
{
angle = 113;
pos = (-295,789);
},
{
angle = 113;
pos = (500,799);
},
{
angle = -4;
pos = (-86,545);
},
{
angle = -15;
pos = (707,137);
}
);
layerId = "6D97EE47-94AA-478E-ABFB-936E6C32B491";
shapes = (
{
closed = 1;
nodes = (
(103,0,l),
(554,671,l),
(539,707,l),
(475,707,l),
(25,38,l),
(41,0,l)
);
},
{
closed = 1;
nodes = (
(556,0,l),
(556,51,l),
(60,51,l),
(60,0,l)
);
},
{
closed = 1;
nodes = (
(595,167,l),
(564,175,l),
(560,161,o),
(531,90,o),
(500,51,c),
(478,8,l),
(556,0,l)
);
},
{
closed = 1;
nodes = (
(79,587,o),
(85,639,o),
(110,701,c),
(43,707,l),
(36,536,l),
(68,534,l)
);
},
{
closed = 1;
nodes = (
(508,656,l),
(508,707,l),
(43,707,l),
(43,656,l)
);
}
);
width = 620;
}
);
metricLeft = "=H/2";
metricRight = "=H/2";
unicode = 90;
},
{
glyphname = K.ss01;
kernLeft = H;
kernRight = K.ss01;
lastChange = "2025-07-23 22:17:23 +0000";
layers = (
{
anchors = (
{
name = BOTTOM;
pos = (356,0);
}
);
guides = (
{
angle = 78;
pos = (894,-8);
},
{
angle = 47;
pos = (694,856);
},
{
angle = 47;
pos = (763,856);
}
);
layerId = "6D97EE47-94AA-478E-ABFB-936E6C32B491";
shapes = (
{
closed = 1;
nodes = (
(857,-184,l),
(768,-157,o),
(735,-116,o),
(682,-57,cs),
(619,13,o),
(374,333,o),
(331,392,c),
(243,373,l),
(275,331,o),
(563,-67,o),
(614,-119,cs),
(670,-177,o),
(713,-214,o),
(850,-214,c)
);
},
{
closed = 1;
nodes = (
(225,0,l),
(225,707,l),
(138,707,l),
(138,0,l)
);
},
{
closed = 1;
nodes = (
(624,707,l),
(555,707,l),
(243,373,l),
(281,338,l)
);
},
{
closed = 1;
nodes = (
(562,661,l),
(562,707,l),
(512,707,l),
(512,661,l)
);
},
{
pos = (138,0);
ref = _serifuc;
scale = (-1,1);
},
{
pos = (225,0);
ref = _serifuc;
scale = (1.04,1);
},
{
angle = 180;
pos = (138,707);
ref = _serifuc;
},
{
pos = (225,707);
ref = _serifuc;
scale = (1,-1);
},
{
angle = 180;
pos = (512,707);
ref = _serifuc;
scale = (0.82,1);
},
{
pos = (580,707);
ref = _serifuc;
scale = (1,-1);
}
);
width = 657;
}
);
metricLeft = K;
},
{
glyphname = Q.ss01;
kernLeft = O;
kernRight = Q.ss01;
lastChange = "2025-07-23 22:17:23 +0000";
layers = (
{
background = {
shapes = (
{
closed = 1;
nodes = (
(1166,-251,o),
(1314,-221,o),
(1456,-126,c),
(1437,-101,l),
(1361,-149,o),
(1279,-178,o),
(1134,-175,cs),
(986,-172,o),
(620,1,o),
(534,34,c),
(385,0,l),
(475,-16,o),
(854,-206,o),
(997,-227,cs)
);
},
{
closed = 1;
nodes = (
(794,320,l),
(942,320,l),
(942,393,l),
(794,393,l)
);
}
);
};
layerId = "6D97EE47-94AA-478E-ABFB-936E6C32B491";
shapes = (
{
closed = 1;
nodes = (
(1010,-231,o),
(1054,-235,o),
(1102,-235,cs),
(1228,-235,o),
(1343,-200,o),
(1454,-126,c),
(1435,-101,l),
(1359,-149,o),
(1277,-178,o),
(1132,-175,cs),
(984,-172,o),
(618,1,o),
(532,34,c),
(383,0,l),
(476,-19,o),
(818,-185,o),
(951,-217,cs)
);
},
{
ref = O;
}
);
width = 844;
}
);
metricLeft = O;
metricRight = "=O-660";
},
{
glyphname = R.ss01;
kernLeft = H;
kernRight = R.ss01;
lastChange = "2025-07-23 22:17:23 +0000";
layers = (
{
anchors = (
{
name = BOTTOM;
pos = (356,0);
},
{
name = TOP;
pos = (287,707);
}
);
background = {
shapes = (
{
closed = 1;
nodes = (
(225,0,l),
(225,317,l),
(468,338,o),
(544,457,o),
(544,548,cs),
(544,680,o),
(439,721,o),
(305,721,cs),
(230,721,o),
(138,710,o),
(50,699,c),
(138,686,l),
(138,0,l)
);
},
{
closed = 1;
nodes = (
(225,673,l),
(359,694,o),
(457,642,o),
(457,524,cs),
(457,444,o),
(378,359,o),
(225,353,c)
);
}
);
};
layerId = "6D97EE47-94AA-478E-ABFB-936E6C32B491";
shapes = (
{
closed = 1;
nodes = (
(837,-185,l),
(750,-152,o),
(713,-120,o),
(664,-57,cs),
(606,17,o),
(416,311,o),
(379,376,c),
(296,352,l),
(325,307,o),
(542,-56,o),
(590,-112,cs),
(643,-173,o),
(690,-205,o),
(828,-214,c)
);
},
{
alignment = -1;
pos = (138,0);
ref = _serifuc;
scale = (-1,1);
},
{
alignment = -1;
pos = (225,0);
ref = _serifuc;
scale = (1.04,1);
},
{
pos = (50,0);
ref = _serifuctopslant;
},
{
closed = 1;
nodes = (
(225,0,l),
(225,317,l),
(468,338,o),
(544,447,o),
(544,538,cs),
(544,670,o),
(439,721,o),
(305,721,cs),
(230,721,o),
(138,710,o),
(50,699,c),
(138,686,l),
(138,0,l)
);
},
{
closed = 1;
nodes = (
(225,673,l),
(359,694,o),
(457,632,o),
(457,514,cs),
(457,434,o),
(378,359,o),
(225,353,c)
);
}
);
width = 637;
}
);
metricLeft = R;
},
{
glyphname = Y.ss01;
kernLeft = V;
kernRight = V;
lastChange = "2025-07-23 22:17:23 +0000";
layers = (
{
anchors = (
{
name = TOP;
pos = (301,707);
}
);
background = {
shapes = (
{
closed = 1;
nodes = (
(342,249,l),
(356,491,o),
(219,670,o),
(16,728,c),
(4,698,l),
(150,628,o),
(258,432,o),
(255,249,c)
);
},
{
closed = 1;
nodes = (
(342,0,l),
(342,249,l),
(255,249,l),
(255,0,l)
);
},
{
closed = 1;
nodes = (
(342,249,l),
(342,421,o),
(415,619,o),
(582,700,c),
(570,728,l),
(374,650,o),
(273,467,o),
(255,249,c)
);
}
);
};
guides = (
{
angle = 69;
pos = (38,786);
},
{
angle = 113;
pos = (547,782);
}
);
layerId = "6D97EE47-94AA-478E-ABFB-936E6C32B491";
shapes = (
{
closed = 1;
nodes = (
(302,249,l),
(321,425,l),
(277,576,o),
(166,685,o),
(16,728,c),
(4,698,l),
(150,628,o),
(258,432,o),
(255,249,c)
);
},
{
closed = 1;
nodes = (
(342,0,l),
(342,249,l),
(255,249,l),
(255,0,l)
);
},
{
closed = 1;
nodes = (
(342,249,l),
(342,421,o),
(415,619,o),
(582,700,c),
(570,728,l),
(374,650,o),
(273,467,o),
(255,249,c)
);
},
{
pos = (255,0);
ref = _serifuc;
scale = (-1,1);
},
{
pos = (342,0);
ref = _serifuc;
}
);
width = 586;
}
);
metricLeft = Y;
metricRight = Y;
},
{
glyphname = Z.ss01;
kernLeft = Z;
kernRight = Z;
lastChange = "2025-07-23 22:17:23 +0000";
layers = (
{
anchors = (
{
name = TOP;
pos = (280,707);
}
);
guides = (
{
angle = 56;
pos = (637,839);
},
{
angle = 56;
pos = (565,839);
},
{
angle = 113;
pos = (-294,789);
},
{
angle = 113;
pos = (467,799);
},
{
angle = -15;
pos = (707,128);
},
{
angle = -4;
pos = (-73,544);
}
);
layerId = "6D97EE47-94AA-478E-ABFB-936E6C32B491";
shapes = (
{
closed = 1;
nodes = (
(72,0,l),
(522,669,l),
(506,707,l),
(475,707,l),
(25,38,l),
(41,0,l)
);
},
{
closed = 1;
nodes = (
(523,0,l),
(523,80,l),
(61,80,l),
(61,0,l)
);
},
{
closed = 1;
nodes = (
(562,167,l),
(531,175,l),
(527,161,o),
(498,90,o),
(467,51,c),
(445,8,l),
(523,0,l)
);
},
{
closed = 1;
nodes = (
(80,587,o),
(86,639,o),
(111,701,c),
(44,707,l),
(37,536,l),
(69,534,l)
);
},
{
closed = 1;
nodes = (
(475,627,l),
(475,707,l),
(44,707,l),
(44,627,l)
);
}
);
width = 587;
}
);
metricLeft = Z;
metricRight = Z;
},
{
glyphname = A.ss10;
lastChange = "2025-07-23 22:17:23 +0000";
layers = (
{
background = {
shapes = (
{
closed = 1;
nodes = (
(4716,-440,l),
(4716,1117,l),
(3511,1117,l),
(3511,-440,l)
);
},
{
closed = 1;
nodes = (
(3591,1037,l),
(4636,1037,l),
(4636,-360,l),
(3591,-360,l)
);
},
{
closed = 1;
nodes = (
(4612,-336,l),
(4612,1013,l),
(3615,1013,l),
(3615,-336,l)
);
},
{
closed = 1;
nodes = (
(3755,30,l),
(3770,30,o),
(3801,33,o),
(3826,45,c),
(4078,665,l),
(4063,707,l),
(4145,737,l),
(4396,46,l),
(4422,33,o),
(4456,30,o),
(4472,30,c),
(4472,0,l),
(4215,0,l),
(4215,30,l),
(4234,30,o),
(4273,33,o),
(4303,46,c),
(4229,249,l),
(3967,249,l),
(3884,46,l),
(3914,33,o),
(3953,30,o),
(3972,30,c),
(3972,0,l),
(3755,0,l)
);
},
{
closed = 1;
nodes = (
(4211,300,l),
(4106,589,l),
(3988,300,l)
);
},
{
closed = 1;
nodes = (
(1824,1009,l),
(2869,1009,l),
(2869,-322,l),
(1824,-322,l)
);
},
{
closed = 1;
nodes = (
(2845,-298,l),
(2845,985,l),
(1848,985,l),
(1848,-298,l)
);
},
{
closed = 1;
nodes = (
(1988,30,l),
(2003,30,o),
(2034,33,o),
(2059,45,c),
(2311,665,l),
(2296,707,l),
(2378,737,l),
(2629,46,l),
(2655,33,o),
(2689,30,o),
(2705,30,c),
(2705,0,l),
(2448,0,l),
(2448,30,l),
(2467,30,o),
(2506,33,o),
(2536,46,c),
(2462,249,l),
(2200,249,l),
(2117,46,l),
(2147,33,o),
(2186,30,o),
(2205,30,c),
(2205,0,l),
(1988,0,l)
);
},
{
closed = 1;
nodes = (
(2444,300,l),
(2339,589,l),
(2221,300,l)
);
},
{
closed = 1;
nodes = (
(2977,-430,l),
(2977,1117,l),
(1716,1117,l),
(1716,-430,l)
);
},
{
pos = (384,0);
ref = A;
}
);
};
layerId = "6D97EE47-94AA-478E-ABFB-936E6C32B491";
shapes = (
{
closed = 1;
nodes = (
(204,1011,l),
(1288,1011,l),
(1288,-324,l),
(204,-324,l)
);
},
{
closed = 1;
nodes = (
(1264,-300,l),
(1264,987,l),
(228,987,l),
(228,-300,l)
);
},
{
closed = 1;
nodes = (
(1392,-428,l),
(1392,1115,l),
(100,1115,l),
(100,-428,l)
);
},
{
closed = 1;
nodes = (
(849,30,l),
(868,30,o),
(907,33,o),
(937,46,c),
(863,249,l),
(602,249,l),
(520,46,l),
(549,33,o),
(588,30,o),
(607,30,c),
(607,0,l),
(388,0,l),
(388,30,l),
(403,30,o),
(435,33,o),
(460,46,c),
(711,668,l),
(697,707,l),
(777,737,l),
(1027,46,l),
(1053,33,o),
(1088,30,o),
(1104,30,c),
(1104,0,l),
(849,0,l)
);
},
{
closed = 1;
nodes = (
(845,300,l),
(740,589,l),
(623,300,l)
);
}
);
width = 1492;
}
);
},
{
glyphname = AE.ss10;
lastChange = "2025-07-23 22:17:23 +0000";
layers = (
{
background = {
shapes = (
{
pos = (384,0);
ref = AE;
}
);
};
layerId = "6D97EE47-94AA-478E-ABFB-936E6C32B491";
shapes = (
{
closed = 1;
nodes = (
(204,1011,l),
(1465,1011,l),
(1465,-324,l),
(204,-324,l)
);
},
{
closed = 1;
nodes = (
(1441,-300,l),
(1441,987,l),
(228,987,l),
(228,-300,l)
);
},
{
closed = 1;
nodes = (
(1569,-428,l),
(1569,1115,l),
(100,1115,l),
(100,-428,l)
);
},
{
closed = 1;
nodes = (
(388,30,l),
(403,30,o),
(434,33,o),
(459,46,c),
(789,666,l),
(762,675,o),
(732,677,o),
(716,677,c),
(716,707,l),
(1223,707,l),
(1228,571,l),
(1196,569,l),
(1194,591,o),
(1189,626,o),
(1176,656,c),
(933,656,l),
(933,392,l),
(1142,392,l),
(1151,420,o),
(1153,451,o),
(1153,468,c),
(1183,468,l),
(1183,263,l),
(1153,263,l),
(1153,280,o),
(1151,313,o),
(1141,341,c),
(933,341,l),
(933,51,l),
(1196,51,l),
(1222,85,o),
(1246,146,o),
(1249,159,c),
(1281,151,l),
(1248,0,l),
(758,0,l),
(758,30,l),
(777,30,o),
(816,33,o),
(846,46,c),
(846,249,l),
(630,249,l),
(522,46,l),
(552,33,o),
(591,30,o),
(610,30,c),
(610,0,l),
(388,0,l)
);
},
{
closed = 1;
nodes = (
(846,300,l),
(846,654,l),
(658,300,l)
);
}
);
width = 1669;
}
);
},
{
glyphname = B.ss10;
lastChange = "2025-07-23 22:17:23 +0000";
layers = (
{
background = {
shapes = (
{
closed = 1;
nodes = (
(2883,-440,l),
(2883,1117,l),
(1844,1117,l),
(1844,-440,l)
);
},
{
closed = 1;
nodes = (
(1924,1037,l),
(2803,1037,l),
(2803,-360,l),
(1924,-360,l)
);
},
{
closed = 1;
nodes = (
(2779,-336,l),
(2779,1013,l),
(1948,1013,l),
(1948,-336,l)
);
},
{
closed = 1;
nodes = (
(2088,30,l),
(2107,30,o),
(2146,33,o),
(2176,46,c),
(2176,663,l),
(2146,672,o),
(2109,670,o),
(2091,669,c),
(2088,699,l),
(2176,710,o),
(2265,721,o),
(2349,721,cs),
(2473,721,o),
(2576,665,o),
(2576,558,cs),
(2576,459,o),
(2505,407,o),
(2443,382,c),
(2572,357,o),
(2639,279,o),
(2639,192,cs),
(2639,99,o),
(2561,0,o),
(2398,0,cs),
(2088,0,l)
);
},
{
closed = 1;
nodes = (
(2545,253,o),
(2500,311,o),
(2430,337,cs),
(2376,357,o),
(2312,356,o),
(2263,354,c),
(2263,69,l),
(2280,54,o),
(2327,43,o),
(2376,43,cs),
(2476,43,o),
(2545,83,o),
(2545,179,cs)
);
},
{
closed = 1;
nodes = (
(2388,387,o),
(2488,406,o),
(2488,531,cs),
(2488,650,o),
(2397,694,o),
(2263,673,c),
(2263,390,l)
);
},
{
pos = (338,0);
ref = B;
}
);
};
layerId = "6D97EE47-94AA-478E-ABFB-936E6C32B491";
shapes = (
{
closed = 1;
nodes = (
(388,30,l),
(407,30,o),
(446,33,o),
(476,46,c),
(476,663,l),
(446,672,o),
(409,670,o),
(391,669,c),
(388,699,l),
(476,710,o),
(565,721,o),
(649,721,cs),
(773,721,o),
(876,665,o),
(876,558,cs),
(876,459,o),
(805,407,o),
(743,382,c),
(872,357,o),
(939,279,o),
(939,192,cs),
(939,99,o),
(861,0,o),
(698,0,cs),
(388,0,l)
);
},
{
closed = 1;
nodes = (
(845,253,o),
(800,311,o),
(730,337,cs),
(676,357,o),
(612,356,o),
(563,354,c),
(563,69,l),
(580,54,o),
(627,43,o),
(676,43,cs),
(776,43,o),
(845,83,o),
(845,179,cs)
);
},
{
closed = 1;
nodes = (
(688,387,o),
(788,406,o),
(788,531,cs),
(788,650,o),
(697,694,o),
(563,673,c),
(563,390,l)
);
},
{
closed = 1;
nodes = (
(204,1011,l),
(1123,1011,l),
(1123,-324,l),
(204,-324,l)
);
},
{
closed = 1;
nodes = (
(1099,-300,l),
(1099,987,l),
(228,987,l),
(228,-300,l)
);
},
{
closed = 1;
nodes = (
(1227,-428,l),
(1227,1115,l),
(100,1115,l),
(100,-428,l)
);
}
);
width = 1327;
}
);
},
{
glyphname = C.ss10;
lastChange = "2025-07-23 22:17:23 +0000";
layers = (
{
background = {
shapes = (
{
closed = 1;
nodes = (
(2897,-440,l),
(2897,1117,l),
(1744,1117,l),
(1744,-440,l)
);
},
{
closed = 1;
nodes = (
(1824,1037,l),
(2817,1037,l),
(2817,-360,l),
(1824,-360,l)
);
},
{
closed = 1;
nodes = (
(2793,-336,l),
(2793,1013,l),
(1848,1013,l),
(1848,-336,l)
);
},
{
closed = 1;
nodes = (
(2506,-5,o),
(2443,-14,o),
(2386,-14,cs),
(2155,-14,o),
(1988,135,o),
(1988,350,cs),
(1988,560,o),
(2159,722,o),
(2369,722,cs),
(2461,722,o),
(2544,700,o),
(2590,687,c),
(2610,545,l),
(2580,539,l),
(2544,634,o),
(2458,673,o),
(2363,673,cs),
(2192,673,o),
(2083,549,o),
(2083,380,cs),
(2083,197,o),
(2222,33,o),
(2390,33,cs),
(2501,33,o),
(2564,83,o),
(2623,176,c),
(2653,161,l),
(2575,13,l)
);
},
{
pos = (338,0);
ref = C;
}
);
};
layerId = "6D97EE47-94AA-478E-ABFB-936E6C32B491";
shapes = (
{
closed = 1;
nodes = (
(906,-5,o),
(843,-14,o),
(786,-14,cs),
(555,-14,o),
(388,135,o),
(388,350,cs),
(388,560,o),
(559,721,o),
(769,721,cs),
(861,721,o),
(944,700,o),
(990,687,c),
(1010,545,l),
(980,539,l),
(944,634,o),
(858,673,o),
(763,673,cs),
(592,673,o),
(483,549,o),
(483,380,cs),
(483,197,o),
(622,33,o),
(790,33,cs),
(901,33,o),
(964,83,o),
(1023,176,c),
(1053,161,l),
(975,13,l)
);
},
{
closed = 1;
nodes = (
(204,1011,l),
(1237,1011,l),
(1237,-324,l),
(204,-324,l)
);
},
{
closed = 1;
nodes = (
(1213,-300,l),
(1213,987,l),
(228,987,l),
(228,-300,l)
);
},
{
closed = 1;
nodes = (
(1341,-428,l),
(1341,1115,l),
(100,1115,l),
(100,-428,l)
);
}
);
width = 1441;
}
);
},
{
glyphname = D.ss10;
lastChange = "2025-07-23 22:17:23 +0000";
layers = (
{
background = {
shapes = (
{
pos = (338,0);
ref = D;
}
);
};
layerId = "6D97EE47-94AA-478E-ABFB-936E6C32B491";
shapes = (
{
closed = 1;
nodes = (
(388,30,l),
(407,30,o),
(446,33,o),
(476,46,c),
(476,663,l),
(446,672,o),
(409,670,o),
(391,669,c),
(388,699,l),
(478,711,o),
(575,721,o),
(670,721,cs),
(928,721,o),
(1118,594,o),
(1118,364,cs),
(1118,203,o),
(996,62,o),
(833,19,cs),
(789,7,o),
(711,0,o),
(648,0,c),
(388,0,l)
);
},
{
closed = 1;
nodes = (
(886,47,o),
(1025,157,o),
(1025,337,cs),
(1025,575,o),
(818,705,o),
(563,668,c),
(563,69,l),
(597,56,o),
(640,47,o),
(691,47,cs)
);
},
{
closed = 1;
nodes = (
(204,1011,l),
(1302,1011,l),
(1302,-324,l),
(204,-324,l)
);
},
{
closed = 1;
nodes = (
(1278,-300,l),
(1278,987,l),
(228,987,l),
(228,-300,l)
);
},
{
closed = 1;
nodes = (
(1406,-428,l),
(1406,1115,l),
(100,1115,l),
(100,-428,l)
);
}
);
width = 1506;
}
);
},
{
glyphname = Eth.ss10;
lastChange = "2025-07-23 22:17:23 +0000";
layers = (
{
background = {
shapes = (
{
pos = (334,0);
ref = Eth;
}
);
};
layerId = "6D97EE47-94AA-478E-ABFB-936E6C32B491";
shapes = (
{
closed = 1;
nodes = (
(384,386,l),
(476,386,l),
(476,663,l),
(446,672,o),
(409,670,o),
(391,669,c),
(388,699,l),
(478,711,o),
(575,721,o),
(670,721,cs),
(928,721,o),
(1118,594,o),
(1118,364,cs),
(1118,203,o),
(996,62,o),
(833,19,cs),
(789,7,o),
(711,0,o),
(648,0,cs),
(388,0,l),
(388,30,l),
(407,30,o),
(446,33,o),
(476,46,c),
(476,344,l),
(384,344,l)
);
},
{
closed = 1;
nodes = (
(597,56,o),
(640,47,o),
(691,47,cs),
(886,47,o),
(1025,157,o),
(1025,337,cs),
(1025,575,o),
(818,705,o),
(563,668,c),
(563,386,l),
(753,386,l),
(753,344,l),
(563,344,l),
(563,69,l)
);
},
{
closed = 1;
nodes = (
(204,1011,l),
(1302,1011,l),
(1302,-324,l),
(204,-324,l)
);
},
{
closed = 1;
nodes = (
(1278,-300,l),
(1278,987,l),
(228,987,l),
(228,-300,l)
);
},
{
closed = 1;
nodes = (
(1406,-428,l),
(1406,1115,l),
(100,1115,l),
(100,-428,l)
);
}
);
width = 1506;
}
);
},
{
glyphname = E.ss10;
lastChange = "2025-07-23 22:17:23 +0000";
layers = (
{
background = {
shapes = (
{
pos = (338,0);
ref = E;
}
);
};
layerId = "6D97EE47-94AA-478E-ABFB-936E6C32B491";
shapes = (
{
closed = 1;
nodes = (
(388,30,l),
(407,30,o),
(446,33,o),
(476,46,c),
(476,661,l),
(446,674,o),
(407,677,o),
(388,677,c),
(388,707,l),
(853,707,l),
(858,571,l),
(826,569,l),
(824,591,o),
(819,626,o),
(806,656,c),
(563,656,l),
(563,392,l),
(772,392,l),
(781,420,o),
(783,451,o),
(783,468,c),
(813,468,l),
(813,263,l),
(783,263,l),
(783,280,o),
(781,313,o),
(771,341,c),
(563,341,l),
(563,51,l),
(826,51,l),
(852,85,o),
(876,146,o),
(879,159,c),
(911,151,l),
(878,0,l),
(388,0,l)
);
},
{
closed = 1;
nodes = (
(204,1011,l),
(1095,1011,l),
(1095,-324,l),
(204,-324,l)
);
},
{
closed = 1;
nodes = (
(1071,-300,l),
(1071,987,l),
(228,987,l),
(228,-300,l)
);
},
{
closed = 1;
nodes = (
(1199,-428,l),
(1199,1115,l),
(100,1115,l),
(100,-428,l)
);
}
);
width = 1299;
}
);
},
{
glyphname = F.ss10;
lastChange = "2025-07-23 22:17:23 +0000";
layers = (
{
background = {
shapes = (
{
pos = (338,0);
ref = F;
}
);
};
layerId = "6D97EE47-94AA-478E-ABFB-936E6C32B491";
shapes = (
{
closed = 1;
nodes = (
(388,30,l),
(407,30,o),
(446,33,o),
(476,46,c),
(476,661,l),
(446,674,o),
(407,677,o),
(388,677,c),
(388,707,l),
(853,707,l),
(858,571,l),
(826,569,l),
(824,591,o),
(819,626,o),
(806,656,c),
(563,656,l),
(563,382,l),
(767,382,l),
(776,410,o),
(778,441,o),
(778,458,c),
(808,458,l),
(808,253,l),
(778,253,l),
(778,270,o),
(776,303,o),
(766,331,c),
(563,331,l),
(563,46,l),
(596,33,o),
(639,30,o),
(660,30,c),
(660,0,l),
(388,0,l)
);
},
{
closed = 1;
nodes = (
(204,1011,l),
(1042,1011,l),
(1042,-324,l),
(204,-324,l)
);
},
{
closed = 1;
nodes = (
(1018,-300,l),
(1018,987,l),
(228,987,l),
(228,-300,l)
);
},
{
closed = 1;
nodes = (
(1146,-428,l),
(1146,1115,l),
(100,1115,l),
(100,-428,l)
);
}
);
width = 1246;
}
);
},
{
glyphname = G.ss10;
lastChange = "2025-07-23 22:17:23 +0000";
layers = (
{
background = {
shapes = (
{
pos = (338,0);
ref = G;
}
);
};
layerId = "6D97EE47-94AA-478E-ABFB-936E6C32B491";
shapes = (
{
closed = 1;
nodes = (
(388,563,o),
(559,721,o),
(772,721,cs),
(872,721,o),
(965,700,o),
(1011,687,c),
(1032,545,l),
(1002,539,l),
(966,634,o),
(869,673,o),
(773,673,cs),
(593,673,o),
(483,552,o),
(483,380,cs),
(483,192,o),
(626,31,o),
(801,31,cs),
(849,31,o),
(900,43,o),
(955,70,c),
(955,221,l),
(925,234,o),
(885,237,o),
(867,237,c),
(867,269,l),
(1097,269,l),
(1097,237,l),
(1081,237,o),
(1053,228,o),
(1042,221,c),
(1042,76,l),
(1046,67,o),
(1058,57,o),
(1068,52,c),
(1068,17,l),
(984,13,o),
(901,-14,o),
(796,-14,cs),
(558,-14,o),
(388,129,o),
(388,349,cs)
);
},
{
closed = 1;
nodes = (
(204,1011,l),
(1281,1011,l),
(1281,-324,l),
(204,-324,l)
);
},
{
closed = 1;
nodes = (
(1257,-300,l),
(1257,987,l),
(228,987,l),
(228,-300,l)
);
},
{
closed = 1;
nodes = (
(1385,-428,l),
(1385,1115,l),
(100,1115,l),
(100,-428,l)
);
}
);
width = 1485;
}
);
},
{
glyphname = H.ss10;
lastChange = "2025-07-23 22:17:23 +0000";
layers = (
{
background = {
shapes = (
{
pos = (338,0);
ref = H;
}
);
};
layerId = "6D97EE47-94AA-478E-ABFB-936E6C32B491";
shapes = (
{
closed = 1;
nodes = (
(388,30,l),
(407,30,o),
(446,33,o),
(476,46,c),
(476,661,l),
(446,674,o),
(407,677,o),
(388,677,c),
(388,707,l),
(651,707,l),
(651,677,l),
(632,677,o),
(593,674,o),
(563,661,c),
(563,399,l),
(963,399,l),
(963,661,l),
(933,674,o),
(894,677,o),
(875,677,c),
(875,707,l),
(1138,707,l),
(1138,677,l),
(1119,677,o),
(1080,674,o),
(1050,661,c),
(1050,46,l),
(1080,33,o),
(1119,30,o),
(1138,30,c),
(1138,0,l),
(875,0,l),
(875,30,l),
(894,30,o),
(933,33,o),
(963,46,c),
(963,348,l),
(563,348,l),
(563,46,l),
(593,33,o),
(632,30,o),
(651,30,c),
(651,0,l),
(388,0,l)
);
},
{
closed = 1;
nodes = (
(204,1011,l),
(1322,1011,l),
(1322,-324,l),
(204,-324,l)
);
},
{
closed = 1;
nodes = (
(1298,-300,l),
(1298,987,l),
(228,987,l),
(228,-300,l)
);
},
{
closed = 1;
nodes = (
(1426,-428,l),
(1426,1115,l),
(100,1115,l),
(100,-428,l)
);
}
);
width = 1526;
}
);
},
{
glyphname = I.ss10;
lastChange = "2025-07-23 22:17:23 +0000";
layers = (
{
background = {
shapes = (
{
pos = (338,0);
ref = I;
}
);
};
layerId = "6D97EE47-94AA-478E-ABFB-936E6C32B491";
shapes = (
{
closed = 1;
nodes = (
(388,30,l),
(407,30,o),
(446,33,o),
(476,46,c),
(476,661,l),
(446,674,o),
(407,677,o),
(388,677,c),
(388,707,l),
(651,707,l),
(651,677,l),
(632,677,o),
(593,674,o),
(563,661,c),
(563,46,l),
(593,33,o),
(632,30,o),
(651,30,c),
(651,0,l),
(388,0,l)
);
},
{
closed = 1;
nodes = (
(204,1011,l),
(835,1011,l),
(835,-324,l),
(204,-324,l)
);
},
{
closed = 1;
nodes = (
(811,-300,l),
(811,987,l),
(228,987,l),
(228,-300,l)
);
},
{
closed = 1;
nodes = (
(939,-428,l),
(939,1115,l),
(100,1115,l),
(100,-428,l)
);
}
);
width = 1039;
}
);
},
{
glyphname = J.ss10;
lastChange = "2025-07-23 22:17:23 +0000";
layers = (
{
background = {
shapes = (
{
pos = (342,0);
ref = J;
}
);
};
layerId = "6D97EE47-94AA-478E-ABFB-936E6C32B491";
shapes = (
{
closed = 1;
nodes = (
(388,-163,l),
(425,-130,o),
(483,-54,o),
(508,41,cs),
(515,67,o),
(518,94,o),
(518,120,cs),
(518,661,l),
(488,674,o),
(449,677,o),
(430,677,c),
(430,707,l),
(694,707,l),
(694,677,l),
(675,677,o),
(636,674,o),
(606,661,c),
(606,100,l),
(563,-75,o),
(434,-171,o),
(410,-186,c)
);
},
{
closed = 1;
nodes = (
(204,1011,l),
(878,1011,l),
(878,-324,l),
(204,-324,l)
);
},
{
closed = 1;
nodes = (
(854,-300,l),
(854,987,l),
(228,987,l),
(228,-300,l)
);
},
{
closed = 1;
nodes = (
(982,-428,l),
(982,1115,l),
(100,1115,l),
(100,-428,l)
);
}
);
width = 1082;
}
);
},
{
glyphname = K.ss10;
lastChange = "2025-07-23 22:17:23 +0000";
layers = (
{
background = {
shapes = (
{
pos = (338,0);
ref = K;
}
);
};
layerId = "6D97EE47-94AA-478E-ABFB-936E6C32B491";
shapes = (
{
closed = 1;
nodes = (
(388,30,l),
(407,30,o),
(446,33,o),
(476,46,c),
(476,661,l),
(446,674,o),
(407,677,o),
(388,677,c),
(388,707,l),
(651,707,l),
(651,677,l),
(632,677,o),
(593,674,o),
(563,661,c),
(563,46,l),
(594,33,o),
(635,30,o),
(655,30,c),
(655,0,l),
(388,0,l)
);
},
{
closed = 1;
nodes = (
(825,674,o),
(793,677,o),
(778,677,c),
(778,707,l),
(1010,707,l),
(1010,677,l),
(991,677,o),
(952,674,o),
(922,661,c),
(670,391,l),
(714,331,o),
(813,196,o),
(876,127,cs),
(929,68,o),
(961,27,o),
(1050,0,c),
(1043,-30,l),
(906,-30,o),
(863,7,o),
(807,65,cs),
(756,117,o),
(613,331,o),
(581,373,c),
(850,661,l)
);
},
{
closed = 1;
nodes = (
(204,1011,l),
(1234,1011,l),
(1234,-324,l),
(204,-324,l)
);
},
{
closed = 1;
nodes = (
(1210,-300,l),
(1210,987,l),
(228,987,l),
(228,-300,l)
);
},
{
closed = 1;
nodes = (
(1338,-428,l),
(1338,1115,l),
(100,1115,l),
(100,-428,l)
);
}
);
width = 1438;
}
);
},
{
glyphname = L.ss10;
lastChange = "2025-07-23 22:17:23 +0000";
layers = (
{
background = {
shapes = (
{
pos = (338,0);
ref = L;
}
);
};
layerId = "6D97EE47-94AA-478E-ABFB-936E6C32B491";
shapes = (
{
closed = 1;
nodes = (
(388,30,l),
(407,30,o),
(446,33,o),
(476,46,c),
(476,661,l),
(446,674,o),
(407,677,o),
(388,677,c),
(388,707,l),
(651,707,l),
(651,677,l),
(632,677,o),
(593,674,o),
(563,661,c),
(563,51,l),
(831,51,l),
(854,77,o),
(885,139,o),
(893,158,c),
(924,148,l),
(878,0,l),
(388,0,l)
);
},
{
closed = 1;
nodes = (
(204,1011,l),
(1108,1011,l),
(1108,-324,l),
(204,-324,l)
);
},
{
closed = 1;
nodes = (
(1084,-300,l),
(1084,987,l),
(228,987,l),
(228,-300,l)
);
},
{
closed = 1;
nodes = (
(1212,-428,l),
(1212,1115,l),
(100,1115,l),
(100,-428,l)
);
}
);
width = 1312;
}
);
},
{
glyphname = M.ss10;
lastChange = "2025-07-23 22:17:23 +0000";
layers = (
{
background = {
shapes = (
{
pos = (348,0);
ref = M;
}
);
};
layerId = "6D97EE47-94AA-478E-ABFB-936E6C32B491";
shapes = (
{
closed = 1;
nodes = (
(552,582,l),
(533,46,l),
(563,33,o),
(602,30,o),
(621,30,c),
(621,0,l),
(388,0,l),
(388,30,l),
(407,30,o),
(446,33,o),
(476,46,c),
(497,664,l),
(469,674,o),
(434,677,o),
(416,677,c),
(416,707,l),
(592,707,l),
(811,168,l),
(1076,707,l),
(1225,707,l),
(1225,677,l),
(1206,677,o),
(1168,674,o),
(1138,661,c),
(1160,46,l),
(1190,33,o),
(1229,30,o),
(1248,30,c),
(1248,0,l),
(987,0,l),
(987,30,l),
(1006,30,o),
(1044,33,o),
(1074,46,c),
(1056,544,l),
(788,0,l)
);
},
{
closed = 1;
nodes = (
(204,1011,l),
(1432,1011,l),
(1432,-324,l),
(204,-324,l)
);
},
{
closed = 1;
nodes = (
(1408,-300,l),
(1408,987,l),
(228,987,l),
(228,-300,l)
);
},
{
closed = 1;
nodes = (
(1536,-428,l),
(1536,1115,l),
(100,1115,l),
(100,-428,l)
);
}
);
width = 1636;
}
);
},
{
glyphname = N.ss10;
lastChange = "2025-07-23 22:17:23 +0000";
layers = (
{
background = {
shapes = (
{
pos = (348,0);
ref = N;
}
);
};
layerId = "6D97EE47-94AA-478E-ABFB-936E6C32B491";
shapes = (
{
closed = 1;
nodes = (
(534,579,l),
(534,46,l),
(564,33,o),
(603,30,o),
(622,30,c),
(622,0,l),
(388,0,l),
(388,30,l),
(407,30,o),
(446,33,o),
(476,46,c),
(476,661,l),
(446,674,o),
(407,677,o),
(388,677,c),
(388,707,l),
(545,707,l),
(968,147,l),
(968,661,l),
(938,674,o),
(899,677,o),
(880,677,c),
(880,707,l),
(1114,707,l),
(1114,677,l),
(1095,677,o),
(1056,674,o),
(1026,661,c),
(1026,-14,l),
(981,-14,l)
);
},
{
closed = 1;
nodes = (
(204,1011,l),
(1298,1011,l),
(1298,-324,l),
(204,-324,l)
);
},
{
closed = 1;
nodes = (
(1274,-300,l),
(1274,987,l),
(228,987,l),
(228,-300,l)
);
},
{
closed = 1;
nodes = (
(1402,-428,l),
(1402,1115,l),
(100,1115,l),
(100,-428,l)
);
}
);
width = 1502;
}
);
},
{
glyphname = O.ss10;
lastChange = "2025-07-23 22:17:23 +0000";
layers = (
{
background = {
shapes = (
{
pos = (338,0);
ref = O;
}
);
};
layerId = "6D97EE47-94AA-478E-ABFB-936E6C32B491";
shapes = (
{
closed = 1;
nodes = (
(553,-14,o),
(388,146,o),
(388,348,cs),
(388,553,o),
(556,721,o),
(762,721,cs),
(965,721,o),
(1132,562,o),
(1132,360,cs),
(1132,155,o),
(963,-14,o),
(757,-14,cs)
);
},
{
closed = 1;
nodes = (
(934,41,o),
(1040,165,o),
(1040,319,cs),
(1040,496,o),
(904,667,o),
(733,667,cs),
(586,667,o),
(479,544,o),
(479,390,cs),
(479,215,o),
(614,41,o),
(787,41,cs)
);
},
{
closed = 1;
nodes = (
(204,1011,l),
(1316,1011,l),
(1316,-324,l),
(204,-324,l)
);
},
{
closed = 1;
nodes = (
(1292,-300,l),
(1292,987,l),
(228,987,l),
(228,-300,l)
);
},
{
closed = 1;
nodes = (
(1420,-428,l),
(1420,1115,l),
(100,1115,l),
(100,-428,l)
);
}
);
width = 1520;
}
);
},
{
glyphname = OE.ss10;
lastChange = "2025-07-23 22:17:23 +0000";
layers = (
{
background = {
shapes = (
{
pos = (238,0);
ref = OE;
}
);
};
layerId = "6D97EE47-94AA-478E-ABFB-936E6C32B491";
shapes = (
{
closed = 1;
nodes = (
(204,1011,l),
(1545,1011,l),
(1545,-324,l),
(204,-324,l)
);
},
{
closed = 1;
nodes = (
(1521,-300,l),
(1521,987,l),
(228,987,l),
(228,-300,l)
);
},
{
closed = 1;
nodes = (
(1649,-428,l),
(1649,1115,l),
(100,1115,l),
(100,-428,l)
);
},
{
closed = 1;
nodes = (
(826,-9,o),
(792,-14,o),
(757,-14,cs),
(553,-14,o),
(388,146,o),
(388,348,cs),
(388,553,o),
(556,721,o),
(762,721,cs),
(797,721,o),
(832,716,o),
(864,707,c),
(1303,707,l),
(1308,571,l),
(1276,569,l),
(1274,591,o),
(1269,626,o),
(1256,656,c),
(1013,656,l),
(1013,392,l),
(1222,392,l),
(1231,420,o),
(1233,451,o),
(1233,468,c),
(1263,468,l),
(1263,263,l),
(1233,263,l),
(1233,280,o),
(1231,313,o),
(1221,341,c),
(1013,341,l),
(1013,51,l),
(1276,51,l),
(1302,85,o),
(1326,146,o),
(1329,159,c),
(1361,151,l),
(1328,0,l),
(858,0,l)
);
},
{
closed = 1;
nodes = (
(479,215,o),
(614,41,o),
(787,41,cs),
(840,41,o),
(887,57,o),
(926,85,c),
(926,614,l),
(865,655,o),
(810,669,o),
(743,669,cs),
(586,669,o),
(479,544,o),
(479,390,cs)
);
}
);
width = 1749;
}
);
},
{
glyphname = P.ss10;
lastChange = "2025-07-23 22:17:23 +0000";
layers = (
{
background = {
shapes = (
{
pos = (338,0);
ref = P;
}
);
};
layerId = "6D97EE47-94AA-478E-ABFB-936E6C32B491";
shapes = (
{
closed = 1;
nodes = (
(388,30,l),
(407,30,o),
(446,33,o),
(476,46,c),
(476,663,l),
(446,672,o),
(409,670,o),
(391,669,c),
(388,699,l),
(476,710,o),
(565,721,o),
(649,721,cs),
(811,721,o),
(918,605,o),
(918,491,cs),
(918,375,o),
(809,261,o),
(622,268,c),
(620,300,l),
(761,309,o),
(825,381,o),
(825,470,cs),
(825,607,o),
(697,694,o),
(563,673,c),
(563,46,l),
(596,33,o),
(639,30,o),
(660,30,c),
(660,0,l),
(388,0,l)
);
},
{
closed = 1;
nodes = (
(204,1011,l),
(1102,1011,l),
(1102,-324,l),
(204,-324,l)
);
},
{
closed = 1;
nodes = (
(1078,-300,l),
(1078,987,l),
(228,987,l),
(228,-300,l)
);
},
{
closed = 1;
nodes = (
(1206,-428,l),
(1206,1115,l),
(100,1115,l),
(100,-428,l)
);
}
);
width = 1306;
}
);
},
{
glyphname = Thorn.ss10;
lastChange = "2025-07-23 22:17:23 +0000";
layers = (
{
background = {
shapes = (
{
pos = (358,0);
ref = Thorn;
}
);
};
layerId = "6D97EE47-94AA-478E-ABFB-936E6C32B491";
shapes = (
{
closed = 1;
nodes = (
(204,1011,l),
(1101,1011,l),
(1101,-324,l),
(204,-324,l)
);
},
{
closed = 1;
nodes = (
(1077,-300,l),
(1077,987,l),
(228,987,l),
(228,-300,l)
);
},
{
closed = 1;
nodes = (
(1205,-428,l),
(1205,1115,l),
(100,1115,l),
(100,-428,l)
);
},
{
closed = 1;
nodes = (
(755,203,o),
(806,262,o),
(806,339,cs),
(806,456,o),
(713,515,o),
(622,515,cs),
(608,515,o),
(594,514,o),
(583,512,c),
(583,46,l),
(613,33,o),
(652,30,o),
(671,30,c),
(671,0,l),
(408,0,l),
(408,30,l),
(427,30,o),
(466,33,o),
(496,46,c),
(496,661,l),
(466,674,o),
(427,677,o),
(408,677,c),
(408,707,l),
(671,707,l),
(671,677,l),
(652,677,o),
(613,674,o),
(583,661,c),
(583,555,l),
(605,559,o),
(624,561,o),
(644,561,cs),
(782,561,o),
(897,477,o),
(897,358,cs),
(897,260,o),
(806,158,o),
(640,163,c),
(638,194,l)
);
}
);
width = 1305;
}
);
},
{
glyphname = Q.ss10;
lastChange = "2025-07-23 22:17:23 +0000";
layers = (
{
background = {
shapes = (
{
pos = (338,0);
ref = Q;
}
);
};
layerId = "6D97EE47-94AA-478E-ABFB-936E6C32B491";
shapes = (
{
closed = 1;
nodes = (
(1019,-190,o),
(898,-132,o),
(783,-13,c),
(775,-14,o),
(766,-14,o),
(757,-14,cs),
(553,-14,o),
(388,146,o),
(388,348,cs),
(388,553,o),
(556,721,o),
(762,721,cs),
(965,721,o),
(1132,562,o),
(1132,360,cs),
(1132,198,o),
(1027,59,o),
(882,7,c),
(973,-95,o),
(1087,-158,o),
(1192,-168,c),
(1189,-200,l)
);
},
{
closed = 1;
nodes = (
(934,41,o),
(1040,165,o),
(1040,319,cs),
(1040,496,o),
(904,667,o),
(733,667,cs),
(586,667,o),
(479,544,o),
(479,390,cs),
(479,215,o),
(614,41,o),
(787,41,cs)
);
},
{
closed = 1;
nodes = (
(204,1011,l),
(1376,1011,l),
(1376,-324,l),
(204,-324,l)
);
},
{
closed = 1;
nodes = (
(1352,-300,l),
(1352,987,l),
(228,987,l),
(228,-300,l)
);
},
{
closed = 1;
nodes = (
(1480,-428,l),
(1480,1115,l),
(100,1115,l),
(100,-428,l)
);
}
);
width = 1580;
}
);
},
{
glyphname = R.ss10;
lastChange = "2025-07-23 22:17:23 +0000";
layers = (
{
background = {
shapes = (
{
pos = (338,0);
ref = R;
}
);
};
layerId = "6D97EE47-94AA-478E-ABFB-936E6C32B491";
shapes = (
{
closed = 1;
nodes = (
(388,30,l),
(407,30,o),
(446,33,o),
(476,46,c),
(476,663,l),
(446,672,o),
(409,670,o),
(391,669,c),
(388,699,l),
(476,710,o),
(568,721,o),
(643,721,cs),
(777,721,o),
(882,665,o),
(882,538,cs),
(882,472,o),
(843,397,o),
(730,353,c),
(766,287,o),
(826,195,o),
(878,128,cs),
(927,65,o),
(964,33,o),
(1051,0,c),
(1042,-29,l),
(904,-20,o),
(857,12,o),
(804,73,cs),
(762,122,o),
(686,264,o),
(648,329,c),
(622,324,o),
(594,320,o),
(563,317,c),
(563,46,l),
(594,33,o),
(635,30,o),
(655,30,c),
(655,0,l),
(388,0,l)
);
},
{
closed = 1;
nodes = (
(716,359,o),
(795,434,o),
(795,514,cs),
(795,632,o),
(697,694,o),
(563,673,c),
(563,353,l)
);
},
{
closed = 1;
nodes = (
(204,1011,l),
(1235,1011,l),
(1235,-324,l),
(204,-324,l)
);
},
{
closed = 1;
nodes = (
(1211,-300,l),
(1211,987,l),
(228,987,l),
(228,-300,l)
);
},
{
closed = 1;
nodes = (
(1339,-428,l),
(1339,1115,l),
(100,1115,l),
(100,-428,l)
);
}
);
width = 1439;
}
);
},
{
glyphname = S.ss10;
lastChange = "2025-07-23 22:17:23 +0000";
layers = (
{
background = {
shapes = (
{
pos = (342,0);
ref = S;
}
);
};
layerId = "6D97EE47-94AA-478E-ABFB-936E6C32B491";
shapes = (
{
closed = 1;
nodes = (
(520,-14,o),
(454,7,o),
(419,23,c),
(388,215,l),
(421,221,l),
(447,106,o),
(496,33,o),
(604,33,cs),
(692,33,o),
(754,79,o),
(754,155,cs),
(754,316,o),
(433,334,o),
(433,537,cs),
(433,660,o),
(539,721,o),
(670,721,cs),
(731,721,o),
(783,707,o),
(809,702,c),
(831,540,l),
(798,536,l),
(787,620,o),
(747,675,o),
(663,675,cs),
(586,675,o),
(521,626,o),
(521,560,cs),
(521,402,o),
(845,400,o),
(845,168,cs),
(845,50,o),
(743,-14,o),
(614,-14,cs)
);
},
{
closed = 1;
nodes = (
(204,1011,l),
(1029,1011,l),
(1029,-324,l),
(204,-324,l)
);
},
{
closed = 1;
nodes = (
(1005,-300,l),
(1005,987,l),
(228,987,l),
(228,-300,l)
);
},
{
closed = 1;
nodes = (
(1133,-428,l),
(1133,1115,l),
(100,1115,l),
(100,-428,l)
);
}
);
width = 1233;
}
);
},
{
glyphname = T.ss10;
lastChange = "2025-07-23 22:17:23 +0000";
layers = (
{
background = {
shapes = (
{
pos = (378,0);
ref = T;
}
);
};
layerId = "6D97EE47-94AA-478E-ABFB-936E6C32B491";
shapes = (
{
closed = 1;
nodes = (
(567,30,l),
(586,30,o),
(625,33,o),
(655,46,c),
(655,656,l),
(444,656,l),
(432,612,o),
(426,571,o),
(420,531,c),
(388,531,l),
(388,707,l),
(1006,707,l),
(980,528,l),
(948,531,l),
(949,570,o),
(951,610,o),
(945,656,c),
(742,656,l),
(742,46,l),
(772,33,o),
(811,30,o),
(830,30,c),
(830,0,l),
(567,0,l)
);
},
{
closed = 1;
nodes = (
(204,1011,l),
(1190,1011,l),
(1190,-324,l),
(204,-324,l)
);
},
{
closed = 1;
nodes = (
(1166,-300,l),
(1166,987,l),
(228,987,l),
(228,-300,l)
);
},
{
closed = 1;
nodes = (
(1294,-428,l),
(1294,1115,l),
(100,1115,l),
(100,-428,l)
);
}
);
width = 1394;
}
);
},
{
glyphname = U.ss10;
lastChange = "2025-07-23 22:17:23 +0000";
layers = (
{
background = {
shapes = (
{
pos = (338,0);
ref = U;
}
);
};
layerId = "6D97EE47-94AA-478E-ABFB-936E6C32B491";
shapes = (
{
closed = 1;
nodes = (
(678,-14,o),
(551,18,o),
(501,134,cs),
(477,192,o),
(476,281,o),
(476,384,cs),
(476,661,l),
(446,674,o),
(407,677,o),
(388,677,c),
(388,707,l),
(651,707,l),
(651,677,l),
(632,677,o),
(593,674,o),
(563,661,c),
(563,389,ls),
(563,338,o),
(561,220,o),
(578,166,cs),
(601,97,o),
(673,39,o),
(768,39,cs),
(860,39,o),
(943,76,o),
(969,162,cs),
(985,218,o),
(981,305,o),
(981,400,cs),
(981,661,l),
(951,674,o),
(912,677,o),
(893,677,c),
(893,707,l),
(1127,707,l),
(1127,677,l),
(1108,677,o),
(1069,674,o),
(1039,661,c),
(1039,393,ls),
(1039,306,o),
(1042,199,o),
(1022,139,cs),
(981,15,o),
(848,-14,o),
(758,-14,cs)
);
},
{
closed = 1;
nodes = (
(204,1011,l),
(1311,1011,l),
(1311,-324,l),
(204,-324,l)
);
},
{
closed = 1;
nodes = (
(1287,-300,l),
(1287,987,l),
(228,987,l),
(228,-300,l)
);
},
{
closed = 1;
nodes = (
(1415,-428,l),
(1415,1115,l),
(100,1115,l),
(100,-428,l)
);
}
);
width = 1515;
}
);
},
{
glyphname = V.ss10;
lastChange = "2025-07-23 22:17:23 +0000";
layers = (
{
background = {
shapes = (
{
pos = (384,0);
ref = V;
}
);
};
layerId = "6D97EE47-94AA-478E-ABFB-936E6C32B491";
shapes = (
{
closed = 1;
nodes = (
(204,1011,l),
(1293,1011,l),
(1293,-324,l),
(204,-324,l)
);
},
{
closed = 1;
nodes = (
(1269,-300,l),
(1269,987,l),
(228,987,l),
(228,-300,l)
);
},
{
closed = 1;
nodes = (
(1397,-428,l),
(1397,1115,l),
(100,1115,l),
(100,-428,l)
);
},
{
closed = 1;
nodes = (
(467,661,l),
(440,674,o),
(405,677,o),
(388,677,c),
(388,707,l),
(645,707,l),
(645,677,l),
(626,677,o),
(587,674,o),
(558,661,c),
(762,126,l),
(979,661,l),
(950,674,o),
(911,677,o),
(892,677,c),
(892,707,l),
(1109,707,l),
(1109,677,l),
(1094,677,o),
(1063,674,o),
(1039,661,c),
(766,-14,l),
(725,-14,l)
);
}
);
width = 1497;
}
);
},
{
glyphname = W.ss10;
lastChange = "2025-07-23 22:17:23 +0000";
layers = (
{
background = {
shapes = (
{
pos = (384,0);
ref = W;
}
);
};
layerId = "6D97EE47-94AA-478E-ABFB-936E6C32B491";
shapes = (
{
closed = 1;
nodes = (
(204,1011,l),
(1548,1011,l),
(1548,-324,l),
(204,-324,l)
);
},
{
closed = 1;
nodes = (
(1524,-300,l),
(1524,987,l),
(228,987,l),
(228,-300,l)
);
},
{
closed = 1;
nodes = (
(1652,-428,l),
(1652,1115,l),
(100,1115,l),
(100,-428,l)
);
},
{
closed = 1;
nodes = (
(464,661,l),
(438,674,o),
(404,677,o),
(388,677,c),
(388,707,l),
(640,707,l),
(640,677,l),
(621,677,o),
(582,674,o),
(552,661,c),
(692,143,l),
(887,622,l),
(928,622,l),
(1108,152,l),
(1235,661,l),
(1205,674,o),
(1166,677,o),
(1147,677,c),
(1147,707,l),
(1364,707,l),
(1364,677,l),
(1349,677,o),
(1318,674,o),
(1293,661,c),
(1124,-14,l),
(1083,-14,l),
(891,488,l),
(686,-14,l),
(645,-14,l)
);
}
);
width = 1752;
}
);
},
{
glyphname = X.ss10;
lastChange = "2025-07-23 22:17:23 +0000";
layers = (
{
background = {
shapes = (
{
pos = (384,0);
ref = X;
}
);
};
layerId = "6D97EE47-94AA-478E-ABFB-936E6C32B491";
shapes = (
{
closed = 1;
nodes = (
(204,1011,l),
(1239,1011,l),
(1239,-324,l),
(204,-324,l)
);
},
{
closed = 1;
nodes = (
(1215,-300,l),
(1215,987,l),
(228,987,l),
(228,-300,l)
);
},
{
closed = 1;
nodes = (
(1343,-428,l),
(1343,1115,l),
(100,1115,l),
(100,-428,l)
);
},
{
closed = 1;
nodes = (
(788,30,l),
(807,30,o),
(846,33,o),
(876,46,c),
(707,305,l),
(526,46,l),
(556,33,o),
(595,30,o),
(614,30,c),
(614,0,l),
(388,0,l),
(388,30,l),
(403,30,o),
(434,33,o),
(459,45,c),
(675,355,l),
(475,662,l),
(450,674,o),
(416,677,o),
(400,677,c),
(400,707,l),
(666,707,l),
(666,677,l),
(647,677,o),
(609,674,o),
(579,661,c),
(733,424,l),
(900,661,l),
(870,674,o),
(832,677,o),
(813,677,c),
(813,707,l),
(1037,707,l),
(1037,677,l),
(1023,677,o),
(992,674,o),
(968,662,c),
(765,375,l),
(980,45,l),
(1005,33,o),
(1038,30,o),
(1055,30,c),
(1055,0,l),
(788,0,l)
);
}
);
width = 1443;
}
);
},
{
glyphname = Y.ss10;
lastChange = "2025-07-23 22:17:23 +0000";
layers = (
{
background = {
shapes = (
{
pos = (384,0);
ref = Y;
}
);
};
layerId = "6D97EE47-94AA-478E-ABFB-936E6C32B491";
shapes = (
{
closed = 1;
nodes = (
(587,30,l),
(606,30,o),
(645,33,o),
(675,46,c),
(675,280,l),
(464,661,l),
(438,674,o),
(404,677,o),
(388,677,c),
(388,707,l),
(649,707,l),
(649,677,l),
(630,677,o),
(591,674,o),
(561,661,c),
(730,356,l),
(900,662,l),
(870,674,o),
(832,677,o),
(813,677,c),
(813,707,l),
(1033,707,l),
(1033,677,l),
(1018,677,o),
(987,674,o),
(962,661,c),
(762,301,l),
(762,46,l),
(792,33,o),
(831,30,o),
(850,30,c),
(850,0,l),
(587,0,l)
);
},
{
closed = 1;
nodes = (
(204,1011,l),
(1217,1011,l),
(1217,-324,l),
(204,-324,l)
);
},
{
closed = 1;
nodes = (
(1193,-300,l),
(1193,987,l),
(228,987,l),
(228,-300,l)
);
},
{
closed = 1;
nodes = (
(1321,-428,l),
(1321,1115,l),
(100,1115,l),
(100,-428,l)
);
}
);
width = 1421;
}
);
},
{
glyphname = Z.ss10;
lastChange = "2025-07-23 22:17:23 +0000";
layers = (
{
background = {
shapes = (
{
pos = (363,0);
ref = Z;
}
);
};
layerId = "6D97EE47-94AA-478E-ABFB-936E6C32B491";
shapes = (
{
closed = 1;
nodes = (
(388,38,l),
(804,656,l),
(457,656,l),
(445,613,o),
(439,574,o),
(431,534,c),
(399,536,l),
(406,707,l),
(902,707,l),
(917,671,l),
(500,51,l),
(863,51,l),
(894,90,o),
(923,161,o),
(927,175,c),
(958,167,l),
(919,0,l),
(404,0,l)
);
},
{
closed = 1;
nodes = (
(204,1011,l),
(1142,1011,l),
(1142,-324,l),
(204,-324,l)
);
},
{
closed = 1;
nodes = (
(1118,-300,l),
(1118,987,l),
(228,987,l),
(228,-300,l)
);
},
{
closed = 1;
nodes = (
(1246,-428,l),
(1246,1115,l),
(100,1115,l),
(100,-428,l)
);
}
);
width = 1346;
}
);
},
{
glyphname = A.ss11;
lastChange = "2025-07-23 22:17:23 +0000";
layers = (
{
background = {
shapes = (
{
pos = (360,0);
ref = A;
},
{
closed = 1;
nodes = (
(1720,1091,l),
(2924,1091,l),
(2924,-404,l),
(1720,-404,l)
);
},
{
closed = 1;
nodes = (
(2844,-324,l),
(2844,1011,l),
(1800,1011,l),
(1800,-324,l)
);
},
{
closed = 1;
nodes = (
(2948,-428,l),
(2948,1115,l),
(1696,1115,l),
(1696,-428,l)
);
},
{
closed = 1;
nodes = (
(2425,30,l),
(2444,30,o),
(2483,33,o),
(2513,46,c),
(2439,249,l),
(2178,249,l),
(2096,46,l),
(2125,33,o),
(2164,30,o),
(2183,30,c),
(2183,0,l),
(1964,0,l),
(1964,30,l),
(1979,30,o),
(2011,33,o),
(2036,46,c),
(2287,668,l),
(2273,707,l),
(2353,737,l),
(2603,46,l),
(2629,33,o),
(2664,30,o),
(2680,30,c),
(2680,0,l),
(2425,0,l)
);
},
{
closed = 1;
nodes = (
(2421,300,l),
(2316,589,l),
(2199,300,l)
);
}
);
};
layerId = "6D97EE47-94AA-478E-ABFB-936E6C32B491";
shapes = (
{
closed = 1;
nodes = (
(124,1091,l),
(1320,1091,l),
(1320,-404,l),
(124,-404,l)
);
},
{
closed = 1;
nodes = (
(1240,-324,l),
(1240,1011,l),
(204,1011,l),
(204,-324,l)
);
},
{
closed = 1;
nodes = (
(1344,-428,l),
(1344,1115,l),
(100,1115,l),
(100,-428,l)
);
},
{
closed = 1;
nodes = (
(825,30,l),
(844,30,o),
(883,33,o),
(913,46,c),
(839,249,l),
(578,249,l),
(496,46,l),
(525,33,o),
(564,30,o),
(583,30,c),
(583,0,l),
(364,0,l),
(364,30,l),
(379,30,o),
(411,33,o),
(436,46,c),
(687,668,l),
(673,707,l),
(753,737,l),
(1003,46,l),
(1029,33,o),
(1064,30,o),
(1080,30,c),
(1080,0,l),
(825,0,l)
);
},
{
closed = 1;
nodes = (
(821,300,l),
(716,589,l),
(599,300,l)
);
}
);
width = 1444;
}
);
},
{
glyphname = AE.ss11;
lastChange = "2025-07-23 22:17:23 +0000";
layers = (
{
background = {
shapes = (
{
pos = (360,0);
ref = AE;
}
);
};
layerId = "6D97EE47-94AA-478E-ABFB-936E6C32B491";
shapes = (
{
closed = 1;
nodes = (
(364,30,l),
(379,30,o),
(410,33,o),
(435,46,c),
(765,666,l),
(738,675,o),
(708,677,o),
(692,677,c),
(692,707,l),
(1199,707,l),
(1204,571,l),
(1172,569,l),
(1170,591,o),
(1165,626,o),
(1152,656,c),
(909,656,l),
(909,392,l),
(1118,392,l),
(1127,420,o),
(1129,451,o),
(1129,468,c),
(1159,468,l),
(1159,263,l),
(1129,263,l),
(1129,280,o),
(1127,313,o),
(1117,341,c),
(909,341,l),
(909,51,l),
(1172,51,l),
(1198,85,o),
(1222,146,o),
(1225,159,c),
(1257,151,l),
(1224,0,l),
(734,0,l),
(734,30,l),
(753,30,o),
(792,33,o),
(822,46,c),
(822,249,l),
(606,249,l),
(498,46,l),
(528,33,o),
(567,30,o),
(586,30,c),
(586,0,l),
(364,0,l)
);
},
{
closed = 1;
nodes = (
(822,300,l),
(822,654,l),
(634,300,l)
);
},
{
closed = 1;
nodes = (
(124,1091,l),
(1497,1091,l),
(1497,-404,l),
(124,-404,l)
);
},
{
closed = 1;
nodes = (
(1417,-324,l),
(1417,1011,l),
(204,1011,l),
(204,-324,l)
);
},
{
closed = 1;
nodes = (
(1521,-428,l),
(1521,1115,l),
(100,1115,l),
(100,-428,l)
);
}
);
width = 1621;
}
);
},
{
glyphname = B.ss11;
lastChange = "2025-07-23 22:17:23 +0000";
layers = (
{
background = {
shapes = (
{
pos = (314,0);
ref = B;
}
);
};
layerId = "6D97EE47-94AA-478E-ABFB-936E6C32B491";
shapes = (
{
closed = 1;
nodes = (
(124,1091,l),
(1155,1091,l),
(1155,-404,l),
(124,-404,l)
);
},
{
closed = 1;
nodes = (
(1075,-324,l),
(1075,1011,l),
(204,1011,l),
(204,-324,l)
);
},
{
closed = 1;
nodes = (
(1179,-428,l),
(1179,1115,l),
(100,1115,l),
(100,-428,l)
);
},
{
closed = 1;
nodes = (
(364,30,l),
(383,30,o),
(422,33,o),
(452,46,c),
(452,663,l),
(422,672,o),
(385,670,o),
(367,669,c),
(364,699,l),
(452,710,o),
(541,721,o),
(625,721,cs),
(749,721,o),
(852,665,o),
(852,558,cs),
(852,459,o),
(781,407,o),
(719,382,c),
(848,357,o),
(915,279,o),
(915,192,cs),
(915,99,o),
(837,0,o),
(674,0,cs),
(364,0,l)
);
},
{
closed = 1;
nodes = (
(821,253,o),
(776,311,o),
(706,337,cs),
(652,357,o),
(588,356,o),
(539,354,c),
(539,69,l),
(556,54,o),
(603,43,o),
(652,43,cs),
(752,43,o),
(821,83,o),
(821,179,cs)
);
},
{
closed = 1;
nodes = (
(664,387,o),
(764,406,o),
(764,531,cs),
(764,650,o),
(673,694,o),
(539,673,c),
(539,390,l)
);
}
);
width = 1279;
}
);
},
{
glyphname = C.ss11;
lastChange = "2025-07-23 22:17:23 +0000";
layers = (
{
background = {
shapes = (
{
pos = (314,0);
ref = C;
}
);
};
layerId = "6D97EE47-94AA-478E-ABFB-936E6C32B491";
shapes = (
{
closed = 1;
nodes = (
(882,-5,o),
(819,-14,o),
(762,-14,cs),
(531,-14,o),
(364,135,o),
(364,350,cs),
(364,560,o),
(535,721,o),
(745,721,cs),
(837,721,o),
(920,700,o),
(966,687,c),
(986,545,l),
(956,539,l),
(920,634,o),
(834,673,o),
(739,673,cs),
(568,673,o),
(459,549,o),
(459,380,cs),
(459,197,o),
(598,33,o),
(766,33,cs),
(877,33,o),
(940,83,o),
(999,176,c),
(1029,161,l),
(951,13,l)
);
},
{
closed = 1;
nodes = (
(124,1091,l),
(1269,1091,l),
(1269,-404,l),
(124,-404,l)
);
},
{
closed = 1;
nodes = (
(1189,-324,l),
(1189,1011,l),
(204,1011,l),
(204,-324,l)
);
},
{
closed = 1;
nodes = (
(1293,-428,l),
(1293,1115,l),
(100,1115,l),
(100,-428,l)
);
}
);
width = 1393;
}
);
},
{
glyphname = D.ss11;
lastChange = "2025-07-23 22:17:23 +0000";
layers = (
{
background = {
shapes = (
{
pos = (314,0);
ref = D;
}
);
};
layerId = "6D97EE47-94AA-478E-ABFB-936E6C32B491";
shapes = (
{
closed = 1;
nodes = (
(364,30,l),
(383,30,o),
(422,33,o),
(452,46,c),
(452,663,l),
(422,672,o),
(385,670,o),
(367,669,c),
(364,699,l),
(454,711,o),
(551,721,o),
(646,721,cs),
(904,721,o),
(1094,594,o),
(1094,364,cs),
(1094,203,o),
(972,62,o),
(809,19,cs),
(765,7,o),
(687,0,o),
(624,0,cs),
(539,0,l),
(525,0,l),
(364,0,l)
);
},
{
closed = 1;
nodes = (
(573,56,o),
(616,47,o),
(667,47,cs),
(862,47,o),
(1001,157,o),
(1001,337,cs),
(1001,575,o),
(794,705,o),
(539,668,c),
(539,69,l)
);
},
{
closed = 1;
nodes = (
(124,1091,l),
(1334,1091,l),
(1334,-404,l),
(124,-404,l)
);
},
{
closed = 1;
nodes = (
(1254,-324,l),
(1254,1011,l),
(204,1011,l),
(204,-324,l)
);
},
{
closed = 1;
nodes = (
(1358,-428,l),
(1358,1115,l),
(100,1115,l),
(100,-428,l)
);
}
);
width = 1458;
}
);
},
{
glyphname = Eth.ss11;
lastChange = "2025-07-23 22:17:23 +0000";
layers = (
{
background = {
shapes = (
{
pos = (310,0);
ref = Eth;
}
);
};
layerId = "6D97EE47-94AA-478E-ABFB-936E6C32B491";
shapes = (
{
closed = 1;
nodes = (
(360,386,l),
(452,386,l),
(452,663,l),
(422,672,o),
(385,670,o),
(367,669,c),
(364,699,l),
(454,711,o),
(551,721,o),
(646,721,cs),
(904,721,o),
(1094,594,o),
(1094,364,cs),
(1094,203,o),
(972,62,o),
(809,19,cs),
(765,7,o),
(687,0,o),
(624,0,cs),
(364,0,l),
(364,30,l),
(383,30,o),
(422,33,o),
(452,46,c),
(452,344,l),
(360,344,l)
);
},
{
closed = 1;
nodes = (
(573,56,o),
(616,47,o),
(667,47,cs),
(862,47,o),
(1001,157,o),
(1001,337,cs),
(1001,575,o),
(794,705,o),
(539,668,c),
(539,386,l),
(729,386,l),
(729,344,l),
(539,344,l),
(539,69,l)
);
},
{
closed = 1;
nodes = (
(124,1091,l),
(1334,1091,l),
(1334,-404,l),
(124,-404,l)
);
},
{
closed = 1;
nodes = (
(1254,-324,l),
(1254,1011,l),
(204,1011,l),
(204,-324,l)
);
},
{
closed = 1;
nodes = (
(1358,-428,l),
(1358,1115,l),
(100,1115,l),
(100,-428,l)
);
}
);
width = 1458;
}
);
},
{
glyphname = E.ss11;
lastChange = "2025-07-23 22:17:23 +0000";
layers = (
{
background = {
shapes = (
{
pos = (314,0);
ref = E;
}
);
};
layerId = "6D97EE47-94AA-478E-ABFB-936E6C32B491";
shapes = (
{
closed = 1;
nodes = (
(364,30,l),
(383,30,o),
(422,33,o),
(452,46,c),
(452,661,l),
(422,674,o),
(383,677,o),
(364,677,c),
(364,707,l),
(829,707,l),
(834,571,l),
(802,569,l),
(800,591,o),
(795,626,o),
(782,656,c),
(539,656,l),
(539,392,l),
(748,392,l),
(757,420,o),
(759,451,o),
(759,468,c),
(789,468,l),
(789,263,l),
(759,263,l),
(759,280,o),
(757,313,o),
(747,341,c),
(539,341,l),
(539,51,l),
(802,51,l),
(828,85,o),
(852,146,o),
(855,159,c),
(887,151,l),
(854,0,l),
(364,0,l)
);
},
{
closed = 1;
nodes = (
(124,1091,l),
(1127,1091,l),
(1127,-404,l),
(124,-404,l)
);
},
{
closed = 1;
nodes = (
(1047,-324,l),
(1047,1011,l),
(204,1011,l),
(204,-324,l)
);
},
{
closed = 1;
nodes = (
(1151,-428,l),
(1151,1115,l),
(100,1115,l),
(100,-428,l)
);
}
);
width = 1251;
}
);
},
{
glyphname = F.ss11;
lastChange = "2025-07-23 22:17:23 +0000";
layers = (
{
background = {
shapes = (
{
pos = (314,0);
ref = F;
}
);
};
layerId = "6D97EE47-94AA-478E-ABFB-936E6C32B491";
shapes = (
{
closed = 1;
nodes = (
(364,30,l),
(383,30,o),
(422,33,o),
(452,46,c),
(452,661,l),
(422,674,o),
(383,677,o),
(364,677,c),
(364,707,l),
(829,707,l),
(834,571,l),
(802,569,l),
(800,591,o),
(795,626,o),
(782,656,c),
(539,656,l),
(539,382,l),
(743,382,l),
(752,410,o),
(754,441,o),
(754,458,c),
(784,458,l),
(784,253,l),
(754,253,l),
(754,270,o),
(752,303,o),
(742,331,c),
(539,331,l),
(539,46,l),
(572,33,o),
(615,30,o),
(636,30,c),
(636,0,l),
(364,0,l)
);
},
{
closed = 1;
nodes = (
(124,1091,l),
(1074,1091,l),
(1074,-404,l),
(124,-404,l)
);
},
{
closed = 1;
nodes = (
(994,-324,l),
(994,1011,l),
(204,1011,l),
(204,-324,l)
);
},
{
closed = 1;
nodes = (
(1098,-428,l),
(1098,1115,l),
(100,1115,l),
(100,-428,l)
);
}
);
width = 1198;
}
);
},
{
glyphname = G.ss11;
lastChange = "2025-07-23 22:17:23 +0000";
layers = (
{
background = {
shapes = (
{
pos = (314,0);
ref = G;
}
);
};
layerId = "6D97EE47-94AA-478E-ABFB-936E6C32B491";
shapes = (
{
closed = 1;
nodes = (
(364,563,o),
(535,721,o),
(748,721,cs),
(848,721,o),
(941,700,o),
(987,687,c),
(1008,545,l),
(978,539,l),
(942,634,o),
(845,673,o),
(749,673,cs),
(569,673,o),
(459,552,o),
(459,380,cs),
(459,192,o),
(602,31,o),
(777,31,cs),
(825,31,o),
(876,43,o),
(931,70,c),
(931,221,l),
(901,234,o),
(861,237,o),
(843,237,c),
(843,269,l),
(1073,269,l),
(1073,237,l),
(1057,237,o),
(1029,228,o),
(1018,221,c),
(1018,76,l),
(1022,67,o),
(1034,57,o),
(1044,52,c),
(1044,17,l),
(960,13,o),
(877,-14,o),
(772,-14,cs),
(534,-14,o),
(364,129,o),
(364,349,cs)
);
},
{
closed = 1;
nodes = (
(124,1091,l),
(1313,1091,l),
(1313,-404,l),
(124,-404,l)
);
},
{
closed = 1;
nodes = (
(1233,-324,l),
(1233,1011,l),
(204,1011,l),
(204,-324,l)
);
},
{
closed = 1;
nodes = (
(1337,-428,l),
(1337,1115,l),
(100,1115,l),
(100,-428,l)
);
}
);
width = 1437;
}
);
},
{
glyphname = H.ss11;
lastChange = "2025-07-23 22:17:23 +0000";
layers = (
{
background = {
shapes = (
{
pos = (314,0);
ref = H;
}
);
};
layerId = "6D97EE47-94AA-478E-ABFB-936E6C32B491";
shapes = (
{
closed = 1;
nodes = (
(364,30,l),
(383,30,o),
(422,33,o),
(452,46,c),
(452,661,l),
(422,674,o),
(383,677,o),
(364,677,c),
(364,707,l),
(627,707,l),
(627,677,l),
(608,677,o),
(569,674,o),
(539,661,c),
(539,399,l),
(939,399,l),
(939,661,l),
(909,674,o),
(870,677,o),
(851,677,c),
(851,707,l),
(1114,707,l),
(1114,677,l),
(1095,677,o),
(1056,674,o),
(1026,661,c),
(1026,46,l),
(1056,33,o),
(1095,30,o),
(1114,30,c),
(1114,0,l),
(851,0,l),
(851,30,l),
(870,30,o),
(909,33,o),
(939,46,c),
(939,348,l),
(539,348,l),
(539,46,l),
(569,33,o),
(608,30,o),
(627,30,c),
(627,0,l),
(364,0,l)
);
},
{
closed = 1;
nodes = (
(124,1091,l),
(1354,1091,l),
(1354,-404,l),
(124,-404,l)
);
},
{
closed = 1;
nodes = (
(1274,-324,l),
(1274,1011,l),
(204,1011,l),
(204,-324,l)
);
},
{
closed = 1;
nodes = (
(1378,-428,l),
(1378,1115,l),
(100,1115,l),
(100,-428,l)
);
}
);
width = 1478;
}
);
},
{
glyphname = I.ss11;
lastChange = "2025-07-23 22:17:23 +0000";
layers = (
{
background = {
shapes = (
{
pos = (314,0);
ref = I;
},
{
closed = 1;
nodes = (
(1364,30,l),
(1383,30,o),
(1422,33,o),
(1452,46,c),
(1452,661,l),
(1422,674,o),
(1383,677,o),
(1364,677,c),
(1364,707,l),
(1627,707,l),
(1627,677,l),
(1608,677,o),
(1569,674,o),
(1539,661,c),
(1539,46,l),
(1569,33,o),
(1608,30,o),
(1627,30,c),
(1627,0,l),
(1364,0,l)
);
},
{
closed = 1;
nodes = (
(1120,1091,l),
(1871,1091,l),
(1871,-404,l),
(1120,-404,l)
);
},
{
closed = 1;
nodes = (
(1791,-324,l),
(1791,1011,l),
(1200,1011,l),
(1200,-324,l)
);
},
{
closed = 1;
nodes = (
(1895,-428,l),
(1895,1115,l),
(1096,1115,l),
(1096,-428,l)
);
}
);
};
layerId = "6D97EE47-94AA-478E-ABFB-936E6C32B491";
shapes = (
{
closed = 1;
nodes = (
(364,30,l),
(383,30,o),
(422,33,o),
(452,46,c),
(452,661,l),
(422,674,o),
(383,677,o),
(364,677,c),
(364,707,l),
(627,707,l),
(627,677,l),
(608,677,o),
(569,674,o),
(539,661,c),
(539,46,l),
(569,33,o),
(608,30,o),
(627,30,c),
(627,0,l),
(364,0,l)
);
},
{
closed = 1;
nodes = (
(124,1091,l),
(867,1091,l),
(867,-404,l),
(124,-404,l)
);
},
{
closed = 1;
nodes = (
(787,-324,l),
(787,1011,l),
(204,1011,l),
(204,-324,l)
);
},
{
closed = 1;
nodes = (
(891,-428,l),
(891,1115,l),
(100,1115,l),
(100,-428,l)
);
}
);
width = 991;
}
);
},
{
glyphname = J.ss11;
lastChange = "2025-07-23 22:17:23 +0000";
layers = (
{
background = {
shapes = (
{
pos = (318,0);
ref = J;
}
);
};
layerId = "6D97EE47-94AA-478E-ABFB-936E6C32B491";
shapes = (
{
closed = 1;
nodes = (
(364,-163,l),
(401,-130,o),
(459,-54,o),
(484,41,cs),
(491,67,o),
(494,94,o),
(494,120,cs),
(494,661,l),
(464,674,o),
(425,677,o),
(406,677,c),
(406,707,l),
(670,707,l),
(670,677,l),
(651,677,o),
(612,674,o),
(582,661,c),
(582,100,l),
(539,-75,o),
(410,-171,o),
(386,-186,c)
);
},
{
closed = 1;
nodes = (
(124,1091,l),
(910,1091,l),
(910,-404,l),
(124,-404,l)
);
},
{
closed = 1;
nodes = (
(830,-324,l),
(830,1011,l),
(204,1011,l),
(204,-324,l)
);
},
{
closed = 1;
nodes = (
(934,-428,l),
(934,1115,l),
(100,1115,l),
(100,-428,l)
);
}
);
width = 1034;
}
);
},
{
glyphname = K.ss11;
lastChange = "2025-07-23 22:17:23 +0000";
layers = (
{
background = {
shapes = (
{
pos = (314,0);
ref = K;
}
);
};
layerId = "6D97EE47-94AA-478E-ABFB-936E6C32B491";
shapes = (
{
closed = 1;
nodes = (
(364,30,l),
(383,30,o),
(422,33,o),
(452,46,c),
(452,661,l),
(422,674,o),
(383,677,o),
(364,677,c),
(364,707,l),
(627,707,l),
(627,677,l),
(608,677,o),
(569,674,o),
(539,661,c),
(539,46,l),
(570,33,o),
(611,30,o),
(631,30,c),
(631,0,l),
(364,0,l)
);
},
{
closed = 1;
nodes = (
(801,674,o),
(769,677,o),
(754,677,c),
(754,707,l),
(986,707,l),
(986,677,l),
(967,677,o),
(928,674,o),
(898,661,c),
(646,391,l),
(690,331,o),
(789,196,o),
(852,127,cs),
(905,68,o),
(937,27,o),
(1026,0,c),
(1019,-30,l),
(882,-30,o),
(839,7,o),
(783,65,cs),
(732,117,o),
(589,331,o),
(557,373,c),
(826,661,l)
);
},
{
closed = 1;
nodes = (
(124,1091,l),
(1266,1091,l),
(1266,-404,l),
(124,-404,l)
);
},
{
closed = 1;
nodes = (
(1186,-324,l),
(1186,1011,l),
(204,1011,l),
(204,-324,l)
);
},
{
closed = 1;
nodes = (
(1290,-428,l),
(1290,1115,l),
(100,1115,l),
(100,-428,l)
);
}
);
width = 1390;
}
);
},
{
glyphname = L.ss11;
lastChange = "2025-07-23 22:17:23 +0000";
layers = (
{
background = {
shapes = (
{
pos = (314,0);
ref = L;
}
);
};
layerId = "6D97EE47-94AA-478E-ABFB-936E6C32B491";
shapes = (
{
closed = 1;
nodes = (
(364,30,l),
(383,30,o),
(422,33,o),
(452,46,c),
(452,661,l),
(422,674,o),
(383,677,o),
(364,677,c),
(364,707,l),
(627,707,l),
(627,677,l),
(608,677,o),
(569,674,o),
(539,661,c),
(539,51,l),
(807,51,l),
(830,77,o),
(861,139,o),
(869,158,c),
(900,148,l),
(854,0,l),
(364,0,l)
);
},
{
closed = 1;
nodes = (
(124,1091,l),
(1140,1091,l),
(1140,-404,l),
(124,-404,l)
);
},
{
closed = 1;
nodes = (
(1060,-324,l),
(1060,1011,l),
(204,1011,l),
(204,-324,l)
);
},
{
closed = 1;
nodes = (
(1164,-428,l),
(1164,1115,l),
(100,1115,l),
(100,-428,l)
);
}
);
width = 1264;
}
);
},
{
glyphname = M.ss11;
lastChange = "2025-07-23 22:17:23 +0000";
layers = (
{
background = {
shapes = (
{
pos = (324,0);
ref = M;
}
);
};
layerId = "6D97EE47-94AA-478E-ABFB-936E6C32B491";
shapes = (
{
closed = 1;
nodes = (
(528,582,l),
(509,46,l),
(539,33,o),
(578,30,o),
(597,30,c),
(597,0,l),
(364,0,l),
(364,30,l),
(383,30,o),
(422,33,o),
(452,46,c),
(473,664,l),
(445,674,o),
(410,677,o),
(392,677,c),
(392,707,l),
(568,707,l),
(787,168,l),
(1052,707,l),
(1201,707,l),
(1201,677,l),
(1182,677,o),
(1144,674,o),
(1114,661,c),
(1136,46,l),
(1166,33,o),
(1205,30,o),
(1224,30,c),
(1224,0,l),
(963,0,l),
(963,30,l),
(982,30,o),
(1020,33,o),
(1050,46,c),
(1032,544,l),
(764,0,l)
);
},
{
closed = 1;
nodes = (
(124,1091,l),
(1464,1091,l),
(1464,-404,l),
(124,-404,l)
);
},
{
closed = 1;
nodes = (
(1384,-324,l),
(1384,1011,l),
(204,1011,l),
(204,-324,l)
);
},
{
closed = 1;
nodes = (
(1488,-428,l),
(1488,1115,l),
(100,1115,l),
(100,-428,l)
);
}
);
width = 1588;
}
);
},
{
glyphname = N.ss11;
lastChange = "2025-07-23 22:17:23 +0000";
layers = (
{
background = {
shapes = (
{
pos = (324,0);
ref = N;
}
);
};
layerId = "6D97EE47-94AA-478E-ABFB-936E6C32B491";
shapes = (
{
closed = 1;
nodes = (
(510,579,l),
(510,46,l),
(540,33,o),
(579,30,o),
(598,30,c),
(598,0,l),
(364,0,l),
(364,30,l),
(383,30,o),
(422,33,o),
(452,46,c),
(452,661,l),
(422,674,o),
(383,677,o),
(364,677,c),
(364,707,l),
(521,707,l),
(944,147,l),
(944,661,l),
(914,674,o),
(875,677,o),
(856,677,c),
(856,707,l),
(1090,707,l),
(1090,677,l),
(1071,677,o),
(1032,674,o),
(1002,661,c),
(1002,-14,l),
(957,-14,l)
);
},
{
closed = 1;
nodes = (
(124,1091,l),
(1330,1091,l),
(1330,-404,l),
(124,-404,l)
);
},
{
closed = 1;
nodes = (
(1250,-324,l),
(1250,1011,l),
(204,1011,l),
(204,-324,l)
);
},
{
closed = 1;
nodes = (
(1354,-428,l),
(1354,1115,l),
(100,1115,l),
(100,-428,l)
);
}
);
width = 1454;
}
);
},
{
glyphname = O.ss11;
lastChange = "2025-07-23 22:17:23 +0000";
layers = (
{
background = {
shapes = (
{
pos = (314,0);
ref = O;
}
);
};
layerId = "6D97EE47-94AA-478E-ABFB-936E6C32B491";
shapes = (
{
closed = 1;
nodes = (
(529,-14,o),
(364,146,o),
(364,348,cs),
(364,553,o),
(532,721,o),
(738,721,cs),
(941,721,o),
(1108,562,o),
(1108,360,cs),
(1108,155,o),
(939,-14,o),
(733,-14,cs)
);
},
{
closed = 1;
nodes = (
(910,41,o),
(1016,165,o),
(1016,319,cs),
(1016,496,o),
(880,667,o),
(709,667,cs),
(562,667,o),
(455,544,o),
(455,390,cs),
(455,215,o),
(590,41,o),
(763,41,cs)
);
},
{
closed = 1;
nodes = (
(124,1091,l),
(1348,1091,l),
(1348,-404,l),
(124,-404,l)
);
},
{
closed = 1;
nodes = (
(1268,-324,l),
(1268,1011,l),
(204,1011,l),
(204,-324,l)
);
},
{
closed = 1;
nodes = (
(1372,-428,l),
(1372,1115,l),
(100,1115,l),
(100,-428,l)
);
}
);
width = 1472;
}
);
},
{
glyphname = OE.ss11;
lastChange = "2025-07-23 22:17:23 +0000";
layers = (
{
background = {
shapes = (
{
pos = (214,0);
ref = OE;
}
);
};
layerId = "6D97EE47-94AA-478E-ABFB-936E6C32B491";
shapes = (
{
closed = 1;
nodes = (
(124,1091,l),
(1577,1091,l),
(1577,-404,l),
(124,-404,l)
);
},
{
closed = 1;
nodes = (
(1497,-324,l),
(1497,1011,l),
(204,1011,l),
(204,-324,l)
);
},
{
closed = 1;
nodes = (
(1601,-428,l),
(1601,1115,l),
(100,1115,l),
(100,-428,l)
);
},
{
closed = 1;
nodes = (
(802,-9,o),
(768,-14,o),
(733,-14,cs),
(529,-14,o),
(364,146,o),
(364,348,cs),
(364,553,o),
(532,721,o),
(738,721,cs),
(773,721,o),
(808,716,o),
(840,707,c),
(1279,707,l),
(1284,571,l),
(1252,569,l),
(1250,591,o),
(1245,626,o),
(1232,656,c),
(989,656,l),
(989,392,l),
(1198,392,l),
(1207,420,o),
(1209,451,o),
(1209,468,c),
(1239,468,l),
(1239,263,l),
(1209,263,l),
(1209,280,o),
(1207,313,o),
(1197,341,c),
(989,341,l),
(989,51,l),
(1252,51,l),
(1278,85,o),
(1302,146,o),
(1305,159,c),
(1337,151,l),
(1304,0,l),
(834,0,l)
);
},
{
closed = 1;
nodes = (
(455,215,o),
(590,41,o),
(763,41,cs),
(816,41,o),
(863,57,o),
(902,85,c),
(902,614,l),
(841,655,o),
(786,669,o),
(719,669,cs),
(562,669,o),
(455,544,o),
(455,390,cs)
);
}
);
width = 1701;
}
);
},
{
glyphname = P.ss11;
lastChange = "2025-07-23 22:17:23 +0000";
layers = (
{
background = {
shapes = (
{
pos = (314,0);
ref = P;
}
);
};
layerId = "6D97EE47-94AA-478E-ABFB-936E6C32B491";
shapes = (
{
closed = 1;
nodes = (
(364,30,l),
(383,30,o),
(422,33,o),
(452,46,c),
(452,663,l),
(422,672,o),
(385,670,o),
(367,669,c),
(364,699,l),
(452,710,o),
(541,721,o),
(625,721,cs),
(787,721,o),
(894,605,o),
(894,491,cs),
(894,375,o),
(785,261,o),
(598,268,c),
(596,300,l),
(737,309,o),
(801,381,o),
(801,470,cs),
(801,607,o),
(673,694,o),
(539,673,c),
(539,46,l),
(572,33,o),
(615,30,o),
(636,30,c),
(636,0,l),
(364,0,l)
);
},
{
closed = 1;
nodes = (
(124,1091,l),
(1134,1091,l),
(1134,-404,l),
(124,-404,l)
);
},
{
closed = 1;
nodes = (
(1054,-324,l),
(1054,1011,l),
(204,1011,l),
(204,-324,l)
);
},
{
closed = 1;
nodes = (
(1158,-428,l),
(1158,1115,l),
(100,1115,l),
(100,-428,l)
);
}
);
width = 1258;
}
);
},
{
glyphname = Thorn.ss11;
lastChange = "2025-07-23 22:17:23 +0000";
layers = (
{
background = {
shapes = (
{
pos = (314,0);
ref = Thorn;
}
);
};
layerId = "6D97EE47-94AA-478E-ABFB-936E6C32B491";
shapes = (
{
closed = 1;
nodes = (
(124,1091,l),
(1093,1091,l),
(1093,-404,l),
(124,-404,l)
);
},
{
closed = 1;
nodes = (
(1013,-324,l),
(1013,1011,l),
(204,1011,l),
(204,-324,l)
);
},
{
closed = 1;
nodes = (
(1117,-428,l),
(1117,1115,l),
(100,1115,l),
(100,-428,l)
);
},
{
closed = 1;
nodes = (
(711,203,o),
(762,262,o),
(762,339,cs),
(762,456,o),
(669,515,o),
(578,515,cs),
(564,515,o),
(550,514,o),
(539,512,c),
(539,46,l),
(569,33,o),
(608,30,o),
(627,30,c),
(627,0,l),
(364,0,l),
(364,30,l),
(383,30,o),
(422,33,o),
(452,46,c),
(452,661,l),
(422,674,o),
(383,677,o),
(364,677,c),
(364,707,l),
(627,707,l),
(627,677,l),
(608,677,o),
(569,674,o),
(539,661,c),
(539,555,l),
(561,559,o),
(580,561,o),
(600,561,cs),
(738,561,o),
(853,477,o),
(853,358,cs),
(853,260,o),
(762,158,o),
(596,163,c),
(594,194,l)
);
}
);
width = 1217;
}
);
},
{
glyphname = Q.ss11;
lastChange = "2025-07-23 22:17:23 +0000";
layers = (
{
background = {
shapes = (
{
pos = (314,0);
ref = Q;
}
);
};
layerId = "6D97EE47-94AA-478E-ABFB-936E6C32B491";
shapes = (
{
closed = 1;
nodes = (
(995,-190,o),
(874,-132,o),
(759,-13,c),
(751,-14,o),
(742,-14,o),
(733,-14,cs),
(529,-14,o),
(364,146,o),
(364,348,cs),
(364,553,o),
(532,721,o),
(738,721,cs),
(941,721,o),
(1108,562,o),
(1108,360,cs),
(1108,198,o),
(1003,59,o),
(858,7,c),
(949,-95,o),
(1063,-158,o),
(1168,-168,c),
(1165,-200,l)
);
},
{
closed = 1;
nodes = (
(910,41,o),
(1016,165,o),
(1016,319,cs),
(1016,496,o),
(880,667,o),
(709,667,cs),
(562,667,o),
(455,544,o),
(455,390,cs),
(455,215,o),
(590,41,o),
(763,41,cs)
);
},
{
closed = 1;
nodes = (
(124,1091,l),
(1408,1091,l),
(1408,-404,l),
(124,-404,l)
);
},
{
closed = 1;
nodes = (
(1328,-324,l),
(1328,1011,l),
(204,1011,l),
(204,-324,l)
);
},
{
closed = 1;
nodes = (
(1432,-428,l),
(1432,1115,l),
(100,1115,l),
(100,-428,l)
);
}
);
width = 1532;
}
);
},
{
glyphname = R.ss11;
lastChange = "2025-07-23 22:17:23 +0000";
layers = (
{
background = {
shapes = (
{
pos = (314,0);
ref = R;
}
);
};
layerId = "6D97EE47-94AA-478E-ABFB-936E6C32B491";
shapes = (
{
closed = 1;
nodes = (
(364,30,l),
(383,30,o),
(422,33,o),
(452,46,c),
(452,663,l),
(422,672,o),
(385,670,o),
(367,669,c),
(364,699,l),
(452,710,o),
(544,721,o),
(619,721,cs),
(753,721,o),
(858,665,o),
(858,538,cs),
(858,472,o),
(819,397,o),
(706,353,c),
(742,287,o),
(802,195,o),
(854,128,cs),
(903,65,o),
(940,33,o),
(1027,0,c),
(1018,-29,l),
(880,-20,o),
(833,12,o),
(780,73,cs),
(738,122,o),
(662,264,o),
(624,329,c),
(598,324,o),
(570,320,o),
(539,317,c),
(539,46,l),
(570,33,o),
(611,30,o),
(631,30,c),
(631,0,l),
(364,0,l)
);
},
{
closed = 1;
nodes = (
(692,359,o),
(771,434,o),
(771,514,cs),
(771,632,o),
(673,694,o),
(539,673,c),
(539,353,l)
);
},
{
closed = 1;
nodes = (
(124,1091,l),
(1267,1091,l),
(1267,-404,l),
(124,-404,l)
);
},
{
closed = 1;
nodes = (
(1187,-324,l),
(1187,1011,l),
(204,1011,l),
(204,-324,l)
);
},
{
closed = 1;
nodes = (
(1291,-428,l),
(1291,1115,l),
(100,1115,l),
(100,-428,l)
);
}
);
width = 1391;
}
);
},
{
glyphname = S.ss11;
lastChange = "2025-07-23 22:17:23 +0000";
layers = (
{
background = {
shapes = (
{
pos = (318,0);
ref = S;
}
);
};
layerId = "6D97EE47-94AA-478E-ABFB-936E6C32B491";
shapes = (
{
closed = 1;
nodes = (
(496,-14,o),
(430,7,o),
(395,23,c),
(364,215,l),
(397,221,l),
(423,106,o),
(472,33,o),
(580,33,cs),
(668,33,o),
(730,79,o),
(730,155,cs),
(730,316,o),
(409,334,o),
(409,537,cs),
(409,660,o),
(515,721,o),
(646,721,cs),
(707,721,o),
(759,707,o),
(785,702,c),
(807,540,l),
(774,536,l),
(763,620,o),
(723,675,o),
(639,675,cs),
(562,675,o),
(497,626,o),
(497,560,cs),
(497,402,o),
(821,400,o),
(821,168,cs),
(821,50,o),
(719,-14,o),
(590,-14,cs)
);
},
{
closed = 1;
nodes = (
(124,1091,l),
(1061,1091,l),
(1061,-404,l),
(124,-404,l)
);
},
{
closed = 1;
nodes = (
(981,-324,l),
(981,1011,l),
(204,1011,l),
(204,-324,l)
);
},
{
closed = 1;
nodes = (
(1085,-428,l),
(1085,1115,l),
(100,1115,l),
(100,-428,l)
);
}
);
width = 1185;
}
);
},
{
glyphname = T.ss11;
lastChange = "2025-07-23 22:17:23 +0000";
layers = (
{
background = {
shapes = (
{
pos = (354,0);
ref = T;
}
);
};
layerId = "6D97EE47-94AA-478E-ABFB-936E6C32B491";
shapes = (
{
closed = 1;
nodes = (
(543,30,l),
(562,30,o),
(601,33,o),
(631,46,c),
(631,656,l),
(420,656,l),
(408,612,o),
(402,571,o),
(396,531,c),
(364,531,l),
(364,707,l),
(982,707,l),
(956,528,l),
(924,531,l),
(925,570,o),
(927,610,o),
(921,656,c),
(718,656,l),
(718,46,l),
(748,33,o),
(787,30,o),
(806,30,c),
(806,0,l),
(543,0,l)
);
},
{
closed = 1;
nodes = (
(124,1091,l),
(1222,1091,l),
(1222,-404,l),
(124,-404,l)
);
},
{
closed = 1;
nodes = (
(1142,-324,l),
(1142,1011,l),
(204,1011,l),
(204,-324,l)
);
},
{
closed = 1;
nodes = (
(1246,-428,l),
(1246,1115,l),
(100,1115,l),
(100,-428,l)
);
}
);
width = 1346;
}
);
},
{
glyphname = U.ss11;
lastChange = "2025-07-23 22:17:23 +0000";
layers = (
{
background = {
shapes = (
{
pos = (314,0);
ref = U;
}
);
};
layerId = "6D97EE47-94AA-478E-ABFB-936E6C32B491";
shapes = (
{
closed = 1;
nodes = (
(654,-14,o),
(527,18,o),
(477,134,cs),
(453,192,o),
(452,281,o),
(452,384,cs),
(452,661,l),
(422,674,o),
(383,677,o),
(364,677,c),
(364,707,l),
(627,707,l),
(627,677,l),
(608,677,o),
(569,674,o),
(539,661,c),
(539,389,ls),
(539,338,o),
(537,220,o),
(554,166,cs),
(577,97,o),
(649,39,o),
(744,39,cs),
(836,39,o),
(919,76,o),
(945,162,cs),
(961,218,o),
(957,305,o),
(957,400,cs),
(957,661,l),
(927,674,o),
(888,677,o),
(869,677,c),
(869,707,l),
(1103,707,l),
(1103,677,l),
(1084,677,o),
(1045,674,o),
(1015,661,c),
(1015,393,ls),
(1015,306,o),
(1018,199,o),
(998,139,cs),
(957,15,o),
(824,-14,o),
(734,-14,cs)
);
},
{
closed = 1;
nodes = (
(124,1091,l),
(1343,1091,l),
(1343,-404,l),
(124,-404,l)
);
},
{
closed = 1;
nodes = (
(1263,-324,l),
(1263,1011,l),
(204,1011,l),
(204,-324,l)
);
},
{
closed = 1;
nodes = (
(1367,-428,l),
(1367,1115,l),
(100,1115,l),
(100,-428,l)
);
}
);
width = 1467;
}
);
},
{
glyphname = V.ss11;
lastChange = "2025-07-23 22:17:23 +0000";
layers = (
{
background = {
shapes = (
{
pos = (360,0);
ref = V;
}
);
};
layerId = "6D97EE47-94AA-478E-ABFB-936E6C32B491";
shapes = (
{
closed = 1;
nodes = (
(124,1091,l),
(1325,1091,l),
(1325,-404,l),
(124,-404,l)
);
},
{
closed = 1;
nodes = (
(1245,-324,l),
(1245,1011,l),
(204,1011,l),
(204,-324,l)
);
},
{
closed = 1;
nodes = (
(1349,-428,l),
(1349,1115,l),
(100,1115,l),
(100,-428,l)
);
},
{
closed = 1;
nodes = (
(443,661,l),
(416,674,o),
(381,677,o),
(364,677,c),
(364,707,l),
(621,707,l),
(621,677,l),
(602,677,o),
(563,674,o),
(534,661,c),
(738,126,l),
(955,661,l),
(926,674,o),
(887,677,o),
(868,677,c),
(868,707,l),
(1085,707,l),
(1085,677,l),
(1070,677,o),
(1039,674,o),
(1015,661,c),
(742,-14,l),
(701,-14,l)
);
}
);
width = 1449;
}
);
},
{
glyphname = W.ss11;
lastChange = "2025-07-23 22:17:23 +0000";
layers = (
{
background = {
shapes = (
{
pos = (360,0);
ref = W;
}
);
};
layerId = "6D97EE47-94AA-478E-ABFB-936E6C32B491";
shapes = (
{
closed = 1;
nodes = (
(124,1091,l),
(1580,1091,l),
(1580,-404,l),
(124,-404,l)
);
},
{
closed = 1;
nodes = (
(1500,-324,l),
(1500,1011,l),
(204,1011,l),
(204,-324,l)
);
},
{
closed = 1;
nodes = (
(1604,-428,l),
(1604,1115,l),
(100,1115,l),
(100,-428,l)
);
},
{
closed = 1;
nodes = (
(440,661,l),
(414,674,o),
(380,677,o),
(364,677,c),
(364,707,l),
(616,707,l),
(616,677,l),
(597,677,o),
(558,674,o),
(528,661,c),
(668,143,l),
(863,622,l),
(904,622,l),
(1084,152,l),
(1211,661,l),
(1181,674,o),
(1142,677,o),
(1123,677,c),
(1123,707,l),
(1340,707,l),
(1340,677,l),
(1325,677,o),
(1294,674,o),
(1269,661,c),
(1100,-14,l),
(1059,-14,l),
(867,488,l),
(662,-14,l),
(621,-14,l)
);
}
);
width = 1704;
}
);
},
{
glyphname = X.ss11;
lastChange = "2025-07-23 22:17:23 +0000";
layers = (
{
background = {
shapes = (
{
pos = (360,0);
ref = X;
}
);
};
layerId = "6D97EE47-94AA-478E-ABFB-936E6C32B491";
shapes = (
{
closed = 1;
nodes = (
(124,1091,l),
(1271,1091,l),
(1271,-404,l),
(124,-404,l)
);
},
{
closed = 1;
nodes = (
(1191,-324,l),
(1191,1011,l),
(204,1011,l),
(204,-324,l)
);
},
{
closed = 1;
nodes = (
(1295,-428,l),
(1295,1115,l),
(100,1115,l),
(100,-428,l)
);
},
{
closed = 1;
nodes = (
(764,30,l),
(783,30,o),
(822,33,o),
(852,46,c),
(683,305,l),
(502,46,l),
(532,33,o),
(571,30,o),
(590,30,c),
(590,0,l),
(364,0,l),
(364,30,l),
(379,30,o),
(410,33,o),
(435,45,c),
(651,355,l),
(451,662,l),
(426,674,o),
(392,677,o),
(376,677,c),
(376,707,l),
(642,707,l),
(642,677,l),
(623,677,o),
(585,674,o),
(555,661,c),
(709,424,l),
(876,661,l),
(846,674,o),
(808,677,o),
(789,677,c),
(789,707,l),
(1013,707,l),
(1013,677,l),
(999,677,o),
(968,674,o),
(944,662,c),
(741,375,l),
(956,45,l),
(981,33,o),
(1014,30,o),
(1031,30,c),
(1031,0,l),
(764,0,l)
);
}
);
width = 1395;
}
);
},
{
glyphname = Y.ss11;
lastChange = "2025-07-23 22:17:23 +0000";
layers = (
{
background = {
shapes = (
{
pos = (360,0);
ref = Y;
}
);
};
layerId = "6D97EE47-94AA-478E-ABFB-936E6C32B491";
shapes = (
{
closed = 1;
nodes = (
(563,30,l),
(582,30,o),
(621,33,o),
(651,46,c),
(651,280,l),
(440,661,l),
(414,674,o),
(380,677,o),
(364,677,c),
(364,707,l),
(625,707,l),
(625,677,l),
(606,677,o),
(567,674,o),
(537,661,c),
(706,356,l),
(876,662,l),
(846,674,o),
(808,677,o),
(789,677,c),
(789,707,l),
(1009,707,l),
(1009,677,l),
(994,677,o),
(963,674,o),
(938,661,c),
(738,301,l),
(738,46,l),
(768,33,o),
(807,30,o),
(826,30,c),
(826,0,l),
(563,0,l)
);
},
{
closed = 1;
nodes = (
(124,1091,l),
(1249,1091,l),
(1249,-404,l),
(124,-404,l)
);
},
{
closed = 1;
nodes = (
(1169,-324,l),
(1169,1011,l),
(204,1011,l),
(204,-324,l)
);
},
{
closed = 1;
nodes = (
(1273,-428,l),
(1273,1115,l),
(100,1115,l),
(100,-428,l)
);
}
);
width = 1373;
}
);
},
{
glyphname = Z.ss11;
lastChange = "2025-07-23 22:17:23 +0000";
layers = (
{
background = {
shapes = (
{
pos = (339,0);
ref = Z;
}
);
};
layerId = "6D97EE47-94AA-478E-ABFB-936E6C32B491";
shapes = (
{
closed = 1;
nodes = (
(364,38,l),
(780,656,l),
(433,656,l),
(421,613,o),
(415,574,o),
(407,534,c),
(375,536,l),
(382,707,l),
(878,707,l),
(893,671,l),
(476,51,l),
(839,51,l),
(870,90,o),
(899,161,o),
(903,175,c),
(934,167,l),
(895,0,l),
(380,0,l)
);
},
{
closed = 1;
nodes = (
(124,1091,l),
(1174,1091,l),
(1174,-404,l),
(124,-404,l)
);
},
{
closed = 1;
nodes = (
(1094,-324,l),
(1094,1011,l),
(204,1011,l),
(204,-324,l)
);
},
{
closed = 1;
nodes = (
(1198,-428,l),
(1198,1115,l),
(100,1115,l),
(100,-428,l)
);
}
);
width = 1298;
}
);
},
{
glyphname = A.ss12;
lastChange = "2025-07-23 22:17:23 +0000";
layers = (
{
layerId = "6D97EE47-94AA-478E-ABFB-936E6C32B491";
shapes = (
{
closed = 1;
nodes = (
(124,1091,l),
(1368,1091,l),
(1368,-404,l),
(124,-404,l)
);
},
{
closed = 1;
nodes = (
(1288,-324,l),
(1288,1011,l),
(204,1011,l),
(204,-324,l)
);
},
{
closed = 1;
nodes = (
(228,987,l),
(1264,987,l),
(1264,-300,l),
(228,-300,l)
);
},
{
closed = 1;
nodes = (
(1392,-428,l),
(1392,1115,l),
(100,1115,l),
(100,-428,l)
);
},
{
pos = (384,0);
ref = A;
}
);
width = 1492;
}
);
},
{
glyphname = AE.ss12;
lastChange = "2025-07-23 22:17:23 +0000";
layers = (
{
layerId = "6D97EE47-94AA-478E-ABFB-936E6C32B491";
shapes = (
{
closed = 1;
nodes = (
(124,1091,l),
(1545,1091,l),
(1545,-404,l),
(124,-404,l)
);
},
{
closed = 1;
nodes = (
(1465,-324,l),
(1465,1011,l),
(204,1011,l),
(204,-324,l)
);
},
{
closed = 1;
nodes = (
(228,987,l),
(1441,987,l),
(1441,-300,l),
(228,-300,l)
);
},
{
closed = 1;
nodes = (
(1569,-428,l),
(1569,1115,l),
(100,1115,l),
(100,-428,l)
);
},
{
pos = (384,0);
ref = AE;
}
);
width = 1669;
}
);
},
{
glyphname = B.ss12;
lastChange = "2025-07-23 22:17:23 +0000";
layers = (
{
layerId = "6D97EE47-94AA-478E-ABFB-936E6C32B491";
shapes = (
{
closed = 1;
nodes = (
(124,1091,l),
(1203,1091,l),
(1203,-404,l),
(124,-404,l)
);
},
{
closed = 1;
nodes = (
(1123,-324,l),
(1123,1011,l),
(204,1011,l),
(204,-324,l)
);
},
{
closed = 1;
nodes = (
(228,987,l),
(1099,987,l),
(1099,-300,l),
(228,-300,l)
);
},
{
closed = 1;
nodes = (
(1227,-428,l),
(1227,1115,l),
(100,1115,l),
(100,-428,l)
);
},
{
pos = (338,0);
ref = B;
}
);
width = 1327;
}
);
},
{
glyphname = C.ss12;
lastChange = "2025-07-23 22:17:23 +0000";
layers = (
{
layerId = "6D97EE47-94AA-478E-ABFB-936E6C32B491";
shapes = (
{
closed = 1;
nodes = (
(124,1091,l),
(1317,1091,l),
(1317,-404,l),
(124,-404,l)
);
},
{
closed = 1;
nodes = (
(1237,-324,l),
(1237,1011,l),
(204,1011,l),
(204,-324,l)
);
},
{
closed = 1;
nodes = (
(228,987,l),
(1213,987,l),
(1213,-300,l),
(228,-300,l)
);
},
{
closed = 1;
nodes = (
(1341,-428,l),
(1341,1115,l),
(100,1115,l),
(100,-428,l)
);
},
{
pos = (338,0);
ref = C;
}
);
width = 1441;
}
);
},
{
glyphname = D.ss12;
lastChange = "2025-07-23 22:17:23 +0000";
layers = (
{
layerId = "6D97EE47-94AA-478E-ABFB-936E6C32B491";
shapes = (
{
closed = 1;
nodes = (
(124,1091,l),
(1382,1091,l),
(1382,-404,l),
(124,-404,l)
);
},
{
closed = 1;
nodes = (
(1302,-324,l),
(1302,1011,l),
(204,1011,l),
(204,-324,l)
);
},
{
closed = 1;
nodes = (
(228,987,l),
(1278,987,l),
(1278,-300,l),
(228,-300,l)
);
},
{
closed = 1;
nodes = (
(1406,-428,l),
(1406,1115,l),
(100,1115,l),
(100,-428,l)
);
},
{
pos = (338,0);
ref = D;
}
);
width = 1506;
}
);
},
{
glyphname = Eth.ss12;
lastChange = "2025-07-23 22:17:23 +0000";
layers = (
{
layerId = "6D97EE47-94AA-478E-ABFB-936E6C32B491";
shapes = (
{
closed = 1;
nodes = (
(124,1091,l),
(1382,1091,l),
(1382,-404,l),
(124,-404,l)
);
},
{
closed = 1;
nodes = (
(1302,-324,l),
(1302,1011,l),
(204,1011,l),
(204,-324,l)
);
},
{
closed = 1;
nodes = (
(228,987,l),
(1278,987,l),
(1278,-300,l),
(228,-300,l)
);
},
{
closed = 1;
nodes = (
(1406,-428,l),
(1406,1115,l),
(100,1115,l),
(100,-428,l)
);
},
{
pos = (334,0);
ref = Eth;
}
);
width = 1506;
}
);
},
{
glyphname = E.ss12;
lastChange = "2025-07-23 22:17:23 +0000";
layers = (
{
layerId = "6D97EE47-94AA-478E-ABFB-936E6C32B491";
shapes = (
{
closed = 1;
nodes = (
(124,1091,l),
(1175,1091,l),
(1175,-404,l),
(124,-404,l)
);
},
{
closed = 1;
nodes = (
(1095,-324,l),
(1095,1011,l),
(204,1011,l),
(204,-324,l)
);
},
{
closed = 1;
nodes = (
(228,987,l),
(1071,987,l),
(1071,-300,l),
(228,-300,l)
);
},
{
closed = 1;
nodes = (
(1199,-428,l),
(1199,1115,l),
(100,1115,l),
(100,-428,l)
);
},
{
pos = (338,0);
ref = E;
}
);
width = 1299;
}
);
},
{
glyphname = F.ss12;
lastChange = "2025-07-23 22:17:23 +0000";
layers = (
{
layerId = "6D97EE47-94AA-478E-ABFB-936E6C32B491";
shapes = (
{
closed = 1;
nodes = (
(124,1091,l),
(1122,1091,l),
(1122,-404,l),
(124,-404,l)
);
},
{
closed = 1;
nodes = (
(1042,-324,l),
(1042,1011,l),
(204,1011,l),
(204,-324,l)
);
},
{
closed = 1;
nodes = (
(228,987,l),
(1018,987,l),
(1018,-300,l),
(228,-300,l)
);
},
{
closed = 1;
nodes = (
(1146,-428,l),
(1146,1115,l),
(100,1115,l),
(100,-428,l)
);
},
{
pos = (338,0);
ref = F;
}
);
width = 1246;
}
);
},
{
glyphname = G.ss12;
lastChange = "2025-07-23 22:17:23 +0000";
layers = (
{
layerId = "6D97EE47-94AA-478E-ABFB-936E6C32B491";
shapes = (
{
closed = 1;
nodes = (
(124,1091,l),
(1361,1091,l),
(1361,-404,l),
(124,-404,l)
);
},
{
closed = 1;
nodes = (
(1281,-324,l),
(1281,1011,l),
(204,1011,l),
(204,-324,l)
);
},
{
closed = 1;
nodes = (
(228,987,l),
(1257,987,l),
(1257,-300,l),
(228,-300,l)
);
},
{
closed = 1;
nodes = (
(1385,-428,l),
(1385,1115,l),
(100,1115,l),
(100,-428,l)
);
},
{
pos = (338,0);
ref = G;
}
);
width = 1485;
}
);
},
{
glyphname = H.ss12;
lastChange = "2025-07-23 22:17:23 +0000";
layers = (
{
layerId = "6D97EE47-94AA-478E-ABFB-936E6C32B491";
shapes = (
{
closed = 1;
nodes = (
(124,1091,l),
(1402,1091,l),
(1402,-404,l),
(124,-404,l)
);
},
{
closed = 1;
nodes = (
(1322,-324,l),
(1322,1011,l),
(204,1011,l),
(204,-324,l)
);
},
{
closed = 1;
nodes = (
(228,987,l),
(1298,987,l),
(1298,-300,l),
(228,-300,l)
);
},
{
closed = 1;
nodes = (
(1426,-428,l),
(1426,1115,l),
(100,1115,l),
(100,-428,l)
);
},
{
pos = (338,0);
ref = H;
}
);
width = 1526;
}
);
},
{
glyphname = I.ss12;
lastChange = "2025-07-23 22:17:23 +0000";
layers = (
{
layerId = "6D97EE47-94AA-478E-ABFB-936E6C32B491";
shapes = (
{
closed = 1;
nodes = (
(124,1091,l),
(915,1091,l),
(915,-404,l),
(124,-404,l)
);
},
{
closed = 1;
nodes = (
(835,-324,l),
(835,1011,l),
(204,1011,l),
(204,-324,l)
);
},
{
closed = 1;
nodes = (
(228,987,l),
(811,987,l),
(811,-300,l),
(228,-300,l)
);
},
{
closed = 1;
nodes = (
(939,-428,l),
(939,1115,l),
(100,1115,l),
(100,-428,l)
);
},
{
pos = (338,0);
ref = I;
}
);
width = 1039;
}
);
},
{
glyphname = J.ss12;
lastChange = "2025-07-23 22:17:23 +0000";
layers = (
{
background = {
shapes = (
{
pos = (342,0);
ref = J;
}
);
};
layerId = "6D97EE47-94AA-478E-ABFB-936E6C32B491";
shapes = (
{
closed = 1;
nodes = (
(434,-171,o),
(563,-75,o),
(606,100,c),
(606,661,l),
(636,674,o),
(675,677,o),
(694,677,c),
(694,707,l),
(430,707,l),
(430,677,l),
(449,677,o),
(488,674,o),
(518,661,c),
(518,120,ls),
(518,94,o),
(515,67,o),
(508,41,cs),
(483,-54,o),
(425,-130,o),
(388,-163,c),
(410,-186,l)
);
},
{
closed = 1;
nodes = (
(124,1091,l),
(958,1091,l),
(958,-404,l),
(124,-404,l)
);
},
{
closed = 1;
nodes = (
(878,-324,l),
(878,1011,l),
(204,1011,l),
(204,-324,l)
);
},
{
closed = 1;
nodes = (
(228,987,l),
(854,987,l),
(854,-300,l),
(228,-300,l)
);
},
{
closed = 1;
nodes = (
(982,-428,l),
(982,1115,l),
(100,1115,l),
(100,-428,l)
);
}
);
width = 1082;
}
);
},
{
glyphname = K.ss12;
lastChange = "2025-07-23 22:17:23 +0000";
layers = (
{
layerId = "6D97EE47-94AA-478E-ABFB-936E6C32B491";
shapes = (
{
closed = 1;
nodes = (
(124,1091,l),
(1314,1091,l),
(1314,-404,l),
(124,-404,l)
);
},
{
closed = 1;
nodes = (
(1234,-324,l),
(1234,1011,l),
(204,1011,l),
(204,-324,l)
);
},
{
closed = 1;
nodes = (
(228,987,l),
(1210,987,l),
(1210,-300,l),
(228,-300,l)
);
},
{
closed = 1;
nodes = (
(1338,-428,l),
(1338,1115,l),
(100,1115,l),
(100,-428,l)
);
},
{
pos = (338,0);
ref = K;
}
);
width = 1438;
}
);
},
{
glyphname = L.ss12;
lastChange = "2025-07-23 22:17:23 +0000";
layers = (
{
layerId = "6D97EE47-94AA-478E-ABFB-936E6C32B491";
shapes = (
{
closed = 1;
nodes = (
(124,1091,l),
(1188,1091,l),
(1188,-404,l),
(124,-404,l)
);
},
{
closed = 1;
nodes = (
(1108,-324,l),
(1108,1011,l),
(204,1011,l),
(204,-324,l)
);
},
{
closed = 1;
nodes = (
(228,987,l),
(1084,987,l),
(1084,-300,l),
(228,-300,l)
);
},
{
closed = 1;
nodes = (
(1212,-428,l),
(1212,1115,l),
(100,1115,l),
(100,-428,l)
);
},
{
pos = (338,0);
ref = L;
}
);
width = 1312;
}
);
},
{
glyphname = M.ss12;
lastChange = "2025-07-23 22:17:23 +0000";
layers = (
{
layerId = "6D97EE47-94AA-478E-ABFB-936E6C32B491";
shapes = (
{
closed = 1;
nodes = (
(124,1091,l),
(1512,1091,l),
(1512,-404,l),
(124,-404,l)
);
},
{
closed = 1;
nodes = (
(1432,-324,l),
(1432,1011,l),
(204,1011,l),
(204,-324,l)
);
},
{
closed = 1;
nodes = (
(228,987,l),
(1408,987,l),
(1408,-300,l),
(228,-300,l)
);
},
{
closed = 1;
nodes = (
(1536,-428,l),
(1536,1115,l),
(100,1115,l),
(100,-428,l)
);
},
{
pos = (348,0);
ref = M;
}
);
width = 1636;
}
);
},
{
glyphname = N.ss12;
lastChange = "2025-07-23 22:17:23 +0000";
layers = (
{
layerId = "6D97EE47-94AA-478E-ABFB-936E6C32B491";
shapes = (
{
closed = 1;
nodes = (
(124,1091,l),
(1378,1091,l),
(1378,-404,l),
(124,-404,l)
);
},
{
closed = 1;
nodes = (
(1298,-324,l),
(1298,1011,l),
(204,1011,l),
(204,-324,l)
);
},
{
closed = 1;
nodes = (
(228,987,l),
(1274,987,l),
(1274,-300,l),
(228,-300,l)
);
},
{
closed = 1;
nodes = (
(1402,-428,l),
(1402,1115,l),
(100,1115,l),
(100,-428,l)
);
},
{
pos = (348,0);
ref = N;
}
);
width = 1502;
}
);
},
{
glyphname = O.ss12;
lastChange = "2025-07-23 22:17:23 +0000";
layers = (
{
layerId = "6D97EE47-94AA-478E-ABFB-936E6C32B491";
shapes = (
{
closed = 1;
nodes = (
(124,1091,l),
(1396,1091,l),
(1396,-404,l),
(124,-404,l)
);
},
{
closed = 1;
nodes = (
(1316,-324,l),
(1316,1011,l),
(204,1011,l),
(204,-324,l)
);
},
{
closed = 1;
nodes = (
(228,987,l),
(1292,987,l),
(1292,-300,l),
(228,-300,l)
);
},
{
closed = 1;
nodes = (
(1420,-428,l),
(1420,1115,l),
(100,1115,l),
(100,-428,l)
);
},
{
pos = (338,0);
ref = O;
}
);
width = 1520;
}
);
},
{
glyphname = OE.ss12;
lastChange = "2025-07-23 22:17:23 +0000";
layers = (
{
layerId = "6D97EE47-94AA-478E-ABFB-936E6C32B491";
shapes = (
{
closed = 1;
nodes = (
(124,1091,l),
(1625,1091,l),
(1625,-404,l),
(124,-404,l)
);
},
{
closed = 1;
nodes = (
(1545,-324,l),
(1545,1011,l),
(204,1011,l),
(204,-324,l)
);
},
{
closed = 1;
nodes = (
(228,987,l),
(1521,987,l),
(1521,-300,l),
(228,-300,l)
);
},
{
closed = 1;
nodes = (
(1649,-428,l),
(1649,1115,l),
(100,1115,l),
(100,-428,l)
);
},
{
pos = (338,0);
ref = OE;
}
);
width = 1749;
}
);
},
{
glyphname = P.ss12;
lastChange = "2025-07-23 22:17:23 +0000";
layers = (
{
layerId = "6D97EE47-94AA-478E-ABFB-936E6C32B491";
shapes = (
{
closed = 1;
nodes = (
(124,1091,l),
(1182,1091,l),
(1182,-404,l),
(124,-404,l)
);
},
{
closed = 1;
nodes = (
(1102,-324,l),
(1102,1011,l),
(204,1011,l),
(204,-324,l)
);
},
{
closed = 1;
nodes = (
(228,987,l),
(1078,987,l),
(1078,-300,l),
(228,-300,l)
);
},
{
closed = 1;
nodes = (
(1206,-428,l),
(1206,1115,l),
(100,1115,l),
(100,-428,l)
);
},
{
pos = (338,0);
ref = P;
}
);
width = 1306;
}
);
},
{
glyphname = Thorn.ss12;
lastChange = "2025-07-23 22:17:23 +0000";
layers = (
{
layerId = "6D97EE47-94AA-478E-ABFB-936E6C32B491";
shapes = (
{
closed = 1;
nodes = (
(124,1091,l),
(1141,1091,l),
(1141,-404,l),
(124,-404,l)
);
},
{
closed = 1;
nodes = (
(1061,-324,l),
(1061,1011,l),
(204,1011,l),
(204,-324,l)
);
},
{
closed = 1;
nodes = (
(228,987,l),
(1037,987,l),
(1037,-300,l),
(228,-300,l)
);
},
{
closed = 1;
nodes = (
(1165,-428,l),
(1165,1115,l),
(100,1115,l),
(100,-428,l)
);
},
{
pos = (338,0);
ref = Thorn;
}
);
width = 1265;
}
);
},
{
glyphname = Q.ss12;
lastChange = "2025-07-23 22:17:23 +0000";
layers = (
{
layerId = "6D97EE47-94AA-478E-ABFB-936E6C32B491";
shapes = (
{
closed = 1;
nodes = (
(124,1091,l),
(1456,1091,l),
(1456,-404,l),
(124,-404,l)
);
},
{
closed = 1;
nodes = (
(1376,-324,l),
(1376,1011,l),
(204,1011,l),
(204,-324,l)
);
},
{
closed = 1;
nodes = (
(228,987,l),
(1352,987,l),
(1352,-300,l),
(228,-300,l)
);
},
{
closed = 1;
nodes = (
(1480,-428,l),
(1480,1115,l),
(100,1115,l),
(100,-428,l)
);
},
{
pos = (338,0);
ref = Q;
}
);
width = 1580;
}
);
},
{
glyphname = R.ss12;
lastChange = "2025-07-23 22:17:23 +0000";
layers = (
{
layerId = "6D97EE47-94AA-478E-ABFB-936E6C32B491";
shapes = (
{
closed = 1;
nodes = (
(124,1091,l),
(1315,1091,l),
(1315,-404,l),
(124,-404,l)
);
},
{
closed = 1;
nodes = (
(1235,-324,l),
(1235,1011,l),
(204,1011,l),
(204,-324,l)
);
},
{
closed = 1;
nodes = (
(228,987,l),
(1211,987,l),
(1211,-300,l),
(228,-300,l)
);
},
{
closed = 1;
nodes = (
(1339,-428,l),
(1339,1115,l),
(100,1115,l),
(100,-428,l)
);
},
{
pos = (338,0);
ref = R;
}
);
width = 1439;
}
);
},
{
glyphname = S.ss12;
lastChange = "2025-07-23 22:17:23 +0000";
layers = (
{
layerId = "6D97EE47-94AA-478E-ABFB-936E6C32B491";
shapes = (
{
closed = 1;
nodes = (
(124,1091,l),
(1109,1091,l),
(1109,-404,l),
(124,-404,l)
);
},
{
closed = 1;
nodes = (
(1029,-324,l),
(1029,1011,l),
(204,1011,l),
(204,-324,l)
);
},
{
closed = 1;
nodes = (
(228,987,l),
(1005,987,l),
(1005,-300,l),
(228,-300,l)
);
},
{
closed = 1;
nodes = (
(1133,-428,l),
(1133,1115,l),
(100,1115,l),
(100,-428,l)
);
},
{
pos = (342,0);
ref = S;
}
);
width = 1233;
}
);
},
{
glyphname = T.ss12;
lastChange = "2025-07-23 22:17:23 +0000";
layers = (
{
layerId = "6D97EE47-94AA-478E-ABFB-936E6C32B491";
shapes = (
{
closed = 1;
nodes = (
(124,1091,l),
(1270,1091,l),
(1270,-404,l),
(124,-404,l)
);
},
{
closed = 1;
nodes = (
(1190,-324,l),
(1190,1011,l),
(204,1011,l),
(204,-324,l)
);
},
{
closed = 1;
nodes = (
(228,987,l),
(1166,987,l),
(1166,-300,l),
(228,-300,l)
);
},
{
closed = 1;
nodes = (
(1294,-428,l),
(1294,1115,l),
(100,1115,l),
(100,-428,l)
);
},
{
pos = (378,0);
ref = T;
}
);
width = 1394;
}
);
},
{
glyphname = U.ss12;
lastChange = "2025-07-23 22:17:23 +0000";
layers = (
{
layerId = "6D97EE47-94AA-478E-ABFB-936E6C32B491";
shapes = (
{
closed = 1;
nodes = (
(124,1091,l),
(1391,1091,l),
(1391,-404,l),
(124,-404,l)
);
},
{
closed = 1;
nodes = (
(1311,-324,l),
(1311,1011,l),
(204,1011,l),
(204,-324,l)
);
},
{
closed = 1;
nodes = (
(228,987,l),
(1287,987,l),
(1287,-300,l),
(228,-300,l)
);
},
{
closed = 1;
nodes = (
(1415,-428,l),
(1415,1115,l),
(100,1115,l),
(100,-428,l)
);
},
{
pos = (338,0);
ref = U;
}
);
width = 1515;
}
);
},
{
glyphname = V.ss12;
lastChange = "2025-07-23 22:17:23 +0000";
layers = (
{
layerId = "6D97EE47-94AA-478E-ABFB-936E6C32B491";
shapes = (
{
closed = 1;
nodes = (
(124,1091,l),
(1373,1091,l),
(1373,-404,l),
(124,-404,l)
);
},
{
closed = 1;
nodes = (
(1293,-324,l),
(1293,1011,l),
(204,1011,l),
(204,-324,l)
);
},
{
closed = 1;
nodes = (
(228,987,l),
(1269,987,l),
(1269,-300,l),
(228,-300,l)
);
},
{
closed = 1;
nodes = (
(1397,-428,l),
(1397,1115,l),
(100,1115,l),
(100,-428,l)
);
},
{
pos = (384,0);
ref = V;
}
);
width = 1497;
}
);
},
{
glyphname = W.ss12;
lastChange = "2025-07-23 22:17:23 +0000";
layers = (
{
layerId = "6D97EE47-94AA-478E-ABFB-936E6C32B491";
shapes = (
{
closed = 1;
nodes = (
(124,1091,l),
(1628,1091,l),
(1628,-404,l),
(124,-404,l)
);
},
{
closed = 1;
nodes = (
(1548,-324,l),
(1548,1011,l),
(204,1011,l),
(204,-324,l)
);
},
{
closed = 1;
nodes = (
(228,987,l),
(1524,987,l),
(1524,-300,l),
(228,-300,l)
);
},
{
closed = 1;
nodes = (
(1652,-428,l),
(1652,1115,l),
(100,1115,l),
(100,-428,l)
);
},
{
pos = (384,0);
ref = W;
}
);
width = 1752;
}
);
},
{
glyphname = X.ss12;
lastChange = "2025-07-23 22:17:23 +0000";
layers = (
{
layerId = "6D97EE47-94AA-478E-ABFB-936E6C32B491";
shapes = (
{
closed = 1;
nodes = (
(124,1091,l),
(1319,1091,l),
(1319,-404,l),
(124,-404,l)
);
},
{
closed = 1;
nodes = (
(1239,-324,l),
(1239,1011,l),
(204,1011,l),
(204,-324,l)
);
},
{
closed = 1;
nodes = (
(228,987,l),
(1215,987,l),
(1215,-300,l),
(228,-300,l)
);
},
{
closed = 1;
nodes = (
(1343,-428,l),
(1343,1115,l),
(100,1115,l),
(100,-428,l)
);
},
{
pos = (384,0);
ref = X;
}
);
width = 1443;
}
);
},
{
glyphname = Y.ss12;
lastChange = "2025-07-23 22:17:23 +0000";
layers = (
{
layerId = "6D97EE47-94AA-478E-ABFB-936E6C32B491";
shapes = (
{
closed = 1;
nodes = (
(124,1091,l),
(1297,1091,l),
(1297,-404,l),
(124,-404,l)
);
},
{
closed = 1;
nodes = (
(1217,-324,l),
(1217,1011,l),
(204,1011,l),
(204,-324,l)
);
},
{
closed = 1;
nodes = (
(228,987,l),
(1193,987,l),
(1193,-300,l),
(228,-300,l)
);
},
{
closed = 1;
nodes = (
(1321,-428,l),
(1321,1115,l),
(100,1115,l),
(100,-428,l)
);
},
{
pos = (384,0);
ref = Y;
}
);
width = 1421;
}
);
},
{
glyphname = Z.ss12;
lastChange = "2025-07-23 22:17:23 +0000";
layers = (
{
layerId = "6D97EE47-94AA-478E-ABFB-936E6C32B491";
shapes = (
{
closed = 1;
nodes = (
(124,1091,l),
(1222,1091,l),
(1222,-404,l),
(124,-404,l)
);
},
{
closed = 1;
nodes = (
(1142,-324,l),
(1142,1011,l),
(204,1011,l),
(204,-324,l)
);
},
{
closed = 1;
nodes = (
(228,987,l),
(1118,987,l),
(1118,-300,l),
(228,-300,l)
);
},
{
closed = 1;
nodes = (
(1246,-428,l),
(1246,1115,l),
(100,1115,l),
(100,-428,l)
);
},
{
pos = (363,0);
ref = Z;
}
);
width = 1346;
}
);
},
{
glyphname = T_T.liga;
kernLeft = T;
kernRight = T;
lastChange = "2025-07-23 22:17:23 +0000";
layers = (
{
layerId = "6D97EE47-94AA-478E-ABFB-936E6C32B491";
shapes = (
{
closed = 1;
nodes = (
(365,0,l),
(365,707,l),
(277,707,l),
(277,0,l)
);
},
{
closed = 1;
nodes = (
(42,531,l),
(50,586,o),
(59,643,o),
(82,707,c),
(10,707,l),
(10,531,l)
);
},
{
closed = 1;
nodes = (
(865,0,l),
(865,707,l),
(778,707,l),
(778,0,l)
);
},
{
closed = 1;
nodes = (
(580,531,l),
(588,586,o),
(597,643,o),
(620,707,c),
(548,707,l),
(548,531,l)
);
},
{
closed = 1;
nodes = (
(1101,656,l),
(1101,707,l),
(35,707,l),
(35,656,l)
);
},
{
closed = 1;
nodes = (
(1129,707,l),
(1058,707,l),
(1075,639,o),
(1073,584,o),
(1072,531,c),
(1103,528,l)
);
},
{
pos = (277,0);
ref = _serifuc;
scale = (-1,1);
},
{
pos = (365,0);
ref = _serifuc;
},
{
pos = (778,0);
ref = _serifuc;
scale = (-1,1);
},
{
pos = (865,0);
ref = _serifuc;
}
);
width = 1139;
}
);
metricLeft = T;
metricRight = T;
},
{
glyphname = T_h.liga;
kernLeft = T;
kernRight = h;
lastChange = "2025-07-23 22:17:23 +0000";
layers = (
{
background = {
shapes = (
{
closed = 1;
nodes = (
(2181,0,l),
(2181,37,o),
(2181,215,o),
(2181,314,cs),
(2181,374,o),
(2168,419,o),
(2117,447,cs),
(2098,458,o),
(2076,464,o),
(2052,464,cs),
(1980,464,o),
(1892,391,o),
(1854,364,c),
(1870,332,l),
(1899,354,o),
(1956,402,o),
(2004,402,cs),
(2026,402,o),
(2046,398,o),
(2060,387,cs),
(2098,358,o),
(2100,327,o),
(2100,276,cs),
(2100,203,o),
(2100,44,o),
(2100,0,c)
);
},
{
closed = 1;
nodes = (
(1242,531,l),
(1250,586,o),
(1259,643,o),
(1282,707,c),
(1210,707,l),
(1210,531,l)
);
},
{
closed = 1;
nodes = (
(1563,0,l),
(1563,707,l),
(1475,707,l),
(1475,0,l)
);
},
{
closed = 1;
nodes = (
(1853,656,l),
(1853,707,l),
(1235,707,l),
(1235,656,l)
);
},
{
closed = 1;
nodes = (
(1881,0,l),
(1881,789,l),
(1800,765,l),
(1800,0,l)
);
},
{
closed = 1;
nodes = (
(681,1000,l),
(681,1752,l),
(661,1766,l),
(600,1715,l),
(600,1000,l)
);
},
{
pos = (493,0);
ref = h;
},
{
pos = (493,1000);
ref = h;
}
);
};
layerId = "6D97EE47-94AA-478E-ABFB-936E6C32B491";
shapes = (
{
closed = 1;
nodes = (
(42,531,l),
(50,586,o),
(59,643,o),
(82,707,c),
(10,707,l),
(10,531,l)
);
},
{
closed = 1;
nodes = (
(363,0,l),
(363,707,l),
(275,707,l),
(275,0,l)
);
},
{
closed = 1;
nodes = (
(653,656,l),
(653,707,l),
(35,707,l),
(35,656,l)
);
},
{
closed = 1;
nodes = (
(681,0,l),
(681,789,l),
(600,765,l),
(600,0,l)
);
},
{
closed = 1;
nodes = (
(981,0,l),
(981,314,ls),
(981,374,o),
(964,409,o),
(940,431,cs),
(909,459,o),
(876,464,o),
(852,464,cs),
(779,464,o),
(692,391,o),
(653,364,c),
(670,332,l),
(698,354,o),
(751,402,o),
(815,402,cs),
(845,402,o),
(871,390,o),
(886,366,cs),
(899,344,o),
(900,322,o),
(900,289,cs),
(900,0,l)
);
},
{
pos = (275,0);
ref = _serifuc;
scale = (-1,1);
},
{
pos = (363,0);
ref = _serifuc;
},
{
pos = (600,0);
ref = _seriflc;
scale = (-1,1);
},
{
pos = (681,0);
ref = _seriflc;
},
{
pos = (900,0);
ref = _seriflc;
scale = (-1,1);
},
{
pos = (981,0);
ref = _seriflc;
}
);
width = 1082;
}
);
metricLeft = T;
metricRight = h;
},
{
glyphname = a;
kernLeft = a;
kernRight = a;
lastChange = "2025-07-23 22:17:23 +0000";
layers = (
{
anchors = (
{
name = BOTTOM;
pos = (222,0);
},
{
name = TOP;
pos = (211,456);
}
);
background = {
shapes = (
{
closed = 1;
nodes = (
(1391,-9,o),
(1431,19,o),
(1474,44,c),
(1479,14,o),
(1501,-9,o),
(1533,-9,cs),
(1570,-9,o),
(1597,4,o),
(1621,21,c),
(1609,47,l),
(1594,42,o),
(1576,38,o),
(1562,47,cs),
(1548,57,o),
(1549,73,o),
(1549,106,cs),
(1549,132,o),
(1549,319,o),
(1549,362,cs),
(1549,417,o),
(1524,446,o),
(1471,459,cs),
(1418,472,o),
(1352,453,o),
(1321,432,cs),
(1262,392,o),
(1249,322,o),
(1255,298,c),
(1335,330,l),
(1331,356,o),
(1337,377,o),
(1352,394,cs),
(1359,402,o),
(1372,412,o),
(1386,416,cs),
(1407,421,o),
(1433,419,o),
(1448,406,cs),
(1468,390,o),
(1470,377,o),
(1470,329,cs),
(1470,305,o),
(1470,268,o),
(1470,261,c),
(1415,242,o),
(1269,190,o),
(1246,178,c),
(1231,149,o),
(1228,96,o),
(1239,65,cs),
(1253,26,o),
(1292,-9,o),
(1352,-9,cs)
);
},
{
closed = 1;
nodes = (
(1307,87,o),
(1308,141,o),
(1314,152,cs),
(1319,161,o),
(1409,196,o),
(1470,217,c),
(1470,187,o),
(1470,117,o),
(1470,79,c),
(1402,46,o),
(1365,49,o),
(1343,64,cs)
);
},
{
closed = 1;
nodes = (
(797,-8,o),
(831,20,o),
(874,45,c),
(879,15,o),
(901,-8,o),
(933,-8,cs),
(970,-8,o),
(997,5,o),
(1021,22,c),
(1009,48,l),
(1000,45,o),
(991,43,o),
(982,43,cs),
(975,43,o),
(968,44,o),
(962,48,cs),
(948,58,o),
(949,74,o),
(949,107,cs),
(949,363,ls),
(949,432,o),
(902,464,o),
(833,464,cs),
(736,464,o),
(652,405,o),
(655,299,c),
(735,331,l),
(727,381,o),
(760,420,o),
(808,420,cs),
(834,420,o),
(852,407,o),
(860,394,cs),
(869,379,o),
(870,365,o),
(870,339,cs),
(870,262,l),
(815,243,o),
(669,191,o),
(646,179,c),
(637,162,o),
(632,136,o),
(632,111,cs),
(632,40,o),
(682,-8,o),
(752,-8,cs)
);
},
{
closed = 1;
nodes = (
(730,54,o),
(700,97,o),
(714,156,c),
(730,165,o),
(809,197,o),
(870,218,c),
(870,80,l),
(832,61,o),
(803,54,o),
(782,54,cs)
);
},
{
closed = 1;
nodes = (
(197,-8,o),
(231,20,o),
(274,45,c),
(279,15,o),
(301,-8,o),
(337,-8,cs),
(370,-8,o),
(397,5,o),
(421,22,c),
(409,48,l),
(400,45,o),
(391,43,o),
(382,43,cs),
(375,43,o),
(368,44,o),
(362,48,cs),
(348,58,o),
(349,74,o),
(349,107,cs),
(349,363,ls),
(349,432,o),
(302,464,o),
(233,464,cs),
(136,464,o),
(52,405,o),
(55,299,c),
(135,331,l),
(127,381,o),
(160,420,o),
(208,420,cs),
(234,420,o),
(252,407,o),
(260,394,cs),
(269,379,o),
(270,365,o),
(270,339,cs),
(270,262,l),
(215,243,o),
(69,191,o),
(46,179,c),
(37,162,o),
(32,136,o),
(32,111,cs),
(32,40,o),
(82,-8,o),
(152,-8,cs)
);
},
{
closed = 1;
nodes = (
(130,54,o),
(100,97,o),
(114,156,c),
(130,165,o),
(209,197,o),
(270,218,c),
(270,80,l),
(232,61,o),
(203,54,o),
(182,54,cs)
);
}
);
};
layerId = "6D97EE47-94AA-478E-ABFB-936E6C32B491";
shapes = (
{
closed = 1;
nodes = (
(197,-8,o),
(231,20,o),
(274,45,c),
(279,15,o),
(301,-8,o),
(337,-8,cs),
(370,-8,o),
(397,5,o),
(421,22,c),
(409,48,l),
(397,44,o),
(375,39,o),
(362,48,cs),
(348,58,o),
(349,69,o),
(349,107,cs),
(349,363,ls),
(349,432,o),
(302,464,o),
(233,464,cs),
(136,464,o),
(52,405,o),
(55,299,c),
(135,331,l),
(127,381,o),
(160,420,o),
(208,420,cs),
(234,420,o),
(252,407,o),
(260,394,cs),
(269,379,o),
(270,365,o),
(270,339,cs),
(270,262,l),
(215,243,o),
(69,191,o),
(46,179,c),
(37,162,o),
(32,136,o),
(32,111,cs),
(32,40,o),
(82,-8,o),
(152,-8,cs)
);
},
{
closed = 1;
nodes = (
(130,54,o),
(100,97,o),
(114,156,c),
(130,165,o),
(209,197,o),
(270,218,c),
(270,80,l),
(232,61,o),
(203,54,o),
(182,54,cs)
);
}
);
width = 443;
}
);
metricRight = "=n";
unicode = 97;
},
{
glyphname = ae;
kernLeft = a;
kernRight = ae;
lastChange = "2025-07-23 22:17:23 +0000";
layers = (
{
background = {
shapes = (
{
closed = 1;
nodes = (
(490,-45,o),
(596,30,o),
(637,90,c),
(616,108,l),
(576,72,o),
(503,42,o),
(428,89,cs),
(326,153,o),
(311,344,o),
(416,400,cs),
(484,436,o),
(549,401,o),
(549,342,c),
(334,268,l),
(334,224,l),
(638,317,l),
(646,394,o),
(574,463,o),
(488,464,cs),
(441,464,o),
(388,444,o),
(348,406,cs),
(329,388,o),
(312,365,o),
(298,338,c),
(304,303,l),
(296,258,l),
(270,221,l),
(268,144,o),
(298,54,o),
(382,11,cs)
);
},
{
closed = 1;
nodes = (
(109,88,o),
(110,131,o),
(116,142,cs),
(122,151,o),
(213,187,o),
(273,207,c),
(273,177,o),
(302,133,o),
(302,96,c),
(225,57,o),
(179,43,o),
(145,65,cs)
);
},
{
closed = 1;
nodes = (
(200,-9,o),
(283,38,o),
(326,64,c),
(321,128,l),
(321,287,l),
(348,362,l),
(348,417,o),
(323,446,o),
(269,459,cs),
(217,472,o),
(151,453,o),
(120,432,cs),
(61,392,o),
(48,322,o),
(54,298,c),
(134,330,l),
(129,356,o),
(136,377,o),
(151,394,cs),
(158,402,o),
(171,412,o),
(184,416,cs),
(206,421,o),
(232,419,o),
(247,406,cs),
(267,390,o),
(268,377,o),
(268,329,cs),
(268,305,o),
(268,257,o),
(268,250,c),
(213,231,o),
(68,179,o),
(44,167,c),
(31,153,o),
(29,92,o),
(38,65,cs),
(49,26,o),
(91,-9,o),
(151,-9,cs)
);
},
{
closed = 1;
nodes = (
(299,1017,l),
(349,1163,l),
(349,1232,o),
(302,1264,o),
(233,1264,cs),
(136,1264,o),
(52,1205,o),
(55,1099,c),
(135,1131,l),
(127,1181,o),
(160,1220,o),
(208,1220,cs),
(234,1220,o),
(252,1207,o),
(260,1194,cs),
(269,1179,o),
(270,1165,o),
(270,1139,cs),
(270,1061,l),
(215,1042,o),
(69,990,o),
(46,978,c),
(37,961,o),
(32,935,o),
(32,910,cs),
(32,839,o),
(82,791,o),
(152,791,cs),
(197,791,o),
(282,841,o),
(325,866,c),
(349,906,l)
);
},
{
closed = 1;
nodes = (
(130,853,o),
(100,896,o),
(114,955,c),
(130,964,o),
(209,996,o),
(270,1017,c),
(283,1021,l),
(305,896,l),
(270,879,l),
(232,860,o),
(203,853,o),
(182,853,cs)
);
},
{
closed = 1;
nodes = (
(271,896,o),
(350,792,o),
(462,792,cs),
(539,792,o),
(606,846,o),
(637,891,c),
(616,909,l),
(591,886,o),
(552,865,o),
(507,865,cs),
(412,865,o),
(344,954,o),
(344,1059,cs),
(344,1138,o),
(390,1212,o),
(461,1212,cs),
(512,1212,o),
(549,1193,o),
(549,1143,c),
(334,1069,l),
(334,1025,l),
(638,1118,l),
(647,1202,o),
(565,1264,o),
(485,1264,cs),
(367,1264,o),
(271,1161,o),
(271,1015,cs)
);
}
);
};
layerId = "6D97EE47-94AA-478E-ABFB-936E6C32B491";
shapes = (
{
closed = 1;
nodes = (
(299,217,l),
(349,363,l),
(349,432,o),
(302,464,o),
(233,464,cs),
(136,464,o),
(52,405,o),
(55,299,c),
(135,331,l),
(127,381,o),
(160,420,o),
(208,420,cs),
(234,420,o),
(252,407,o),
(260,394,cs),
(269,379,o),
(270,365,o),
(270,339,cs),
(270,253,l),
(215,234,o),
(69,182,o),
(46,170,c),
(37,153,o),
(32,135,o),
(32,110,cs),
(32,39,o),
(82,-9,o),
(152,-9,cs),
(208,-9,o),
(282,40,o),
(325,69,c),
(349,106,l)
);
},
{
closed = 1;
nodes = (
(130,53,o),
(100,88,o),
(114,147,c),
(130,156,o),
(209,188,o),
(270,209,c),
(283,213,l),
(305,95,l),
(246,65,o),
(213,53,o),
(182,53,cs)
);
},
{
closed = 1;
nodes = (
(271,96,o),
(350,-8,o),
(462,-8,cs),
(539,-8,o),
(606,46,o),
(637,91,c),
(616,109,l),
(591,86,o),
(552,65,o),
(507,65,cs),
(412,65,o),
(343,154,o),
(343,259,cs),
(343,338,o),
(390,414,o),
(459,414,cs),
(495,414,o),
(539,394,o),
(551,344,c),
(334,270,l),
(334,227,l),
(638,320,l),
(644,404,o),
(567,464,o),
(485,464,cs),
(367,464,o),
(271,361,o),
(271,215,cs)
);
}
);
width = 660;
}
);
metricLeft = a;
metricRight = e;
unicode = 230;
},
{
glyphname = b;
kernLeft = b;
kernRight = o;
lastChange = "2025-07-23 22:17:23 +0000";
layers = (
{
background = {
shapes = (
{
closed = 1;
nodes = (
(-117,-8,o),
(-6,111,o),
(-6,261,cs),
(-6,365,o),
(-73,464,o),
(-169,464,cs),
(-224,464,o),
(-285,428,o),
(-335,372,c),
(-335,331,l),
(-301,366,o),
(-256,395,o),
(-212,395,cs),
(-136,395,o),
(-81,308,o),
(-81,215,cs),
(-81,117,o),
(-138,42,o),
(-229,42,cs),
(-274,42,o),
(-315,64,o),
(-335,99,c),
(-405,23,l),
(-358,-2,o),
(-319,-8,o),
(-271,-8,cs)
);
},
{
closed = 1;
nodes = (
(-324,23,l),
(-324,775,l),
(-405,704,l),
(-405,23,l)
);
},
{
closed = 1;
nodes = (
(383,-8,o),
(494,111,o),
(494,261,cs),
(494,369,o),
(432,464,o),
(331,464,cs),
(276,464,o),
(215,428,o),
(165,372,c),
(165,331,l),
(199,366,o),
(244,395,o),
(288,395,cs),
(365,395,o),
(419,309,o),
(419,215,cs),
(419,117,o),
(362,42,o),
(271,42,cs),
(226,42,o),
(185,64,o),
(165,99,c),
(165,-1,l),
(186,-6,o),
(207,-8,o),
(229,-8,cs)
);
}
);
};
layerId = "6D97EE47-94AA-478E-ABFB-936E6C32B491";
shapes = (
{
closed = 1;
nodes = (
(383,-8,o),
(494,111,o),
(494,261,cs),
(494,369,o),
(432,464,o),
(331,464,cs),
(276,464,o),
(215,428,o),
(165,372,c),
(165,331,l),
(199,366,o),
(244,395,o),
(288,395,cs),
(365,395,o),
(419,309,o),
(419,215,cs),
(419,122,o),
(355,42,o),
(271,42,cs),
(226,42,o),
(185,64,o),
(165,99,c),
(95,23,l),
(142,-2,o),
(181,-8,o),
(229,-8,cs)
);
},
{
closed = 1;
nodes = (
(176,23,l),
(176,775,l),
(95,704,l),
(95,23,l)
);
},
{
pos = (24,0);
ref = _seriflcascender;
}
);
width = 518;
}
);
metricLeft = "=n-2";
metricRight = o;
unicode = 98;
},
{
glyphname = c;
kernLeft = o;
kernRight = c;
lastChange = "2025-07-23 22:17:23 +0000";
layers = (
{
anchors = (
{
name = BOTTOM;
pos = (240,0);
},
{
name = TOP;
pos = (240,456);
}
);
background = {
shapes = (
{
closed = 1;
nodes = (
(307,-9,o),
(376,30,o),
(405,73,c),
(384,92,l),
(362,72,o),
(330,59,o),
(295,59,cs),
(264,59,o),
(230,66,o),
(195,88,cs),
(138,124,o),
(110,186,o),
(110,261,cs),
(110,318,o),
(132,373,o),
(177,399,c),
(241,433,o),
(310,398,o),
(350,337,c),
(412,396,l),
(394,424,o),
(350,464,o),
(257,464,cs),
(209,464,o),
(164,447,o),
(129,421,cs),
(75,381,o),
(34,311,o),
(34,221,cs),
(34,138,o),
(68,53,o),
(151,11,cs),
(178,-3,o),
(207,-9,o),
(235,-9,cs)
);
}
);
};
layerId = "6D97EE47-94AA-478E-ABFB-936E6C32B491";
shapes = (
{
closed = 1;
nodes = (
(307,-8,o),
(376,31,o),
(405,74,c),
(384,93,l),
(362,73,o),
(330,60,o),
(295,60,cs),
(187,60,o),
(110,143,o),
(110,262,cs),
(110,341,o),
(154,412,o),
(229,412,cs),
(276,412,o),
(321,382,o),
(350,337,c),
(412,396,l),
(394,424,o),
(350,464,o),
(257,464,cs),
(132,464,o),
(34,357,o),
(34,222,cs),
(34,96,o),
(116,-8,o),
(235,-8,cs)
);
}
);
width = 434;
}
);
metricLeft = o;
metricRight = "=o-2";
unicode = 99;
},
{
glyphname = d;
kernLeft = o;
kernRight = d;
lastChange = "2025-07-23 22:17:23 +0000";
layers = (
{
background = {
shapes = (
{
closed = 1;
nodes = (
(285,-8,o),
(323,27,o),
(370,84,c),
(370,127,l),
(339,79,o),
(300,62,o),
(263,62,cs),
(171,62,o),
(107,149,o),
(107,249,cs),
(107,347,o),
(166,412,o),
(254,412,cs),
(302,412,o),
(345,387,o),
(370,342,c),
(370,442,l),
(337,457,o),
(306,464,o),
(275,464,cs),
(144,464,o),
(34,339,o),
(34,202,cs),
(34,82,o),
(109,-8,o),
(217,-8,cs)
);
},
{
closed = 1;
nodes = (
(440,66,l),
(440,775,l),
(359,704,l),
(359,67,ls),
(359,44,o),
(361,7,o),
(406,-8,c)
);
}
);
};
layerId = "6D97EE47-94AA-478E-ABFB-936E6C32B491";
shapes = (
{
closed = 1;
nodes = (
(285,-8,o),
(323,27,o),
(370,84,c),
(370,127,l),
(339,79,o),
(300,62,o),
(263,62,cs),
(171,62,o),
(107,148,o),
(107,249,cs),
(107,347,o),
(167,412,o),
(254,412,cs),
(302,412,o),
(345,387,o),
(370,342,c),
(370,442,l),
(337,457,o),
(306,464,o),
(275,464,cs),
(144,464,o),
(34,339,o),
(34,202,cs),
(34,82,o),
(109,-8,o),
(217,-8,cs)
);
},
{
closed = 1;
nodes = (
(440,66,l),
(440,775,l),
(359,704,l),
(359,67,ls),
(359,44,o),
(361,7,o),
(406,-8,c)
);
},
{
pos = (288,0);
ref = _seriflcascender;
},
{
pos = (406,0);
ref = _seriflcbottom;
}
);
width = 551;
}
);
metricLeft = o;
metricRight = n;
unicode = 100;
},
{
glyphname = dcroat;
kernLeft = o;
kernRight = d;
lastChange = "2025-07-23 22:17:23 +0000";
layers = (
{
layerId = "6D97EE47-94AA-478E-ABFB-936E6C32B491";
shapes = (
{
closed = 1;
nodes = (
(529,558,l),
(529,596,l),
(229,596,l),
(229,558,l)
);
},
{
ref = d;
}
);
width = 541;
}
);
unicode = 273;
},
{
glyphname = eth;
kernLeft = o;
kernRight = o;
lastChange = "2025-08-04 14:14:59 +0000";
layers = (
{
background = {
shapes = (
{
pos = (-700,0);
ref = o;
},
{
closed = 1;
nodes = (
(394,-8,o),
(489,94,o),
(496,231,cs),
(503,369,o),
(453,493,o),
(394,572,cs),
(318,673,o),
(190,738,o),
(77,770,c),
(65,737,l),
(182,697,o),
(281,629,o),
(329,551,cs),
(372,480,o),
(409,382,o),
(409,254,cs),
(409,137,o),
(374,36,o),
(282,36,cs),
(190,36,o),
(122,147,o),
(122,254,cs),
(122,342,o),
(171,421,o),
(248,421,cs),
(330,421,o),
(420,322,o),
(429,243,c),
(468,328,l),
(427,409,o),
(354,464,o),
(263,464,cs),
(135,464,o),
(34,355,o),
(34,226,cs),
(34,96,o),
(138,-8,o),
(266,-8,cs)
);
},
{
closed = 1;
nodes = (
(440,671,l),
(422,704,l),
(168,580,l),
(186,547,l)
);
}
);
};
guides = (
{
angle = 26;
pos = (530,715);
},
{
angle = 26;
pos = (538,761);
}
);
layerId = "6D97EE47-94AA-478E-ABFB-936E6C32B491";
shapes = (
{
closed = 1;
nodes = (
(394,-8,o),
(489,94,o),
(496,231,cs),
(503,369,o),
(453,493,o),
(394,572,cs),
(318,673,o),
(190,738,o),
(77,770,c),
(65,737,l),
(182,697,o),
(281,629,o),
(329,551,cs),
(372,480,o),
(409,382,o),
(409,264,cs),
(409,137,o),
(374,36,o),
(282,36,cs),
(190,36,o),
(122,147,o),
(122,254,cs),
(122,342,o),
(171,421,o),
(248,421,cs),
(330,421,o),
(420,322,o),
(429,243,c),
(468,328,l),
(427,409,o),
(354,464,o),
(263,464,cs),
(135,464,o),
(34,355,o),
(34,226,cs),
(34,96,o),
(138,-8,o),
(266,-8,cs)
);
},
{
closed = 1;
nodes = (
(440,671,l),
(422,704,l),
(168,580,l),
(186,547,l)
);
}
);
width = 521;
}
);
metricLeft = o;
metricRight = o;
unicode = 240;
},
{
glyphname = e;
kernLeft = o;
kernRight = e;
lastChange = "2025-07-23 22:31:52 +0000";
layers = (
{
anchors = (
{
name = BOTTOM;
pos = (230,0);
},
{
name = TOP;
pos = (232,456);
}
);
background = {
shapes = (
{
closed = 1;
nodes = (
(254,-45,o),
(359,30,o),
(400,90,c),
(379,108,l),
(339,72,o),
(266,41,o),
(190,88,cs),
(88,152,o),
(74,344,o),
(180,400,cs),
(248,436,o),
(318,381,o),
(318,317,c),
(103,300,l),
(103,261,l),
(407,277,l),
(419,389,o),
(338,463,o),
(252,464,cs),
(205,464,o),
(152,444,o),
(112,406,cs),
(69,366,o),
(36,300,o),
(34,221,cs),
(32,144,o),
(62,54,o),
(146,11,cs)
);
}
);
};
layerId = "6D97EE47-94AA-478E-ABFB-936E6C32B491";
shapes = (
{
closed = 1;
nodes = (
(34,96,o),
(113,-8,o),
(225,-8,cs),
(302,-8,o),
(369,46,o),
(400,91,c),
(379,109,l),
(354,86,o),
(315,65,o),
(270,65,cs),
(175,65,o),
(107,154,o),
(107,259,cs),
(107,338,o),
(153,412,o),
(224,412,cs),
(275,412,o),
(318,368,o),
(318,318,c),
(103,301,l),
(103,262,l),
(407,278,l),
(418,380,o),
(348,464,o),
(248,464,cs),
(130,465,o),
(34,361,o),
(34,215,cs)
);
}
);
width = 430;
}
);
metricLeft = o;
metricRight = c;
unicode = 101;
},
{
glyphname = eogonek;
kernLeft = o;
kernRight = e;
lastChange = "2025-07-23 22:17:23 +0000";
layers = (
{
layerId = "6D97EE47-94AA-478E-ABFB-936E6C32B491";
shapes = (
{
closed = 1;
nodes = (
(289,0,l),
(308,18,l),
(291,30,l),
(250,0,l)
);
},
{
pos = (137,0);
ref = ogonekcomb;
},
{
ref = e;
}
);
width = 430;
}
);
metricLeft = e;
metricRight = e;
unicode = 281;
},
{
glyphname = schwa;
kernLeft = o;
kernRight = o;
lastChange = "2025-08-13 23:22:21 +0000";
layers = (
{
background = {
shapes = (
{
closed = 1;
nodes = (
(250,-8,o),
(289,12,o),
(329,50,cs),
(373,91,o),
(407,160,o),
(407,242,cs),
(407,363,o),
(326,465,o),
(216,465,cs),
(139,465,o),
(72,411,o),
(41,366,c),
(62,348,l),
(87,371,o),
(128,394,o),
(173,394,cs),
(272,394,o),
(334,305,o),
(334,198,cs),
(334,117,o),
(287,45,o),
(217,45,cs),
(164,45,o),
(119,91,o),
(123,149,c),
(338,166,l),
(338,205,l),
(34,189,l),
(19,81,o),
(91,-8,o),
(189,-8,cs)
);
}
);
};
layerId = "6D97EE47-94AA-478E-ABFB-936E6C32B491";
shapes = (
{
alignment = -1;
angle = 180;
pos = (442,456);
ref = e;
}
);
width = 432;
}
);
metricRight = o;
unicode = 601;
},
{
glyphname = f;
kernLeft = f;
kernRight = f;
lastChange = "2025-11-02 01:00:38 +0000";
layers = (
{
background = {
shapes = (
{
closed = 1;
nodes = (
(188,0,l),
(188,481,ls),
(188,594,o),
(190,653,o),
(225,692,cs),
(248,718,o),
(279,730,o),
(310,730,cs),
(344,730,o),
(382,709,o),
(408,681,c),
(474,745,l),
(447,772,o),
(401,789,o),
(351,789,cs),
(297,789,o),
(239,770,o),
(189,722,cs),
(110,646,o),
(107,540,o),
(107,448,cs),
(107,0,l)
);
}
);
};
layerId = "6D97EE47-94AA-478E-ABFB-936E6C32B491";
shapes = (
{
alignment = -1;
pos = (42,0);
ref = _fbarleft;
},
{
alignment = -1;
pos = (178,0);
ref = _fbarright;
},
{
alignment = -1;
pos = (28,0);
ref = _f0;
}
);
width = 364;
}
);
unicode = 102;
},
{
glyphname = g;
kernLeft = g;
kernRight = g;
lastChange = "2025-07-23 22:17:23 +0000";
layers = (
{
anchors = (
{
name = TOP;
pos = (223,456);
}
);
background = {
shapes = (
{
closed = 1;
nodes = (
(-745,-312,o),
(-621,-232,o),
(-621,-122,cs),
(-621,-33,o),
(-714,15,o),
(-795,15,cs),
(-830,15,o),
(-855,13,o),
(-877,14,cs),
(-927,16,o),
(-961,26,o),
(-961,58,cs),
(-961,84,o),
(-915,127,o),
(-890,139,c),
(-935,152,l),
(-956,130,o),
(-1014,77,o),
(-1047,28,c),
(-1047,-16,o),
(-954,-37,o),
(-875,-44,cs),
(-790,-51,o),
(-702,-60,o),
(-702,-148,cs),
(-702,-222,o),
(-777,-264,o),
(-855,-264,cs),
(-920,-264,o),
(-990,-233,o),
(-990,-166,cs),
(-990,-123,o),
(-967,-80,o),
(-902,-36,c),
(-941,-24,l),
(-992,-62,o),
(-1080,-118,o),
(-1080,-187,cs),
(-1080,-274,o),
(-972,-312,o),
(-871,-312,cs)
);
},
{
closed = 1;
nodes = (
(-791,116,o),
(-712,194,o),
(-712,292,cs),
(-712,383,o),
(-786,464,o),
(-884,464,cs),
(-980,464,o),
(-1052,383,o),
(-1052,288,cs),
(-1052,194,o),
(-976,116,o),
(-882,116,cs)
);
},
{
closed = 1;
nodes = (
(-790,219,o),
(-820,162,o),
(-872,162,cs),
(-927,162,o),
(-974,230,o),
(-974,300,cs),
(-974,360,o),
(-945,416,o),
(-891,416,cs),
(-836,416,o),
(-790,345,o),
(-790,276,cs)
);
},
{
closed = 1;
nodes = (
(-614,415,l),
(-781,396,l),
(-759,352,l),
(-622,351,l)
);
},
{
closed = 1;
nodes = (
(4955,-312,o),
(5079,-232,o),
(5079,-122,cs),
(5079,-28,o),
(4986,11,o),
(4905,11,cs),
(4870,11,o),
(4836,10,o),
(4810,12,cs),
(4781,14,o),
(4726,19,o),
(4726,51,cs),
(4726,81,o),
(4758,109,o),
(4805,139,c),
(4775,152,l),
(4740,130,o),
(4653,84,o),
(4653,34,cs),
(4653,-21,o),
(4746,-52,o),
(4825,-60,cs),
(4910,-69,o),
(4998,-60,o),
(4998,-148,cs),
(4998,-222,o),
(4923,-264,o),
(4845,-264,cs),
(4780,-264,o),
(4711,-233,o),
(4711,-166,cs),
(4711,-123,o),
(4728,-80,o),
(4793,-36,c),
(4764,-24,l),
(4709,-59,o),
(4628,-105,o),
(4628,-183,cs),
(4628,-276,o),
(4728,-312,o),
(4829,-312,cs)
);
},
{
closed = 1;
nodes = (
(4909,116,o),
(4988,194,o),
(4988,292,cs),
(4988,383,o),
(4914,464,o),
(4816,464,cs),
(4720,464,o),
(4648,383,o),
(4648,288,cs),
(4648,194,o),
(4724,116,o),
(4818,116,cs)
);
},
{
closed = 1;
nodes = (
(4910,219,o),
(4880,162,o),
(4828,162,cs),
(4773,162,o),
(4726,230,o),
(4726,300,cs),
(4726,360,o),
(4755,416,o),
(4809,416,cs),
(4864,416,o),
(4910,345,o),
(4910,276,cs)
);
},
{
closed = 1;
nodes = (
(5086,415,l),
(4919,396,l),
(4941,352,l),
(5078,351,l)
);
},
{
closed = 1;
nodes = (
(4255,-312,o),
(4379,-232,o),
(4379,-122,cs),
(4379,-28,o),
(4295,1,o),
(4209,12,cs),
(4111,24,o),
(4026,17,o),
(4026,54,cs),
(4026,84,o),
(4058,109,o),
(4105,139,c),
(4075,152,l),
(4040,130,o),
(3953,84,o),
(3953,34,cs),
(3953,-8,o),
(4004,-35,o),
(4064,-48,cs),
(4112,-58,o),
(4159,-59,o),
(4195,-65,cs),
(4248,-73,o),
(4298,-83,o),
(4298,-148,cs),
(4298,-222,o),
(4223,-264,o),
(4145,-264,cs),
(4080,-264,o),
(4011,-233,o),
(4011,-166,cs),
(4011,-123,o),
(4028,-80,o),
(4093,-36,c),
(4064,-24,l),
(4009,-59,o),
(3928,-105,o),
(3928,-183,cs),
(3928,-276,o),
(4028,-312,o),
(4129,-312,cs)
);
},
{
closed = 1;
nodes = (
(4209,116,o),
(4288,194,o),
(4288,292,cs),
(4288,383,o),
(4214,464,o),
(4116,464,cs),
(4020,464,o),
(3948,383,o),
(3948,288,cs),
(3948,194,o),
(4024,116,o),
(4118,116,cs)
);
},
{
closed = 1;
nodes = (
(4210,219,o),
(4180,162,o),
(4128,162,cs),
(4073,162,o),
(4026,230,o),
(4026,300,cs),
(4026,360,o),
(4055,416,o),
(4109,416,cs),
(4164,416,o),
(4210,345,o),
(4210,276,cs)
);
},
{
closed = 1;
nodes = (
(4386,415,l),
(4219,396,l),
(4241,352,l),
(4378,351,l)
);
},
{
closed = 1;
nodes = (
(3455,-312,o),
(3579,-232,o),
(3579,-122,cs),
(3579,-28,o),
(3495,1,o),
(3409,12,cs),
(3311,24,o),
(3226,17,o),
(3226,54,cs),
(3226,84,o),
(3258,109,o),
(3305,139,c),
(3275,152,l),
(3240,130,o),
(3153,84,o),
(3153,32,cs),
(3153,-13,o),
(3204,-37,o),
(3264,-47,cs),
(3312,-55,o),
(3359,-59,o),
(3395,-65,cs),
(3448,-73,o),
(3498,-83,o),
(3498,-148,cs),
(3498,-222,o),
(3423,-264,o),
(3345,-264,cs),
(3280,-264,o),
(3211,-233,o),
(3211,-166,cs),
(3211,-123,o),
(3228,-80,o),
(3293,-36,c),
(3264,-24,l),
(3209,-59,o),
(3128,-105,o),
(3128,-183,cs),
(3128,-276,o),
(3228,-312,o),
(3329,-312,cs)
);
},
{
closed = 1;
nodes = (
(3409,116,o),
(3488,194,o),
(3488,292,cs),
(3488,383,o),
(3414,464,o),
(3316,464,cs),
(3220,464,o),
(3148,383,o),
(3148,288,cs),
(3148,194,o),
(3224,116,o),
(3318,116,cs)
);
},
{
closed = 1;
nodes = (
(3410,219,o),
(3380,162,o),
(3328,162,cs),
(3273,162,o),
(3226,230,o),
(3226,300,cs),
(3226,360,o),
(3255,416,o),
(3309,416,cs),
(3364,416,o),
(3410,345,o),
(3410,276,cs)
);
},
{
closed = 1;
nodes = (
(3586,415,l),
(3419,396,l),
(3441,352,l),
(3578,351,l)
);
},
{
closed = 1;
nodes = (
(2527,147,o),
(2453,108,o),
(2453,60,cs),
(2453,15,o),
(2504,-9,o),
(2564,-19,cs),
(2612,-27,o),
(2659,-31,o),
(2695,-37,cs),
(2748,-45,o),
(2798,-55,o),
(2798,-120,cs),
(2798,-200,o),
(2727,-242,o),
(2645,-242,cs),
(2580,-242,o),
(2511,-205,o),
(2511,-138,cs),
(2511,-95,o),
(2528,-52,o),
(2593,-8,c),
(2564,4,l),
(2509,-31,o),
(2428,-77,o),
(2428,-155,cs),
(2428,-248,o),
(2528,-284,o),
(2629,-284,cs),
(2755,-284,o),
(2879,-204,o),
(2879,-94,cs),
(2879,0,o),
(2795,29,o),
(2709,40,cs),
(2611,52,o),
(2526,45,o),
(2526,82,cs),
(2526,108,o),
(2551,131,o),
(2588,156,c),
(2566,170,l)
);
},
{
closed = 1;
nodes = (
(2709,116,o),
(2788,194,o),
(2788,292,cs),
(2788,383,o),
(2714,464,o),
(2616,464,cs),
(2520,464,o),
(2448,383,o),
(2448,288,cs),
(2448,194,o),
(2524,116,o),
(2618,116,cs)
);
},
{
closed = 1;
nodes = (
(2710,219,o),
(2680,162,o),
(2628,162,cs),
(2573,162,o),
(2526,230,o),
(2526,300,cs),
(2526,360,o),
(2555,416,o),
(2609,416,cs),
(2664,416,o),
(2710,345,o),
(2710,276,cs)
);
},
{
closed = 1;
nodes = (
(2886,415,l),
(2719,396,l),
(2741,352,l),
(2878,351,l)
);
},
{
closed = 1;
nodes = (
(1727,147,o),
(1653,108,o),
(1653,60,cs),
(1653,15,o),
(1704,-9,o),
(1764,-19,cs),
(1812,-27,o),
(1849,-31,o),
(1885,-37,cs),
(1938,-45,o),
(1988,-55,o),
(1988,-120,cs),
(1988,-200,o),
(1927,-242,o),
(1845,-242,cs),
(1780,-242,o),
(1711,-205,o),
(1711,-138,cs),
(1711,-95,o),
(1728,-52,o),
(1793,-8,c),
(1764,4,l),
(1709,-31,o),
(1628,-77,o),
(1628,-155,cs),
(1628,-248,o),
(1728,-284,o),
(1829,-284,cs),
(1955,-284,o),
(2069,-204,o),
(2069,-94,cs),
(2069,0,o),
(1985,29,o),
(1899,40,cs),
(1801,52,o),
(1726,45,o),
(1726,82,cs),
(1726,108,o),
(1751,131,o),
(1788,156,c),
(1766,170,l)
);
},
{
closed = 1;
nodes = (
(1909,116,o),
(1988,194,o),
(1988,292,cs),
(1988,383,o),
(1914,464,o),
(1816,464,cs),
(1720,464,o),
(1648,383,o),
(1648,288,cs),
(1648,194,o),
(1724,116,o),
(1818,116,cs)
);
},
{
closed = 1;
nodes = (
(1910,219,o),
(1880,162,o),
(1828,162,cs),
(1773,162,o),
(1726,230,o),
(1726,300,cs),
(1726,360,o),
(1755,416,o),
(1809,416,cs),
(1864,416,o),
(1910,345,o),
(1910,276,cs)
);
},
{
closed = 1;
nodes = (
(2076,415,l),
(1909,396,l),
(1931,352,l),
(2068,351,l)
);
},
{
closed = 1;
nodes = (
(927,147,o),
(853,108,o),
(853,60,cs),
(853,15,o),
(904,-9,o),
(964,-19,cs),
(1012,-27,o),
(1049,-31,o),
(1085,-37,cs),
(1138,-45,o),
(1192,-61,o),
(1192,-120,cs),
(1192,-194,o),
(1127,-242,o),
(1045,-242,cs),
(980,-242,o),
(907,-205,o),
(907,-138,cs),
(907,-95,o),
(928,-52,o),
(993,-8,c),
(964,4,l),
(909,-31,o),
(828,-77,o),
(828,-151,cs),
(828,-244,o),
(928,-284,o),
(1029,-284,cs),
(1155,-284,o),
(1269,-204,o),
(1269,-94,cs),
(1269,0,o),
(1185,29,o),
(1099,40,cs),
(1001,52,o),
(926,45,o),
(926,82,cs),
(926,108,o),
(951,131,o),
(988,156,c),
(966,170,l)
);
},
{
closed = 1;
nodes = (
(1109,116,o),
(1188,194,o),
(1188,292,cs),
(1188,383,o),
(1114,464,o),
(1016,464,cs),
(920,464,o),
(848,383,o),
(848,288,cs),
(848,194,o),
(924,116,o),
(1018,116,cs)
);
},
{
closed = 1;
nodes = (
(1110,219,o),
(1080,162,o),
(1028,162,cs),
(973,162,o),
(926,230,o),
(926,300,cs),
(926,360,o),
(955,416,o),
(1009,416,cs),
(1064,416,o),
(1110,345,o),
(1110,276,cs)
);
},
{
closed = 1;
nodes = (
(1276,415,l),
(1109,396,l),
(1131,352,l),
(1268,351,l)
);
},
{
closed = 1;
nodes = (
(127,147,o),
(53,108,o),
(53,60,cs),
(53,15,o),
(104,-9,o),
(164,-19,cs),
(212,-27,o),
(249,-31,o),
(285,-37,cs),
(338,-45,o),
(392,-61,o),
(392,-120,cs),
(392,-194,o),
(327,-242,o),
(245,-242,cs),
(180,-242,o),
(107,-205,o),
(107,-138,cs),
(107,-95,o),
(128,-52,o),
(193,-8,c),
(164,4,l),
(109,-31,o),
(28,-77,o),
(28,-151,cs),
(28,-244,o),
(128,-284,o),
(229,-284,cs),
(355,-284,o),
(469,-204,o),
(469,-94,cs),
(469,0,o),
(385,25,o),
(299,37,cs),
(201,51,o),
(126,50,o),
(126,87,cs),
(126,113,o),
(151,131,o),
(188,156,c),
(166,170,l)
);
},
{
closed = 1;
nodes = (
(309,116,o),
(388,194,o),
(388,292,cs),
(388,383,o),
(314,464,o),
(216,464,cs),
(120,464,o),
(48,383,o),
(48,288,cs),
(48,194,o),
(124,116,o),
(218,116,cs)
);
},
{
closed = 1;
nodes = (
(310,219,o),
(280,162,o),
(228,162,cs),
(173,162,o),
(126,230,o),
(126,300,cs),
(126,360,o),
(155,416,o),
(209,416,cs),
(264,416,o),
(310,345,o),
(310,276,cs)
);
},
{
closed = 1;
nodes = (
(476,415,l),
(309,396,l),
(331,352,l),
(468,351,l)
);
}
);
};
guides = (
{
angle = -8;
pos = (7,3);
},
{
angle = -8;
pos = (7,81);
}
);
layerId = "6D97EE47-94AA-478E-ABFB-936E6C32B491";
shapes = (
{
closed = 1;
nodes = (
(127,147,o),
(53,108,o),
(53,60,cs),
(53,15,o),
(104,-9,o),
(164,-19,cs),
(212,-27,o),
(249,-31,o),
(285,-37,cs),
(338,-45,o),
(392,-61,o),
(392,-120,cs),
(392,-194,o),
(327,-242,o),
(245,-242,cs),
(180,-242,o),
(107,-205,o),
(107,-138,cs),
(107,-95,o),
(128,-52,o),
(193,-8,c),
(164,4,l),
(109,-31,o),
(28,-77,o),
(28,-151,cs),
(28,-244,o),
(128,-284,o),
(234,-284,cs),
(355,-284,o),
(469,-204,o),
(469,-94,cs),
(469,0,o),
(385,25,o),
(299,37,cs),
(201,51,o),
(126,50,o),
(126,87,cs),
(126,113,o),
(151,131,o),
(188,156,c),
(166,170,l)
);
},
{
closed = 1;
nodes = (
(309,116,o),
(388,194,o),
(388,292,cs),
(388,383,o),
(314,464,o),
(216,464,cs),
(120,464,o),
(48,383,o),
(48,288,cs),
(48,194,o),
(124,116,o),
(218,116,cs)
);
},
{
closed = 1;
nodes = (
(310,219,o),
(280,162,o),
(228,162,cs),
(173,162,o),
(126,230,o),
(126,300,cs),
(126,360,o),
(155,416,o),
(209,416,cs),
(264,416,o),
(310,345,o),
(310,276,cs)
);
},
{
closed = 1;
nodes = (
(476,415,l),
(309,396,l),
(331,352,l),
(468,351,l)
);
}
);
width = 494;
}
);
unicode = 103;
},
{
glyphname = h;
kernLeft = h;
kernRight = n;
lastChange = "2025-07-23 22:17:23 +0000";
layers = (
{
background = {
shapes = (
{
closed = 1;
nodes = (
(1988,0,l),
(1988,37,o),
(1988,215,o),
(1988,314,cs),
(1988,424,o),
(1937,464,o),
(1859,464,cs),
(1787,464,o),
(1699,391,o),
(1661,364,c),
(1677,332,l),
(1706,354,o),
(1761,402,o),
(1814,402,cs),
(1878,402,o),
(1907,357,o),
(1907,293,cs),
(1907,220,o),
(1907,44,o),
(1907,0,c)
);
},
{
closed = 1;
nodes = (
(1688,0,l),
(1688,775,l),
(1607,747,l),
(1607,0,l)
);
},
{
closed = 1;
nodes = (
(488,0,l),
(488,37,o),
(488,215,o),
(488,314,cs),
(488,374,o),
(475,419,o),
(424,447,cs),
(405,458,o),
(383,464,o),
(359,464,cs),
(287,464,o),
(199,391,o),
(161,364,c),
(177,332,l),
(206,354,o),
(263,402,o),
(311,402,cs),
(333,402,o),
(353,398,o),
(367,387,cs),
(405,358,o),
(407,327,o),
(407,276,cs),
(407,203,o),
(407,44,o),
(407,0,c)
);
},
{
closed = 1;
nodes = (
(188,0,l),
(188,775,l),
(107,747,l),
(107,0,l)
);
}
);
};
layerId = "6D97EE47-94AA-478E-ABFB-936E6C32B491";
shapes = (
{
closed = 1;
nodes = (
(188,0,l),
(188,775,l),
(107,704,l),
(107,0,l)
);
},
{
closed = 1;
nodes = (
(488,0,l),
(488,314,ls),
(488,374,o),
(471,409,o),
(447,431,cs),
(416,459,o),
(383,464,o),
(359,464,cs),
(286,464,o),
(199,391,o),
(160,364,c),
(177,332,l),
(205,354,o),
(258,402,o),
(322,402,cs),
(352,402,o),
(378,390,o),
(393,366,cs),
(406,344,o),
(407,322,o),
(407,289,cs),
(407,0,l)
);
},
{
pos = (107,0);
ref = _seriflc;
scale = (-1,1);
},
{
pos = (188,0);
ref = _seriflc;
},
{
pos = (407,0);
ref = _seriflc;
scale = (-1,1);
},
{
pos = (488,0);
ref = _seriflc;
},
{
pos = (36,0);
ref = _seriflcascender;
}
);
width = 589;
}
);
metricLeft = "=n+2";
metricRight = n;
unicode = 104;
},
{
glyphname = hbar;
kernLeft = h;
kernRight = n;
lastChange = "2025-07-23 22:17:23 +0000";
layers = (
{
layerId = "6D97EE47-94AA-478E-ABFB-936E6C32B491";
shapes = (
{
closed = 1;
nodes = (
(329,557,l),
(329,595,l),
(29,595,l),
(29,557,l)
);
},
{
ref = h;
}
);
width = 589;
}
);
metricLeft = h;
metricRight = h;
unicode = 295;
},
{
glyphname = hcaron;
kernLeft = h;
kernRight = n;
lastChange = "2025-07-23 22:17:23 +0000";
layers = (
{
layerId = "6D97EE47-94AA-478E-ABFB-936E6C32B491";
shapes = (
{
closed = 1;
nodes = (
(248,0,l),
(248,735,l),
(167,664,l),
(167,0,l)
);
},
{
pos = (167,0);
ref = _seriflc;
scale = (-1,1);
},
{
pos = (248,0);
ref = _seriflc;
},
{
pos = (467,0);
ref = _seriflc;
scale = (-1,1);
},
{
pos = (548,0);
ref = _seriflc;
},
{
pos = (96,-40);
ref = _seriflcascender;
},
{
angle = 180;
pos = (374,1743);
ref = circumflexcomb.case;
},
{
closed = 1;
nodes = (
(548,0,l),
(548,314,ls),
(548,374,o),
(531,409,o),
(507,431,cs),
(476,459,o),
(443,464,o),
(419,464,cs),
(346,464,o),
(259,391,o),
(220,364,c),
(237,332,l),
(265,354,o),
(318,402,o),
(382,402,cs),
(412,402,o),
(438,390,o),
(453,366,cs),
(466,344,o),
(467,322,o),
(467,289,cs),
(467,0,l)
);
}
);
width = 649;
}
);
metricLeft = h;
metricRight = h;
unicode = 543;
},
{
glyphname = hcircumflex;
kernLeft = h;
kernRight = n;
lastChange = "2025-07-23 22:17:23 +0000";
layers = (
{
layerId = "6D97EE47-94AA-478E-ABFB-936E6C32B491";
shapes = (
{
closed = 1;
nodes = (
(249,0,l),
(249,755,l),
(168,684,l),
(168,0,l)
);
},
{
pos = (168,0);
ref = _seriflc;
scale = (-1,1);
},
{
pos = (249,0);
ref = _seriflc;
},
{
pos = (468,0);
ref = _seriflc;
scale = (-1,1);
},
{
pos = (549,0);
ref = _seriflc;
},
{
pos = (97,-20);
ref = _seriflcascender;
},
{
pos = (28,0);
ref = circumflexcomb.case;
},
{
closed = 1;
nodes = (
(549,0,l),
(549,314,ls),
(549,374,o),
(532,409,o),
(508,431,cs),
(477,459,o),
(444,464,o),
(420,464,cs),
(347,464,o),
(260,391,o),
(221,364,c),
(238,332,l),
(266,354,o),
(319,402,o),
(383,402,cs),
(413,402,o),
(439,390,o),
(454,366,cs),
(467,344,o),
(468,322,o),
(468,289,cs),
(468,0,l)
);
}
);
width = 650;
}
);
metricLeft = h;
metricRight = h;
unicode = 293;
},
{
glyphname = idotless;
kernLeft = i;
kernRight = i;
lastChange = "2025-07-23 22:17:23 +0000";
layers = (
{
anchors = (
{
name = BOTTOM;
pos = (148,0);
},
{
name = TOP;
pos = (147,456);
}
);
backgroundImage = {
imagePath = "HP/LOWERCASE/i_1.jpg";
locked = 1;
pos = (-1827,-503);
scale = (65.44,65.44);
};
layerId = "6D97EE47-94AA-478E-ABFB-936E6C32B491";
shapes = (
{
closed = 1;
nodes = (
(188,0,l),
(188,456,l),
(107,385,l),
(107,0,l)
);
},
{
pos = (107,0);
ref = _seriflc;
scale = (-1,1);
},
{
pos = (188,0);
ref = _seriflc;
},
{
pos = (36,-319);
ref = _seriflcascender;
}
);
width = 289;
}
);
metricLeft = "=n+2";
metricRight = n;
unicode = 305;
},
{
glyphname = jdotless;
kernLeft = j;
kernRight = j;
lastChange = "2025-07-23 22:17:23 +0000";
layers = (
{
anchors = (
{
name = TOP;
pos = (137,456);
}
);
background = {
shapes = (
{
closed = 1;
nodes = (
(17,-270,o),
(140,-182,o),
(178,-20,c),
(97,-20,l),
(87,-132,o),
(18,-226,o),
(-22,-262,c),
(-5,-284,l)
);
},
{
closed = 1;
nodes = (
(135,9,l),
(97,62,l),
(98,19,o),
(97,-43,o),
(86,-80,c)
);
},
{
closed = 1;
nodes = (
(178,-20,l),
(178,456,l),
(97,428,l),
(97,-20,l)
);
}
);
};
layerId = "6D97EE47-94AA-478E-ABFB-936E6C32B491";
shapes = (
{
closed = 1;
nodes = (
(-5,-284,l),
(17,-270,o),
(140,-182,o),
(178,-20,c),
(178,456,l),
(97,385,l),
(97,13,ls),
(97,-16,o),
(94,-46,o),
(89,-69,cs),
(67,-159,o),
(12,-231,o),
(-22,-262,c)
);
},
{
pos = (26,-319);
ref = _seriflcascender;
}
);
width = 238;
}
);
unicode = 567;
},
{
glyphname = k;
kernLeft = h;
kernRight = k;
lastChange = "2025-07-23 22:17:23 +0000";
layers = (
{
anchors = (
{
name = BOTTOM;
pos = (283,0);
}
);
background = {
shapes = (
{
closed = 1;
nodes = (
(534,-2,l),
(481,17,o),
(459,42,o),
(424,81,cs),
(381,129,o),
(311,222,o),
(281,264,c),
(202,246,l),
(224,216,o),
(323,68,o),
(358,31,cs),
(396,-6,o),
(429,-28,o),
(529,-31,c)
);
},
{
closed = 1;
nodes = (
(188,0,l),
(188,775,l),
(107,738,l),
(107,0,l)
);
},
{
closed = 1;
nodes = (
(472,448,l),
(406,448,l),
(202,246,l),
(232,210,l)
);
},
{
closed = 1;
nodes = (
(433,410,l),
(433,456,l),
(368,456,l),
(368,410,l)
);
}
);
};
guides = (
{
angle = 305;
pos = (-242,880);
},
{
angle = 80;
pos = (698,928);
},
{
angle = 45;
pos = (859,903);
},
{
angle = 45;
pos = (925,903);
},
{
angle = 307;
pos = (-183,880);
}
);
layerId = "6D97EE47-94AA-478E-ABFB-936E6C32B491";
shapes = (
{
closed = 1;
nodes = (
(534,-2,l),
(481,17,o),
(459,42,o),
(424,81,cs),
(381,129,o),
(311,222,o),
(281,264,c),
(202,246,l),
(224,216,o),
(323,68,o),
(358,31,cs),
(396,-6,o),
(429,-28,o),
(529,-31,c)
);
},
{
closed = 1;
nodes = (
(188,0,l),
(188,775,l),
(107,704,l),
(107,0,l)
);
},
{
closed = 1;
nodes = (
(478,456,l),
(412,456,l),
(202,246,l),
(232,210,l)
);
},
{
closed = 1;
nodes = (
(419,410,l),
(419,456,l),
(367,456,l),
(367,410,l)
);
},
{
pos = (107,0);
ref = _seriflc;
scale = (-1,1);
},
{
pos = (188,0);
ref = _seriflc;
scale = (1.04,1);
},
{
angle = 180;
pos = (367,456);
ref = _seriflc;
},
{
pos = (36,0);
ref = _seriflcascender;
},
{
pos = (432,456);
ref = _seriflc;
scale = (0.9,-1);
}
);
width = 544;
}
);
metricLeft = "=n+2";
unicode = 107;
},
{
glyphname = kgreenlandic;
kernLeft = n;
kernRight = k;
lastChange = "2025-07-23 22:17:23 +0000";
layers = (
{
background = {
shapes = (
{
closed = 1;
nodes = (
(534,-2,l),
(481,17,o),
(459,42,o),
(424,81,cs),
(381,129,o),
(311,222,o),
(281,264,c),
(202,246,l),
(224,216,o),
(323,68,o),
(358,31,cs),
(396,-6,o),
(429,-28,o),
(529,-31,c)
);
},
{
closed = 1;
nodes = (
(188,0,l),
(188,456,l),
(107,423,l),
(107,0,l)
);
},
{
closed = 1;
nodes = (
(477,448,l),
(406,448,l),
(202,246,l),
(237,210,l)
);
},
{
closed = 1;
nodes = (
(436,408,l),
(436,456,l),
(368,456,l),
(368,408,l)
);
}
);
};
layerId = "6D97EE47-94AA-478E-ABFB-936E6C32B491";
shapes = (
{
closed = 1;
nodes = (
(188,0,l),
(188,456,l),
(107,385,l),
(107,0,l)
);
},
{
pos = (107,0);
ref = _seriflc;
scale = (-1,1);
},
{
pos = (188,0);
ref = _seriflc;
},
{
pos = (36,-319);
ref = _seriflcascender;
},
{
closed = 1;
nodes = (
(534,-2,l),
(481,17,o),
(459,42,o),
(424,81,cs),
(381,129,o),
(311,222,o),
(281,264,c),
(202,246,l),
(224,216,o),
(323,68,o),
(358,31,cs),
(396,-6,o),
(429,-28,o),
(529,-31,c)
);
},
{
closed = 1;
nodes = (
(478,456,l),
(412,456,l),
(202,246,l),
(232,210,l)
);
},
{
closed = 1;
nodes = (
(419,410,l),
(419,456,l),
(367,456,l),
(367,410,l)
);
},
{
angle = 180;
pos = (367,456);
ref = _seriflc;
},
{
pos = (432,456);
ref = _seriflc;
scale = (0.9,-1);
}
);
width = 544;
}
);
metricLeft = k;
metricRight = k;
unicode = 312;
},
{
glyphname = l;
kernLeft = h;
kernRight = n;
lastChange = "2025-07-23 22:17:23 +0000";
layers = (
{
anchors = (
{
name = BOTTOM;
pos = (147,0);
},
{
name = TOP;
pos = (118,739);
}
);
layerId = "6D97EE47-94AA-478E-ABFB-936E6C32B491";
shapes = (
{
closed = 1;
nodes = (
(188,0,l),
(188,775,l),
(107,704,l),
(107,0,l)
);
},
{
pos = (107,0);
ref = _seriflc;
scale = (-1,1);
},
{
pos = (188,0);
ref = _seriflc;
},
{
pos = (36,0);
ref = _seriflcascender;
}
);
width = 289;
}
);
metricLeft = "=n+2";
metricRight = n;
unicode = 108;
},
{
glyphname = ldot;
kernLeft = h;
kernRight = n;
lastChange = "2025-07-23 22:17:23 +0000";
layers = (
{
background = {
shapes = (
{
closed = 1;
nodes = (
(355.72,274.84,o),
(379.24,300.04,o),
(379.24,328.6,cs),
(379.24,358,o),
(355.72,380.68,o),
(325.48,380.68,cs),
(295.24,380.68,o),
(272.56,355.48,o),
(272.56,326.92,cs),
(272.56,297.52,o),
(295.24,274.84,o),
(325.48,274.84,cs)
);
}
);
};
layerId = "6D97EE47-94AA-478E-ABFB-936E6C32B491";
shapes = (
{
alignment = -1;
ref = l;
},
{
alignment = -1;
pos = (202,137);
ref = periodcentered;
scale = (0.84,0.84);
}
);
width = 407;
}
);
unicode = 320;
},
{
glyphname = lslash;
kernLeft = h;
kernRight = n;
lastChange = "2025-07-23 22:17:23 +0000";
layers = (
{
layerId = "6D97EE47-94AA-478E-ABFB-936E6C32B491";
shapes = (
{
closed = 1;
nodes = (
(282,471,l),
(264,504,l),
(22,386,l),
(40,353,l)
);
},
{
pos = (4,0);
ref = l;
}
);
width = 298;
}
);
metricLeft = "=l-6";
metricRight = "=l-6";
unicode = 322;
},
{
glyphname = m;
kernLeft = n;
kernRight = n;
lastChange = "2025-07-23 22:17:23 +0000";
layers = (
{
background = {
shapes = (
{
closed = 1;
nodes = (
(3474,0,l),
(3474,37,o),
(3474,215,o),
(3474,314,cs),
(3474,374,o),
(3460,419,o),
(3410,447,cs),
(3390,458,o),
(3369,464,o),
(3345,464,cs),
(3272,464,o),
(3185,391,o),
(3146,364,c),
(3162,332,l),
(3191,354,o),
(3248,402,o),
(3296,402,cs),
(3318,402,o),
(3338,398,o),
(3352,387,cs),
(3390,358,o),
(3392,327,o),
(3392,276,cs),
(3392,203,o),
(3392,44,o),
(3392,0,c)
);
},
{
closed = 1;
nodes = (
(3186,0,l),
(3186,456,l),
(3105,428,l),
(3105,0,l)
);
},
{
closed = 1;
nodes = (
(3761,0,l),
(3761,37,o),
(3761,215,o),
(3761,314,cs),
(3761,374,o),
(3748,419,o),
(3697,447,cs),
(3678,458,o),
(3656,464,o),
(3632,464,cs),
(3560,464,o),
(3484,402,o),
(3445,375,c),
(3461,343,l),
(3490,365,o),
(3536,402,o),
(3584,402,cs),
(3606,402,o),
(3626,398,o),
(3640,387,cs),
(3678,358,o),
(3680,327,o),
(3680,276,cs),
(3680,203,o),
(3680,44,o),
(3680,0,c)
);
},
{
closed = 1;
nodes = (
(2186,0,l),
(2186,456,l),
(2105,428,l),
(2105,0,l)
);
},
{
closed = 1;
nodes = (
(2473,0,l),
(2473,314,ls),
(2473,374,o),
(2460,419,o),
(2409,447,cs),
(2390,458,o),
(2368,464,o),
(2344,464,cs),
(2271,464,o),
(2184,391,o),
(2145,364,c),
(2162,332,l),
(2190,354,o),
(2243,402,o),
(2307,402,cs),
(2337,402,o),
(2363,390,o),
(2378,366,cs),
(2391,344,o),
(2392,322,o),
(2392,289,cs),
(2392,0,l)
);
},
{
closed = 1;
nodes = (
(2760,0,l),
(2760,314,ls),
(2760,374,o),
(2747,419,o),
(2696,447,cs),
(2677,458,o),
(2655,464,o),
(2631,464,cs),
(2558,464,o),
(2471,391,o),
(2432,364,c),
(2449,332,l),
(2477,354,o),
(2530,402,o),
(2594,402,cs),
(2624,402,o),
(2650,390,o),
(2665,366,cs),
(2678,344,o),
(2679,322,o),
(2679,289,cs),
(2679,0,l)
);
},
{
closed = 1;
nodes = (
(1186,0,l),
(1186,456,l),
(1105,428,l),
(1105,0,l)
);
},
{
closed = 1;
nodes = (
(1473,0,l),
(1473,314,ls),
(1473,374,o),
(1456,409,o),
(1432,431,cs),
(1401,459,o),
(1368,464,o),
(1344,464,cs),
(1271,464,o),
(1184,391,o),
(1145,364,c),
(1162,332,l),
(1190,354,o),
(1243,402,o),
(1307,402,cs),
(1337,402,o),
(1363,390,o),
(1378,366,cs),
(1391,344,o),
(1392,322,o),
(1392,289,cs),
(1392,0,l)
);
},
{
closed = 1;
nodes = (
(1760,0,l),
(1760,314,ls),
(1760,374,o),
(1743,409,o),
(1719,431,cs),
(1688,459,o),
(1655,464,o),
(1631,464,cs),
(1558,464,o),
(1471,391,o),
(1432,364,c),
(1449,332,l),
(1477,354,o),
(1530,402,o),
(1594,402,cs),
(1624,402,o),
(1650,390,o),
(1665,366,cs),
(1678,344,o),
(1679,322,o),
(1679,289,cs),
(1679,0,l)
);
},
{
closed = 1;
nodes = (
(186,0,l),
(186,456,l),
(105,428,l),
(105,0,l)
);
},
{
closed = 1;
nodes = (
(473,0,l),
(473,314,ls),
(473,374,o),
(456,409,o),
(432,431,cs),
(401,459,o),
(374,464,o),
(350,464,cs),
(277,464,o),
(190,391,o),
(151,364,c),
(168,332,l),
(196,354,o),
(249,402,o),
(313,402,cs),
(343,402,o),
(363,390,o),
(378,366,cs),
(391,344,o),
(392,322,o),
(392,289,cs),
(392,0,l)
);
},
{
closed = 1;
nodes = (
(760,0,l),
(760,314,ls),
(760,374,o),
(743,409,o),
(719,431,cs),
(688,459,o),
(655,464,o),
(631,464,cs),
(558,464,o),
(471,391,o),
(432,364,c),
(449,332,l),
(477,354,o),
(530,402,o),
(594,402,cs),
(624,402,o),
(650,390,o),
(665,366,cs),
(678,344,o),
(679,322,o),
(679,289,cs),
(679,0,l)
);
}
);
};
layerId = "6D97EE47-94AA-478E-ABFB-936E6C32B491";
shapes = (
{
pos = (105,0);
ref = _seriflc;
scale = (-1,1);
},
{
pos = (186,0);
ref = _seriflc;
scale = (0.9,1);
},
{
pos = (392,0);
ref = _seriflc;
scale = (-0.9,1);
},
{
pos = (34,-319);
ref = _seriflcascender;
},
{
pos = (473,0);
ref = _seriflc;
scale = (0.9,1);
},
{
pos = (679,0);
ref = _seriflc;
scale = (-0.9,1);
},
{
pos = (760,0);
ref = _seriflc;
},
{
closed = 1;
nodes = (
(760,0,l),
(760,314,ls),
(760,374,o),
(743,409,o),
(719,431,cs),
(688,459,o),
(661,464,o),
(637,464,cs),
(564,464,o),
(477,396,o),
(438,369,c),
(455,337,l),
(483,359,o),
(536,402,o),
(600,402,cs),
(630,402,o),
(650,390,o),
(665,366,cs),
(678,344,o),
(679,322,o),
(679,289,cs),
(679,0,l)
);
},
{
closed = 1;
nodes = (
(186,0,l),
(186,456,l),
(105,385,l),
(105,0,l)
);
},
{
closed = 1;
nodes = (
(473,0,l),
(473,314,ls),
(473,374,o),
(456,409,o),
(432,431,cs),
(401,459,o),
(374,464,o),
(350,464,cs),
(277,464,o),
(190,391,o),
(151,364,c),
(168,332,l),
(196,354,o),
(249,402,o),
(313,402,cs),
(343,402,o),
(363,390,o),
(378,366,cs),
(391,344,o),
(392,322,o),
(392,289,cs),
(392,0,l)
);
}
);
width = 861;
}
);
metricLeft = n;
metricRight = n;
unicode = 109;
},
{
glyphname = n;
kernLeft = n;
kernRight = n;
lastChange = "2025-07-23 22:17:23 +0000";
layers = (
{
anchors = (
{
name = BOTTOM;
pos = (292,0);
},
{
name = TOP;
pos = (282,456);
}
);
background = {
shapes = (
{
closed = 1;
nodes = (
(1979,0,l),
(1979,37,o),
(1979,215,o),
(1979,314,cs),
(1979,374,o),
(1966,419,o),
(1915,447,cs),
(1896,458,o),
(1874,464,o),
(1850,464,cs),
(1777,464,o),
(1690,391,o),
(1651,364,c),
(1668,332,l),
(1696,354,o),
(1749,402,o),
(1813,402,cs),
(1864,402,o),
(1898,369,o),
(1898,289,cs),
(1898,216,o),
(1898,44,o),
(1898,0,c)
);
},
{
closed = 1;
nodes = (
(1686,0,l),
(1686,456,l),
(1605,428,l),
(1605,0,l)
);
},
{
closed = 1;
nodes = (
(1279,0,l),
(1279,37,o),
(1279,215,o),
(1279,314,cs),
(1279,374,o),
(1266,419,o),
(1215,447,cs),
(1196,458,o),
(1174,464,o),
(1150,464,cs),
(1077,464,o),
(990,391,o),
(951,364,c),
(968,332,l),
(996,354,o),
(1053,402,o),
(1101,402,cs),
(1124,402,o),
(1144,398,o),
(1158,387,cs),
(1196,358,o),
(1198,327,o),
(1198,276,cs),
(1198,203,o),
(1198,44,o),
(1198,0,c)
);
},
{
closed = 1;
nodes = (
(986,0,l),
(986,456,l),
(905,428,l),
(905,0,l)
);
},
{
closed = 1;
nodes = (
(479,0,l),
(479,314,ls),
(479,374,o),
(466,419,o),
(415,447,cs),
(396,458,o),
(374,464,o),
(350,464,cs),
(277,464,o),
(190,391,o),
(151,364,c),
(168,332,l),
(196,354,o),
(249,402,o),
(313,402,cs),
(343,402,o),
(369,390,o),
(384,366,cs),
(397,344,o),
(398,322,o),
(398,289,cs),
(398,0,l)
);
},
{
closed = 1;
nodes = (
(186,0,l),
(186,456,l),
(105,428,l),
(105,0,l)
);
}
);
};
layerId = "6D97EE47-94AA-478E-ABFB-936E6C32B491";
shapes = (
{
closed = 1;
nodes = (
(186,0,l),
(186,456,l),
(105,385,l),
(105,0,l)
);
},
{
closed = 1;
nodes = (
(479,0,l),
(479,314,ls),
(479,374,o),
(462,409,o),
(438,431,cs),
(407,459,o),
(374,464,o),
(350,464,cs),
(277,464,o),
(190,391,o),
(151,364,c),
(168,332,l),
(196,354,o),
(249,402,o),
(313,402,cs),
(343,402,o),
(369,390,o),
(384,366,cs),
(397,344,o),
(398,322,o),
(398,289,cs),
(398,0,l)
);
},
{
pos = (105,0);
ref = _seriflc;
scale = (-1,1);
},
{
pos = (186,0);
ref = _seriflc;
},
{
pos = (398,0);
ref = _seriflc;
scale = (-0.9,1);
},
{
pos = (34,-319);
ref = _seriflcascender;
},
{
pos = (479,0);
ref = _seriflc;
}
);
width = 580;
}
);
unicode = 110;
},
{
glyphname = nhookleft;
kernLeft = nhookleft;
kernRight = n;
lastChange = "2025-07-23 22:17:23 +0000";
layers = (
{
background = {
shapes = (
{
closed = 1;
nodes = (
(479,0,l),
(479,37,o),
(479,215,o),
(479,314,cs),
(479,374,o),
(466,419,o),
(415,447,cs),
(396,458,o),
(374,464,o),
(350,464,cs),
(277,464,o),
(190,391,o),
(151,364,c),
(168,332,l),
(196,354,o),
(253,402,o),
(301,402,cs),
(324,402,o),
(344,398,o),
(358,387,cs),
(396,358,o),
(398,327,o),
(398,276,cs),
(398,203,o),
(398,44,o),
(398,0,c)
);
},
{
closed = 1;
nodes = (
(-11,-247,o),
(49,-235,o),
(91,-210,cs),
(133,-185,o),
(162,-147,o),
(174,-110,cs),
(179,-94,o),
(183,-70,o),
(184,-52,cs),
(185,-35,o),
(186,-4,o),
(186,10,c),
(105,0,l),
(105,-75,o),
(107,-155,o),
(65,-175,cs),
(28,-193,o),
(-19,-168,o),
(-47,-143,c),
(-68,-235,l)
);
},
{
closed = 1;
nodes = (
(186,10,l),
(186,456,l),
(105,428,l),
(105,0,l)
);
}
);
};
layerId = "6D97EE47-94AA-478E-ABFB-936E6C32B491";
shapes = (
{
closed = 1;
nodes = (
(479,0,l),
(479,37,o),
(479,215,o),
(479,314,cs),
(479,374,o),
(466,419,o),
(415,447,cs),
(396,458,o),
(374,464,o),
(350,464,cs),
(277,464,o),
(190,391,o),
(151,364,c),
(168,332,l),
(196,354,o),
(253,402,o),
(301,402,cs),
(324,402,o),
(344,398,o),
(358,387,cs),
(396,358,o),
(398,327,o),
(398,276,cs),
(398,203,o),
(398,44,o),
(398,0,c)
);
},
{
closed = 1;
nodes = (
(186,0,l),
(186,456,l),
(105,385,l),
(105,0,l)
);
},
{
pos = (398,0);
ref = _seriflc;
scale = (-0.9,1);
},
{
pos = (34,-319);
ref = _seriflcascender;
},
{
pos = (479,0);
ref = _seriflc;
},
{
pos = (-68,0);
ref = _nhooklc;
}
);
width = 580;
}
);
metricRight = n;
unicode = 626;
},
{
glyphname = eng;
kernLeft = n;
kernRight = n;
lastChange = "2025-07-23 22:17:23 +0000";
layers = (
{
background = {
shapes = (
{
closed = 1;
nodes = (
(282,-247,o),
(342,-235,o),
(384,-210,cs),
(426,-185,o),
(455,-147,o),
(467,-110,cs),
(472,-94,o),
(476,-64,o),
(477,-46,cs),
(478,-29,o),
(479,6,o),
(479,10,cs),
(479,66,o),
(479,222,o),
(479,314,cs),
(479,374,o),
(466,419,o),
(415,447,cs),
(396,458,o),
(374,464,o),
(350,464,cs),
(277,464,o),
(190,391,o),
(151,364,c),
(168,332,l),
(196,354,o),
(253,402,o),
(301,402,cs),
(324,402,o),
(344,398,o),
(358,387,cs),
(396,358,o),
(398,327,o),
(398,276,cs),
(398,203,o),
(398,45,o),
(398,0,cs),
(398,-75,o),
(400,-155,o),
(358,-175,cs),
(321,-193,o),
(274,-168,o),
(246,-143,c),
(225,-235,l)
);
},
{
closed = 1;
nodes = (
(186,0,l),
(186,456,l),
(105,428,l),
(105,0,l)
);
}
);
};
layerId = "6D97EE47-94AA-478E-ABFB-936E6C32B491";
shapes = (
{
closed = 1;
nodes = (
(479,0,l),
(479,314,ls),
(479,374,o),
(466,419,o),
(415,447,cs),
(396,458,o),
(374,464,o),
(350,464,cs),
(277,464,o),
(190,391,o),
(151,364,c),
(168,332,l),
(196,354,o),
(253,402,o),
(301,402,cs),
(324,402,o),
(344,398,o),
(358,387,cs),
(396,358,o),
(398,327,o),
(398,276,cs),
(398,0,l)
);
},
{
closed = 1;
nodes = (
(186,0,l),
(186,456,l),
(105,385,l),
(105,0,l)
);
},
{
pos = (105,0);
ref = _seriflc;
scale = (-1,1);
},
{
pos = (186,0);
ref = _seriflc;
},
{
pos = (34,-319);
ref = _seriflcascender;
},
{
pos = (225,0);
ref = _nhooklc;
}
);
width = 529;
}
);
metricLeft = n;
metricRight = "=n+28";
unicode = 331;
},
{
glyphname = o;
kernLeft = o;
kernRight = o;
lastChange = "2025-07-23 22:17:23 +0000";
layers = (
{
anchors = (
{
name = BOTTOM;
pos = (270,0);
},
{
name = TOP;
pos = (265,456);
}
);
annotations = (
{
pos = (243.056,330.46);
text = "42-92";
type = Text;
}
);
background = {
shapes = (
{
closed = 1;
nodes = (
(395,-8,o),
(496,101,o),
(496,231,cs),
(496,355,o),
(395,464,o),
(263,464,cs),
(135,464,o),
(34,355,o),
(34,226,cs),
(34,96,o),
(138,-8,o),
(266,-8,cs)
);
},
{
closed = 1;
nodes = (
(190,36,o),
(122,147,o),
(122,254,cs),
(122,342,o),
(171,421,o),
(248,421,cs),
(339,421,o),
(407,311,o),
(407,204,cs),
(407,117,o),
(361,36,o),
(282,36,cs)
);
}
);
};
layerId = "6D97EE47-94AA-478E-ABFB-936E6C32B491";
shapes = (
{
closed = 1;
nodes = (
(395,-8,o),
(496,101,o),
(496,231,cs),
(496,355,o),
(395,464,o),
(263,464,cs),
(135,464,o),
(34,355,o),
(34,226,cs),
(34,96,o),
(138,-8,o),
(266,-8,cs)
);
},
{
closed = 1;
nodes = (
(190,36,o),
(123,147,o),
(123,254,cs),
(123,342,o),
(169,420,o),
(248,420,cs),
(340,420,o),
(407,311,o),
(407,204,cs),
(407,117,o),
(361,36,o),
(282,36,cs)
);
}
);
width = 520;
}
);
unicode = 111;
},
{
glyphname = oogonek;
kernLeft = o;
kernRight = o;
lastChange = "2025-07-23 22:17:23 +0000";
layers = (
{
layerId = "6D97EE47-94AA-478E-ABFB-936E6C32B491";
shapes = (
{
closed = 1;
nodes = (
(340,0,l),
(359,18,l),
(342,30,l),
(301,0,l)
);
},
{
alignment = -1;
pos = (188,0);
ref = ogonekcomb;
},
{
ref = o;
}
);
width = 520;
}
);
metricLeft = o;
metricRight = o;
unicode = 491;
},
{
glyphname = oslash;
kernLeft = o;
kernRight = o;
lastChange = "2025-07-23 22:17:23 +0000";
layers = (
{
layerId = "6D97EE47-94AA-478E-ABFB-936E6C32B491";
shapes = (
{
closed = 1;
nodes = (
(448,503,l),
(413,522,l),
(84,-50,l),
(119,-69,l)
);
},
{
ref = o;
}
);
width = 520;
}
);
metricLeft = o;
metricRight = o;
unicode = 248;
},
{
glyphname = oe;
kernLeft = o;
kernRight = e;
lastChange = "2025-07-23 22:17:23 +0000";
layers = (
{
layerId = "6D97EE47-94AA-478E-ABFB-936E6C32B491";
shapes = (
{
closed = 1;
nodes = (
(349,-8,o),
(423,37,o),
(464,110,c),
(446,178,o),
(465,281,o),
(479,317,c),
(443,409,o),
(354,464,o),
(263,464,cs),
(135,464,o),
(34,355,o),
(34,226,cs),
(34,96,o),
(138,-8,o),
(266,-8,cs)
);
},
{
closed = 1;
nodes = (
(190,36,o),
(122,147,o),
(122,254,cs),
(122,342,o),
(171,421,o),
(248,421,cs),
(316,421,o),
(382,353,o),
(402,258,cs),
(405,240,o),
(407,222,o),
(407,204,cs),
(407,117,o),
(361,36,o),
(282,36,cs)
);
},
{
pos = (373,0);
ref = e;
}
);
width = 803;
}
);
metricLeft = o;
metricRight = e;
unicode = 339;
},
{
glyphname = p;
kernLeft = p;
kernRight = o;
lastChange = "2025-07-23 22:17:23 +0000";
layers = (
{
background = {
shapes = (
{
closed = 1;
nodes = (
(394,-8,o),
(505,111,o),
(505,261,cs),
(505,365,o),
(438,464,o),
(342,464,cs),
(287,464,o),
(226,428,o),
(176,372,c),
(176,331,l),
(210,366,o),
(255,395,o),
(299,395,cs),
(376,395,o),
(430,309,o),
(430,215,cs),
(430,117,o),
(373,42,o),
(282,42,cs),
(237,42,o),
(196,64,o),
(176,99,c),
(176,-1,l),
(197,-6,o),
(218,-8,o),
(240,-8,cs)
);
},
{
closed = 1;
nodes = (
(188,-276,l),
(188,456,l),
(107,385,l),
(107,-276,l)
);
}
);
};
layerId = "6D97EE47-94AA-478E-ABFB-936E6C32B491";
shapes = (
{
pos = (107,-276);
ref = _seriflc;
scale = (-1,1);
},
{
pos = (188,-276);
ref = _seriflc;
scale = (1.1,1);
},
{
pos = (36,-319);
ref = _seriflcascender;
},
{
closed = 1;
nodes = (
(394,-8,o),
(505,111,o),
(505,261,cs),
(505,369,o),
(443,464,o),
(342,464,cs),
(287,464,o),
(226,428,o),
(176,372,c),
(176,331,l),
(210,366,o),
(255,395,o),
(299,395,cs),
(376,395,o),
(430,309,o),
(430,215,cs),
(430,121,o),
(369,43,o),
(282,43,cs),
(237,43,o),
(196,64,o),
(176,99,c),
(176,-1,l),
(197,-6,o),
(218,-8,o),
(240,-8,cs)
);
},
{
closed = 1;
nodes = (
(188,-276,l),
(188,456,l),
(107,385,l),
(107,-276,l)
);
}
);
width = 529;
}
);
metricLeft = "=n+2";
metricRight = o;
unicode = 112;
},
{
glyphname = thorn;
kernLeft = thorn;
kernRight = o;
lastChange = "2025-07-23 22:17:23 +0000";
layers = (
{
background = {
shapes = (
{
closed = 1;
nodes = (
(177,16,o),
(197,14,o),
(217,14,cs),
(361,14,o),
(479,123,o),
(479,275,cs),
(479,385,o),
(412,473,o),
(303,473,cs),
(253,473,o),
(201,454,o),
(157,411,c),
(157,374,l),
(183,395,o),
(216,405,o),
(250,405,cs),
(346,405,o),
(407,331,o),
(407,224,cs),
(407,131,o),
(354,63,o),
(267,63,cs),
(220,63,o),
(178,87,o),
(157,123,c),
(158,21,l)
);
},
{
closed = 1;
nodes = (
(186,-281,l),
(186,775,l),
(105,747,l),
(105,-281,l)
);
}
);
};
layerId = "6D97EE47-94AA-478E-ABFB-936E6C32B491";
shapes = (
{
closed = 1;
nodes = (
(186,-281,l),
(186,775,l),
(105,704,l),
(105,-281,l)
);
},
{
closed = 1;
nodes = (
(392,-8,o),
(503,111,o),
(503,261,cs),
(503,365,o),
(436,464,o),
(340,464,cs),
(285,464,o),
(224,428,o),
(174,372,c),
(174,331,l),
(208,366,o),
(253,395,o),
(297,395,cs),
(374,395,o),
(428,309,o),
(428,215,cs),
(428,117,o),
(371,42,o),
(280,42,cs),
(235,42,o),
(194,64,o),
(174,99,c),
(174,-1,l),
(195,-6,o),
(216,-8,o),
(238,-8,cs)
);
},
{
pos = (105,-281);
ref = _seriflc;
scale = (-1,1);
},
{
pos = (186,-281);
ref = _seriflc;
scale = (1.1,1);
},
{
pos = (34,0);
ref = _seriflcascender;
}
);
width = 527;
}
);
metricLeft = n;
metricRight = o;
unicode = 254;
},
{
glyphname = q;
kernLeft = o;
kernRight = n;
lastChange = "2025-07-23 22:17:23 +0000";
layers = (
{
layerId = "6D97EE47-94AA-478E-ABFB-936E6C32B491";
shapes = (
{
closed = 1;
nodes = (
(285,-8,o),
(323,27,o),
(370,84,c),
(370,127,l),
(339,79,o),
(300,62,o),
(263,62,cs),
(173,62,o),
(107,146,o),
(107,249,cs),
(107,343,o),
(162,410,o),
(250,410,cs),
(302,410,o),
(350,380,o),
(370,325,c),
(370,434,l),
(335,455,o),
(302,464,o),
(270,464,cs),
(145,464,o),
(34,338,o),
(34,202,cs),
(34,85,o),
(107,-8,o),
(217,-8,cs)
);
},
{
closed = 1;
nodes = (
(429,-276,l),
(429,473,l),
(404,480,l),
(370,434,l),
(348,434,l),
(348,-276,l)
);
},
{
pos = (348,-276);
ref = _seriflc;
scale = (-1.1,1);
},
{
pos = (429,-276);
ref = _seriflc;
}
);
width = 520;
}
);
metricLeft = o;
metricRight = "=n-10";
unicode = 113;
},
{
glyphname = r;
kernLeft = n;
kernRight = r;
lastChange = "2025-07-23 22:17:23 +0000";
layers = (
{
anchors = (
{
name = BOTTOM;
pos = (137,0);
},
{
name = TOP;
pos = (189,456);
}
);
background = {
shapes = (
{
closed = 1;
nodes = (
(176,294,o),
(201,363,o),
(249,377,cs),
(284,388,o),
(311,372,o),
(326,359,c),
(370,450,l),
(350,462,o),
(325,466,o),
(296,463,cs),
(221,454,o),
(172,343,o),
(130,288,c),
(156,264,l)
);
},
{
closed = 1;
nodes = (
(178,0,l),
(178,456,l),
(97,428,l),
(97,0,l)
);
}
);
};
backgroundImage = {
imagePath = "HP/LOWERCASE/r_1.jpg";
locked = 1;
pos = (-2001,-418);
scale = (65.318,65.318);
};
layerId = "6D97EE47-94AA-478E-ABFB-936E6C32B491";
shapes = (
{
closed = 1;
nodes = (
(183,305,o),
(206,381,o),
(272,381,cs),
(296,381,o),
(315,369,o),
(326,359,c),
(370,450,l),
(350,462,o),
(325,466,o),
(296,463,cs),
(221,454,o),
(172,343,o),
(130,288,c),
(156,264,l)
);
},
{
closed = 1;
nodes = (
(178,0,l),
(178,456,l),
(97,385,l),
(97,0,l)
);
},
{
pos = (97,0);
ref = _seriflc;
scale = (-0.9,1);
},
{
pos = (178,0);
ref = _seriflc;
scale = (1.1,1);
},
{
pos = (26,-319);
ref = _seriflcascender;
}
);
width = 376;
}
);
metricLeft = n;
unicode = 114;
},
{
glyphname = s;
kernLeft = s;
kernRight = s;
lastChange = "2025-07-23 22:17:23 +0000";
layers = (
{
anchors = (
{
name = BOTTOM;
pos = (179,0);
},
{
name = TOP;
pos = (203,456);
}
);
background = {
shapes = (
{
closed = 1;
nodes = (
(274,-8,o),
(337,37,o),
(337,125,cs),
(337,191,o),
(294,224,o),
(240,258,cs),
(195,287,o),
(140,305,o),
(140,359,cs),
(140,395,o),
(169,419,o),
(213,419,cs),
(258,419,o),
(290,386,o),
(297,332,c),
(327,337,l),
(312,451,l),
(300,453,o),
(262,464,o),
(218,464,cs),
(130,464,o),
(63,416,o),
(63,335,cs),
(63,258,o),
(146,210,o),
(186,184,cs),
(223,161,o),
(260,142,o),
(260,103,cs),
(260,59,o),
(224,36,o),
(177,36,cs),
(115,36,o),
(79,88,o),
(67,154,c),
(34,148,l),
(55,18,l),
(80,3,o),
(138,-8,o),
(184,-8,cs)
);
}
);
};
layerId = "6D97EE47-94AA-478E-ABFB-936E6C32B491";
shapes = (
{
closed = 1;
nodes = (
(274,-8,o),
(337,42,o),
(337,115,cs),
(337,256,o),
(136,256,o),
(136,354,cs),
(136,396,o),
(169,419,o),
(213,419,cs),
(258,419,o),
(290,386,o),
(297,332,c),
(327,337,l),
(312,451,l),
(300,453,o),
(262,464,o),
(218,464,cs),
(130,464,o),
(63,416,o),
(63,335,cs),
(63,213,o),
(260,183,o),
(260,103,cs),
(260,59,o),
(224,36,o),
(177,36,cs),
(115,36,o),
(79,88,o),
(67,154,c),
(34,148,l),
(55,18,l),
(80,3,o),
(138,-8,o),
(184,-8,cs)
);
}
);
width = 371;
}
);
unicode = 115;
},
{
glyphname = germandbls;
kernLeft = f;
kernRight = s;
lastChange = "2025-07-23 22:17:23 +0000";
layers = (
{
background = {
shapes = (
{
closed = 1;
nodes = (
(1426,-8,o),
(1488,37,o),
(1488,125,cs),
(1488,188,o),
(1447,243,o),
(1398,283,cs),
(1367,308,o),
(1320,346,o),
(1292,374,cs),
(1271,395,o),
(1259,409,o),
(1259,432,cs),
(1259,453,o),
(1269,471,o),
(1289,494,cs),
(1306,513,o),
(1342,547,o),
(1393,588,c),
(1398,606,o),
(1402,623,o),
(1402,646,cs),
(1402,727,o),
(1333,797,o),
(1251,797,cs),
(1190,797,o),
(1127,772,o),
(1079,719,cs),
(1009,642,o),
(1007,538,o),
(1007,456,c),
(957,456,l),
(946,400,l),
(1007,400,l),
(1007,0,l),
(1088,0,l),
(1088,58,o),
(1088,164,o),
(1088,236,cs),
(1088,311,o),
(1087,433,o),
(1087,499,cs),
(1087,516,o),
(1087,529,o),
(1087,537,cs),
(1087,602,o),
(1090,653,o),
(1123,694,cs),
(1145,722,o),
(1176,739,o),
(1213,739,cs),
(1271,739,o),
(1324,698,o),
(1324,630,cs),
(1324,614,o),
(1321,598,o),
(1317,586,c),
(1286,558,o),
(1250,523,o),
(1230,495,cs),
(1213,470,o),
(1199,444,o),
(1199,412,cs),
(1199,391,o),
(1203,371,o),
(1220,344,cs),
(1248,300,o),
(1296,259,o),
(1337,223,cs),
(1380,185,o),
(1414,153,o),
(1414,103,cs),
(1414,68,o),
(1385,41,o),
(1348,37,cs),
(1313,33,o),
(1291,41,o),
(1265,69,cs),
(1249,86,o),
(1239,122,o),
(1233,154,c),
(1200,148,l),
(1222,18,l),
(1246,3,o),
(1289,-8,o),
(1335,-8,cs)
);
},
{
closed = 1;
nodes = (
(526,-8,o),
(588,37,o),
(588,125,cs),
(588,188,o),
(547,243,o),
(498,283,cs),
(467,308,o),
(420,346,o),
(392,374,cs),
(371,395,o),
(359,409,o),
(359,432,cs),
(359,453,o),
(369,471,o),
(389,494,cs),
(406,513,o),
(442,547,o),
(493,588,c),
(498,606,o),
(502,623,o),
(502,646,cs),
(502,727,o),
(423,797,o),
(345,797,cs),
(297,797,o),
(239,778,o),
(189,730,cs),
(110,654,o),
(107,548,o),
(107,456,c),
(57,456,l),
(46,400,l),
(107,400,l),
(107,0,l),
(188,0,l),
(188,489,ls),
(188,602,o),
(190,661,o),
(225,700,cs),
(248,726,o),
(276,739,o),
(313,739,cs),
(371,739,o),
(424,698,o),
(424,630,cs),
(424,614,o),
(421,598,o),
(417,586,c),
(386,558,o),
(350,523,o),
(330,495,cs),
(313,470,o),
(299,444,o),
(299,412,cs),
(299,391,o),
(303,371,o),
(320,344,cs),
(348,300,o),
(396,259,o),
(437,223,cs),
(480,185,o),
(514,153,o),
(514,103,cs),
(514,68,o),
(485,41,o),
(448,37,cs),
(413,33,o),
(391,41,o),
(365,69,cs),
(349,86,o),
(339,122,o),
(333,154,c),
(300,148,l),
(322,18,l),
(346,3,o),
(389,-8,o),
(435,-8,cs)
);
}
);
};
layerId = "6D97EE47-94AA-478E-ABFB-936E6C32B491";
shapes = (
{
closed = 1;
nodes = (
(188,0,l),
(188,481,ls),
(188,594,o),
(190,653,o),
(225,692,cs),
(248,718,o),
(276,731,o),
(313,731,cs),
(371,731,o),
(424,690,o),
(424,622,cs),
(424,606,o),
(421,590,o),
(417,578,c),
(386,550,o),
(351,523,o),
(330,495,cs),
(312,471,o),
(299,444,o),
(299,412,cs),
(299,391,o),
(303,371,o),
(320,344,cs),
(348,300,o),
(396,259,o),
(437,223,cs),
(480,185,o),
(514,153,o),
(514,103,cs),
(514,68,o),
(485,41,o),
(448,37,cs),
(413,33,o),
(391,41,o),
(365,69,cs),
(349,86,o),
(339,122,o),
(333,154,c),
(300,148,l),
(322,18,l),
(346,3,o),
(389,-8,o),
(435,-8,cs),
(526,-8,o),
(588,37,o),
(588,125,cs),
(588,188,o),
(547,243,o),
(498,283,cs),
(467,308,o),
(420,346,o),
(392,374,cs),
(371,395,o),
(359,409,o),
(359,432,cs),
(359,453,o),
(368,472,o),
(389,494,cs),
(407,513,o),
(442,540,o),
(493,580,c),
(498,598,o),
(502,615,o),
(502,638,cs),
(502,719,o),
(423,789,o),
(345,789,cs),
(297,789,o),
(239,770,o),
(189,722,cs),
(110,646,o),
(107,540,o),
(107,448,cs),
(107,0,l)
);
},
{
pos = (107,0);
ref = _seriflc;
scale = (-1,1);
},
{
pos = (188,0);
ref = _seriflc;
scale = (0.9,1);
},
{
pos = (42,0);
ref = _fbarleft;
}
);
width = 622;
}
);
metricLeft = f;
metricRight = s;
unicode = 223;
},
{
glyphname = longs;
kernLeft = f;
kernRight = longs;
lastChange = "2025-11-02 01:02:16 +0000";
layers = (
{
background = {
shapes = (
{
closed = 1;
nodes = (
(2288,0,l),
(2288,489,ls),
(2288,601,o),
(2289,650,o),
(2325,690,cs),
(2348,716,o),
(2379,728,o),
(2410,728,cs),
(2444,728,o),
(2478,713,o),
(2504,685,c),
(2574,753,l),
(2547,780,o),
(2501,797,o),
(2451,797,cs),
(2397,797,o),
(2339,778,o),
(2289,730,cs),
(2210,654,o),
(2207,548,o),
(2207,456,c),
(2147,456,l),
(2136,400,l),
(2207,400,l),
(2207,0,l)
);
},
{
closed = 1;
nodes = (
(2788,400,l),
(2934,400,l),
(2934,456,l),
(2786,456,l),
(2787,504,o),
(2777,637,o),
(2825,690,cs),
(2848,716,o),
(2879,728,o),
(2910,728,cs),
(2944,728,o),
(2978,713,o),
(3004,685,c),
(3074,753,l),
(3047,780,o),
(3001,797,o),
(2951,797,cs),
(2897,797,o),
(2839,778,o),
(2789,730,cs),
(2710,654,o),
(2707,548,o),
(2707,456,c),
(2657,456,l),
(2646,400,l),
(2707,400,l),
(2707,0,l),
(2788,0,l)
);
},
{
closed = 1;
nodes = (
(2434,400,l),
(2434,456,l),
(2288,456,l),
(2288,400,l)
);
},
{
closed = 1;
nodes = (
(1588,0,l),
(1588,489,ls),
(1588,602,o),
(1590,661,o),
(1625,700,cs),
(1648,726,o),
(1679,738,o),
(1710,738,cs),
(1744,738,o),
(1782,717,o),
(1808,689,c),
(1874,753,l),
(1847,780,o),
(1801,797,o),
(1751,797,cs),
(1697,797,o),
(1639,778,o),
(1589,730,cs),
(1510,654,o),
(1507,548,o),
(1507,456,cs),
(1507,0,l)
);
},
{
closed = 1;
nodes = (
(888,0,l),
(888,489,ls),
(888,601,o),
(889,650,o),
(925,690,cs),
(948,716,o),
(979,728,o),
(1010,728,cs),
(1044,728,o),
(1078,713,o),
(1104,685,c),
(1174,753,l),
(1147,780,o),
(1101,797,o),
(1051,797,cs),
(997,797,o),
(939,778,o),
(889,730,cs),
(810,654,o),
(807,548,o),
(807,456,c),
(747,456,l),
(736,400,l),
(807,400,l),
(807,0,l)
);
},
{
closed = 1;
nodes = (
(188,0,l),
(188,489,ls),
(188,602,o),
(190,661,o),
(225,700,cs),
(248,726,o),
(279,738,o),
(310,738,cs),
(344,738,o),
(382,717,o),
(408,689,c),
(474,753,l),
(447,780,o),
(401,797,o),
(351,797,cs),
(297,797,o),
(239,778,o),
(189,730,cs),
(110,654,o),
(107,548,o),
(107,456,cs),
(107,0,l)
);
},
{
closed = 1;
nodes = (
(46,400,l),
(107,400,l),
(107,456,l),
(57,456,l)
);
}
);
};
layerId = "6D97EE47-94AA-478E-ABFB-936E6C32B491";
shapes = (
{
alignment = -1;
pos = (42,0);
ref = _fbarleft;
},
{
alignment = -1;
pos = (28,0);
ref = _f0;
}
);
width = 304;
}
);
metricLeft = f;
metricRight = "=f-60";
unicode = 383;
},
